<svg viewBox="0 0 32 32" xmlns="http://www.w3.org/2000/svg" xmlns:xlink="http://www.w3.org/1999/xlink" width="32" height="32" fill="none" customFrame="#000000">
	<rect id="属性 1=jpg" width="32" height="32" x="0" y="0" />
	<path id="减去顶层" d="M7 30L25 30C26.6569 30 28 28.6569 28 27L28 10.1098C28 9.39364 27.7438 8.70113 27.2778 8.1574L22.898 3.04763C22.328 2.38269 21.496 2 20.6202 2L7 2C5.34315 2 4 3.34315 4 5L4 27C4 28.6569 5.34315 30 7 30ZM10.3574 18.1353C10.3574 19.0347 10.1501 19.7246 9.7356 20.2051C9.64099 20.3147 9.53705 20.4119 9.42375 20.4965L9.4237 20.4965C9.04054 20.7827 8.55051 20.9258 7.95361 20.9258C7.61084 20.9258 7.29297 20.8672 7 20.75L7 19.3833C7.11341 19.469 7.23394 19.5354 7.36159 19.5826C7.51754 19.6402 7.68412 19.6689 7.86133 19.6689C8.07258 19.6689 8.25182 19.6204 8.39907 19.5233C8.73784 19.3 8.90723 18.8197 8.90723 18.0825L8.90723 14L10.3574 14L10.3574 18.1353ZM14.4502 20.8071L14.4502 18.4341L15.1973 18.4341C15.8066 18.448 16.3352 18.324 16.783 18.0619C16.8993 17.9938 17.0101 17.9165 17.1155 17.8298C17.3347 17.6495 17.507 17.4438 17.6322 17.2125C17.7989 16.9046 17.8823 16.5515 17.8823 16.1533C17.8823 15.553 17.7343 15.0783 17.4382 14.729C17.0262 14.243 16.3276 14 15.3423 14L13 14L13 20.8071L14.4502 20.8071ZM24.959 20.4644C24.2939 20.8481 23.4766 21.04 22.5068 21.04C21.5813 21.04 20.8223 20.8179 20.23 20.3736C20.1286 20.2976 20.0321 20.215 19.9404 20.126C19.8139 20.0029 19.7001 19.8708 19.599 19.7295C19.1997 19.1709 19 18.4696 19 17.6255C19 16.9025 19.1568 16.2704 19.4705 15.7292C19.6221 15.4678 19.8102 15.2275 20.0349 15.0085C20.1955 14.852 20.368 14.7137 20.5523 14.5937C21.1599 14.1979 21.8963 14 22.7617 14C23.4883 14 24.1226 14.1025 24.6646 14.3076L24.6646 15.6831C24.1372 15.3755 23.4927 15.2217 22.731 15.2217C22.2932 15.2217 21.9108 15.3169 21.5838 15.5072C21.4207 15.6022 21.2713 15.7209 21.1357 15.8633C21.0521 15.9511 20.9771 16.0447 20.9107 16.144C20.6535 16.5284 20.5249 16.9987 20.5249 17.5552C20.5249 18.2357 20.6929 18.773 21.0289 19.1671C21.0444 19.1853 21.0602 19.2032 21.0764 19.2207C21.1724 19.3247 21.2775 19.4151 21.3917 19.492C21.7151 19.7096 22.1117 19.8184 22.5815 19.8184C22.9595 19.8184 23.2686 19.7598 23.5088 19.6426L23.5088 18.2451L22.1333 18.2451L22.1333 17.0806L24.959 17.0806L24.959 20.4644ZM14.4502 17.3223L14.4502 15.125L15.0918 15.125C15.578 15.125 15.9241 15.2451 16.1301 15.4854C16.2816 15.6621 16.3574 15.9038 16.3574 16.2104C16.3574 16.5295 16.2784 16.7799 16.1204 16.9617C15.9114 17.2021 15.5641 17.3223 15.0786 17.3223L14.4502 17.3223Z" fill="rgb(54,98,255)" fill-rule="evenodd" />
</svg>
