<svg viewBox="0 0 24 24" xmlns="http://www.w3.org/2000/svg" xmlns:xlink="http://www.w3.org/1999/xlink" width="24" height="24" fill="none">
	<rect id="sticky-note-line" width="24" height="24" x="0" y="0" fill="rgb(255,255,255)" fill-opacity="0" />
	<path id="矢量 185" d="M21 15L15 20.996L4.002 21C3.73749 21.0011 3.48337 20.8971 3.29549 20.7109C3.1076 20.5247 3.00132 20.2715 3 20.007L3 3.993C3 3.445 3.445 3 3.993 3L20.007 3C20.555 3 21 3.456 21 4.002L21 15L21 15ZM19 5L5 5L5 19L13 19L13 14C13 13.7551 13.09 13.5187 13.2527 13.3356C13.4155 13.1526 13.6397 13.0357 13.883 13.007L14 13L19 12.999L19 5ZM18.171 14.999L15 15L15 18.169L18.171 14.999Z" fill="rgb(54,98,255)" fill-rule="evenodd" />
</svg>
