<svg viewBox="0 0 20 20" xmlns="http://www.w3.org/2000/svg" xmlns:xlink="http://www.w3.org/1999/xlink" width="20" height="20" fill="none" customFrame="#000000">
	<rect id="文件icon" width="20" height="20" x="0" y="0" />
	<path id="减去顶层" d="M5 18L15 18C16.1046 18 17 17.1046 17 16L17 6.75147C17 6.26702 16.8242 5.79904 16.5052 5.43446L14.0976 2.68299C13.7178 2.24896 13.1692 2 12.5925 2L5 2C3.89543 2 3 2.89543 3 4L3 16C3 17.1046 3.89543 18 5 18ZM5.61646 11.9219L5.61646 13.4286L4.67651 13.4286L4.67651 9.10658L6.19466 9.10658C6.83326 9.10658 7.28608 9.26087 7.55311 9.56943C7.5577 9.57473 7.56223 9.58008 7.56671 9.58547C7.74956 9.80565 7.84098 10.1018 7.84098 10.4738C7.84098 10.7186 7.7903 10.9366 7.68894 11.1277L7.68893 11.1277L7.68801 11.1294C7.685 11.1351 7.68196 11.1407 7.67886 11.1463C7.5977 11.2931 7.48606 11.4237 7.34395 11.5382C7.27566 11.5932 7.20384 11.6423 7.12849 11.6856C6.83824 11.852 6.49563 11.9307 6.10067 11.9219L5.61646 11.9219ZM8.51033 9.10658L8.51033 13.4286L10.0285 13.4286C10.5479 13.4286 10.9959 13.315 11.3724 13.0877C11.4983 13.0118 11.6162 12.9231 11.7261 12.8217C11.8611 12.6972 11.9753 12.5602 12.0687 12.4108C12.2789 12.0746 12.384 11.6754 12.384 11.2132C12.384 10.5874 12.2285 10.1011 11.9175 9.75412C11.9104 9.74617 11.9032 9.7383 11.8959 9.7305C11.5073 9.31456 10.8867 9.10658 10.0342 9.10658L8.51033 9.10658ZM15.6425 9.85993L14.0674 9.85993L14.0674 10.9704L15.5172 10.9704L15.5172 11.7238L14.0674 11.7238L14.0674 13.4286L13.1274 13.4286L13.1274 9.10658L15.6425 9.10658L15.6425 9.85993ZM5.61646 9.82087L5.61646 11.216L6.02376 11.216C6.33846 11.216 6.56355 11.1396 6.69902 10.987C6.80142 10.8716 6.85262 10.7126 6.85262 10.51C6.85262 10.3153 6.80351 10.1619 6.70528 10.0497C6.57173 9.89714 6.34741 9.82087 6.03231 9.82087L5.61646 9.82087ZM9.45028 12.6752L9.45028 9.85993L9.96012 9.85993C10.296 9.85993 10.5822 9.93505 10.8186 10.0853C10.8816 10.1253 10.941 10.1706 10.9969 10.2213C11.0543 10.2733 11.1055 10.3297 11.1505 10.3905C11.1542 10.3954 11.1578 10.4004 11.1613 10.4054C11.1621 10.4064 11.1628 10.4074 11.1635 10.4084C11.3183 10.6263 11.3957 10.8992 11.3957 11.2271C11.3957 11.596 11.3081 11.9015 11.1328 12.1437C11.1281 12.1502 11.1232 12.1568 11.1183 12.1633C11.0863 12.2057 11.0515 12.2462 11.014 12.2846C10.9677 12.332 10.9183 12.375 10.8657 12.4138C10.8594 12.4184 10.8531 12.4229 10.8467 12.4274C10.613 12.5926 10.3184 12.6752 9.96297 12.6752L9.45028 12.6752Z" fill="rgb(54,98,255)" fill-rule="evenodd" />
</svg>
