<svg width="32.000000" height="32.000000" viewBox="0 0 32 32" fill="none" xmlns="http://www.w3.org/2000/svg" xmlns:xlink="http://www.w3.org/1999/xlink">
	<desc>
			Created with Pixso.
	</desc>
	<defs>
		<clipPath id="clip241_2005">
			<rect id="上传-1" width="32.000000" height="32.000000" fill="white" fill-opacity="0"/>
		</clipPath>
	</defs>
	<g clip-path="url(#clip241_2005)">
		<path id="path" d="M4.3 0C3.44 0.02 2.74 0.72 2.71 1.59L2.71 30.26C2.71 30.47 2.75 30.67 2.84 30.86C2.92 31.06 3.04 31.22 3.19 31.37C3.34 31.52 3.51 31.64 3.7 31.72C3.89 31.8 4.09 31.85 4.3 31.85L27.63 31.85C27.84 31.85 28.04 31.81 28.23 31.72C28.43 31.64 28.6 31.52 28.74 31.37C28.89 31.22 29.01 31.05 29.09 30.86C29.17 30.67 29.21 30.47 29.22 30.26L29.22 9.02L20.2 0L4.3 0Z" fill="#959BA1" fill-opacity="1.000000" fill-rule="nonzero"/>
		<path id="path" d="M29.22 9.02L21.8 9.02C20.93 9 20.23 8.3 20.2 7.43L20.2 0L29.22 9.02Z" fill="#E8EFFF" fill-opacity="1.000000" fill-rule="nonzero"/>
		<path id="path" d="M11.06 16.96L13.85 16.96L13.85 21.47C13.85 21.54 13.86 21.61 13.89 21.67C13.92 21.73 13.96 21.79 14 21.84C14.05 21.89 14.11 21.93 14.18 21.96C14.24 21.98 14.31 22 14.38 22L17.56 22C17.63 22 17.69 21.98 17.76 21.96C17.82 21.93 17.88 21.89 17.93 21.84C17.98 21.79 18.02 21.73 18.04 21.67C18.07 21.61 18.09 21.54 18.09 21.47L18.09 16.96L20.87 16.96C20.92 16.96 20.97 16.95 21.02 16.92C21.06 16.89 21.09 16.85 21.11 16.8C21.13 16.75 21.13 16.7 21.12 16.64C21.11 16.59 21.09 16.55 21.05 16.51L16.34 11.99C16.23 11.89 16.11 11.84 15.97 11.83C15.9 11.83 15.83 11.84 15.76 11.87C15.7 11.9 15.64 11.94 15.59 11.99L10.88 16.5C10.84 16.54 10.81 16.58 10.8 16.64C10.79 16.69 10.8 16.74 10.82 16.79C10.84 16.84 10.88 16.88 10.92 16.91C10.96 16.94 11.01 16.95 11.06 16.95L11.06 16.96ZM22.59 23.86L9.34 23.86C9.24 23.85 9.15 23.87 9.06 23.92C8.97 23.96 8.9 24.03 8.85 24.11C8.8 24.2 8.78 24.29 8.78 24.39C8.78 24.49 8.8 24.58 8.85 24.66C8.9 24.75 8.97 24.81 9.06 24.86C9.15 24.91 9.24 24.93 9.34 24.92L22.59 24.92C22.66 24.92 22.72 24.9 22.78 24.87C22.85 24.84 22.9 24.8 22.95 24.75C22.99 24.7 23.03 24.65 23.05 24.58C23.08 24.52 23.09 24.46 23.09 24.39C23.09 24.32 23.08 24.26 23.05 24.19C23.03 24.13 22.99 24.07 22.95 24.02C22.9 23.98 22.85 23.94 22.78 23.91C22.72 23.88 22.66 23.86 22.59 23.86Z" fill="#FFFFFF" fill-opacity="1.000000" fill-rule="nonzero"/>
	</g>
</svg>
