<svg width="22.000000" height="22.000000" viewBox="0 0 22 22" fill="none" xmlns="http://www.w3.org/2000/svg" xmlns:xlink="http://www.w3.org/1999/xlink">
  <desc>
    Created with Pixso.
  </desc>
  <defs>
    <clipPath id="clip186_2353">
      <rect id="工作台" width="18.000000" height="18.000000" transform="translate(2.000000 2.000000)" fill="white" fill-opacity="0"/>
    </clipPath>
    <clipPath id="clip186_2352">
      <rect id="画板 52" width="22.000000" height="22.000000" fill="white" fill-opacity="0"/>
    </clipPath>
  </defs>
  <rect id="画板 52" width="22.000000" height="22.000000" fill="#FFFFFF" fill-opacity="0"/>
  <g clip-path="url(#clip186_2352)">
    <g clip-path="url(#clip186_2353)">
      <path id="path" d="M6.5 14.37L3.5 14.37L3.5 4.62L18.5 4.62L18.5 14.37L15.5 14.37L6.5 14.37Z" fill="#000000" fill-opacity="0" fill-rule="nonzero"/>
      <path id="path" d="M3.5 14.37L3.5 4.62L18.5 4.62L18.5 14.37L15.5 14.37L6.5 14.37L3.5 14.37Z" stroke="currentColor" stroke-opacity="1.000000" stroke-width="1.130000" stroke-linejoin="round"/>
      <path id="path" d="M7.45 10.27L7.43 10.25C7.43 9.93 7.68 9.68 8 9.68C8.31 9.68 8.56 9.93 8.56 10.25L8.54 10.27L7.45 10.27ZM8.54 11.73L8.56 11.75C8.56 12.06 8.31 12.31 8 12.31C7.68 12.31 7.43 12.06 7.43 11.75L7.45 11.73L8.54 11.73Z" fill="#000000" fill-opacity="0" fill-rule="nonzero"/>
      <path id="path" d="M8 10.25L8 11.75" stroke="currentColor" stroke-opacity="1.000000" stroke-width="1.130000" stroke-linejoin="round" stroke-linecap="round"/>
      <path id="path" d="M10.45 14.39L10.43 14.37C10.43 14.05 10.68 13.81 11 13.81C11.31 13.81 11.56 14.05 11.56 14.37L11.54 14.39L10.45 14.39ZM11.54 16.6L11.56 16.62C11.56 16.94 11.31 17.18 11 17.18C10.68 17.18 10.43 16.94 10.43 16.62L10.45 16.6L11.54 16.6Z" fill="#000000" fill-opacity="0" fill-rule="nonzero"/>
      <path id="path" d="M11 14.37L11 16.62" stroke="currentColor" stroke-opacity="1.000000" stroke-width="1.130000" stroke-linejoin="round" stroke-linecap="round"/>
      <path id="path" d="M10.45 8.77L10.43 8.75C10.43 8.43 10.68 8.18 11 8.18C11.31 8.18 11.56 8.43 11.56 8.75L11.54 8.77L10.45 8.77ZM11.54 11.73L11.56 11.75C11.56 12.06 11.31 12.31 11 12.31C10.68 12.31 10.43 12.06 10.43 11.75L10.45 11.73L11.54 11.73Z" fill="#000000" fill-opacity="0" fill-rule="nonzero"/>
      <path id="path" d="M11 8.75L11 11.75" stroke="currentColor" stroke-opacity="1.000000" stroke-width="1.130000" stroke-linejoin="round" stroke-linecap="round"/>
      <path id="path" d="M13.45 7.27L13.43 7.25C13.43 6.93 13.68 6.68 14 6.68C14.31 6.68 14.56 6.93 14.56 7.25L14.54 7.27L13.45 7.27ZM14.54 11.73L14.56 11.75C14.56 12.06 14.31 12.31 14 12.31C13.68 12.31 13.43 12.06 13.43 11.75L13.45 11.73L14.54 11.73Z" fill="#000000" fill-opacity="0" fill-rule="nonzero"/>
      <path id="path" d="M14 7.25L14 11.75" stroke="currentColor" stroke-opacity="1.000000" stroke-width="1.130000" stroke-linejoin="round" stroke-linecap="round"/>
      <path id="path" d="M6.52 17.91L6.5 17.93C6.18 17.93 5.93 17.69 5.93 17.37C5.93 17.05 6.18 16.81 6.5 16.81L6.52 16.83L6.52 17.91ZM15.48 16.83L15.5 16.81C15.81 16.81 16.06 17.05 16.06 17.37C16.06 17.69 15.81 17.93 15.5 17.93L15.48 17.91L15.48 16.83Z" fill="#000000" fill-opacity="0" fill-rule="nonzero"/>
      <path id="path" d="M6.5 17.37L15.5 17.37" stroke="currentColor" stroke-opacity="1.000000" stroke-width="1.130000" stroke-linejoin="round" stroke-linecap="round"/>
    </g>
  </g>
</svg>
