<svg viewBox="0 0 20 20" xmlns="http://www.w3.org/2000/svg" xmlns:xlink="http://www.w3.org/1999/xlink" width="20.000000" height="20.000000" fill="none">
	<rect id="backward-15-seconds 1" width="20.000000" height="20.000000" x="0.000000" y="0.000000" />
	<path id="矢量 216" d="M12.0247 14.099L10.1164 14.099C9.7747 14.099 9.49136 13.8156 9.49136 13.474C9.49136 13.1323 9.7747 12.849 10.1164 12.849L12.0247 12.849C12.383 12.849 12.6747 12.5573 12.6747 12.199C12.6747 11.8406 12.383 11.549 12.0247 11.549L10.1164 11.549C9.91636 11.549 9.7247 11.449 9.60804 11.2906C9.49136 11.1323 9.45804 10.9156 9.5247 10.724L10.158 8.81563C10.2414 8.5573 10.483 8.39062 10.7497 8.39062L13.2997 8.39062C13.6414 8.39062 13.9247 8.67396 13.9247 9.01562C13.9247 9.3573 13.6414 9.64062 13.2997 9.64062L11.1997 9.64062L10.983 10.299L12.0247 10.299C13.0747 10.299 13.9247 11.149 13.9247 12.199C13.9247 13.249 13.0664 14.099 12.0247 14.099L12.0247 14.099ZM7.94968 14.099C7.60802 14.099 7.3247 13.8156 7.3247 13.474L7.3247 10.649L7.16636 10.8323C6.93302 11.0906 6.54136 11.1073 6.28302 10.8823C6.03302 10.649 6.00802 10.2573 6.24136 9.99897L7.49136 8.60731C7.66636 8.41565 7.94136 8.34897 8.18302 8.44065C8.42468 8.53231 8.58302 8.76565 8.58302 9.02397L8.58302 13.4823C8.5747 13.824 8.29968 14.099 7.94968 14.099L7.94968 14.099Z" fill="rgb(94.8712,100.341,107.92)" fill-rule="nonzero" />
	<path id="矢量 217" d="M9.99967 2.90019C9.93301 2.90019 9.86633 2.90853 9.79967 2.90853L10.483 2.05853C10.6997 1.79185 10.658 1.39185 10.383 1.18353C10.108 0.975189 9.72467 1.00853 9.50801 1.28353L7.86633 3.33353C7.85801 3.34185 7.85801 3.35019 7.84967 3.36685C7.82467 3.40019 7.80801 3.44185 7.79133 3.47519C7.77467 3.51685 7.75801 3.55019 7.74967 3.58353C7.74133 3.62519 7.74133 3.65853 7.74133 3.70019L7.74133 3.86685C7.74967 3.89185 7.76633 3.90853 7.77467 3.93353C7.79133 3.97519 7.80801 4.00853 7.82467 4.05019C7.84967 4.08353 7.87467 4.11685 7.90801 4.14185C7.92467 4.16685 7.93301 4.19185 7.95801 4.20853C7.97467 4.21685 7.98301 4.22519 7.99967 4.23353C8.01633 4.25019 8.04133 4.25853 8.06633 4.26685C8.10801 4.29185 8.15801 4.30853 8.19967 4.31685C8.23301 4.33353 8.25801 4.33353 8.28301 4.33353C8.30801 4.33353 8.32467 4.34185 8.34967 4.34185C8.37467 4.34185 8.39133 4.33353 8.40801 4.32519C8.43301 4.32519 8.45801 4.33353 8.48301 4.32519C9.01633 4.20019 9.51633 4.14185 9.99133 4.14185C13.733 4.14185 16.7747 7.18353 16.7747 10.9252C16.7747 14.6668 13.733 17.7085 9.99133 17.7085C6.24967 17.7085 3.20801 14.6668 3.20801 10.9252C3.20801 9.47519 3.68301 8.07519 4.58301 6.87519C4.79133 6.60019 4.73301 6.20853 4.45801 6.00019C4.18301 5.79185 3.79133 5.85019 3.58301 6.12519C2.51633 7.54185 1.95801 9.20019 1.95801 10.9252C1.95801 15.3502 5.55801 18.9585 9.99133 18.9585C14.4247 18.9585 18.0247 15.3585 18.0247 10.9252C18.0247 6.49185 14.4247 2.90019 9.99967 2.90019L9.99967 2.90019Z" fill="rgb(94.8712,100.341,107.92)" fill-rule="nonzero" />
</svg>
