<svg viewBox="0 0 24 24" xmlns="http://www.w3.org/2000/svg" xmlns:xlink="http://www.w3.org/1999/xlink" width="24.000000" height="24.000000" fill="none">
	<rect id="Icon/Fill/Warning" width="24.000000" height="24.000000" x="0.000000" y="0.000000" />
	<g style="mix-blend-mode:normal">
		<rect id="矩形" width="24.000000" height="24.000000" x="0.000000" y="0.000000" opacity="9.99999975e-05" fill="rgb(0,0,0)" />
	</g>
	<path id="形状" d="M12 1.5C6.20156 1.5 1.5 6.20156 1.5 12C1.5 17.7984 6.20156 22.5 12 22.5C17.7984 22.5 22.5 17.7984 22.5 12C22.5 6.20156 17.7984 1.5 12 1.5ZM11.25 6.9375C11.25 6.83437 11.3344 6.75 11.4375 6.75L12.5625 6.75C12.6656 6.75 12.75 6.83437 12.75 6.9375L12.75 13.3125C12.75 13.4156 12.6656 13.5 12.5625 13.5L11.4375 13.5C11.3344 13.5 11.25 13.4156 11.25 13.3125L11.25 6.9375ZM10.875 16.125C10.875 16.7461 11.3789 17.25 12 17.25C12.6211 17.25 13.125 16.7461 13.125 16.125C13.125 15.5039 12.6211 15 12 15C11.3789 15 10.875 15.5039 10.875 16.125Z" fill="currentColor" fill-rule="evenodd" />
	<path id="形状" d="M12 1.5C6.20156 1.5 1.5 6.20156 1.5 12C1.5 17.7984 6.20156 22.5 12 22.5C17.7984 22.5 22.5 17.7984 22.5 12C22.5 6.20156 17.7984 1.5 12 1.5ZM11.25 6.9375C11.25 6.83437 11.3344 6.75 11.4375 6.75L12.5625 6.75C12.6656 6.75 12.75 6.83437 12.75 6.9375L12.75 13.3125C12.75 13.4156 12.6656 13.5 12.5625 13.5L11.4375 13.5C11.3344 13.5 11.25 13.4156 11.25 13.3125L11.25 6.9375ZM10.875 16.125C10.875 16.7461 11.3789 17.25 12 17.25C12.6211 17.25 13.125 16.7461 13.125 16.125C13.125 15.5039 12.6211 15 12 15C11.3789 15 10.875 15.5039 10.875 16.125Z" fill-rule="evenodd" stroke="rgb(151,151,151)" stroke-opacity="0" stroke-width="0" />
</svg>
