<svg width="18.000000" height="18.000000" viewBox="0 0 18 18" fill="none" xmlns="http://www.w3.org/2000/svg" xmlns:xlink="http://www.w3.org/1999/xlink">
	<desc>
			Created with Pixso.
	</desc>
	<defs>
		<clipPath id="clip657_14014">
			<rect id="文字" width="18.000000" height="18.000000" fill="white" fill-opacity="0"/>
		</clipPath>
	</defs>
	<g clip-path="url(#clip657_14014)">
		<rect id="rect" x="2.250000" y="2.250000" rx="3.000000" width="13.500000" height="13.500000" fill="#000000" fill-opacity="0"/>
		<rect id="rect" x="2.250000" y="2.250000" rx="3.000000" width="13.500000" height="13.500000" stroke="#3662FF" stroke-opacity="1.000000" stroke-width="1.125000" stroke-linejoin="round"/>
		<path id="path" d="M6.54 7.1L6.56 7.12C6.56 7.44 6.31 7.68 6 7.68C5.68 7.68 5.43 7.44 5.43 7.12L5.45 7.1L6.54 7.1ZM12.54 7.1L12.56 7.12C12.56 7.44 12.31 7.68 12 7.68C11.68 7.68 11.43 7.44 11.43 7.12L11.45 7.1L12.54 7.1Z" fill="#000000" fill-opacity="0" fill-rule="nonzero"/>
		<path id="path" d="M6 7.12L6 6L12 6L12 7.12" stroke="#3662FF" stroke-opacity="1.000000" stroke-width="1.125000" stroke-linejoin="round" stroke-linecap="round"/>
		<path id="path" d="M8.26 13.29L8.25 13.31C7.93 13.31 7.68 13.06 7.68 12.75C7.68 12.43 7.93 12.18 8.25 12.18L8.26 12.2L8.26 13.29ZM9.73 12.2L9.75 12.18C10.06 12.18 10.31 12.43 10.31 12.75C10.31 13.06 10.06 13.31 9.75 13.31L9.73 13.29L9.73 12.2Z" fill="#000000" fill-opacity="0" fill-rule="nonzero"/>
		<path id="path" d="M8.25 12.75L9.75 12.75" stroke="#3662FF" stroke-opacity="1.000000" stroke-width="1.125000" stroke-linejoin="round" stroke-linecap="round"/>
		<path id="path" d="M8.45 6.76L8.43 6.75C8.43 6.43 8.68 6.18 9 6.18C9.31 6.18 9.56 6.43 9.56 6.75L9.54 6.76L8.45 6.76ZM9.54 12.73L9.56 12.75C9.56 13.06 9.31 13.31 9 13.31C8.68 13.31 8.43 13.06 8.43 12.75L8.45 12.73L9.54 12.73Z" fill="#000000" fill-opacity="0" fill-rule="nonzero"/>
		<path id="path" d="M9 6.75L9 12.75" stroke="#3662FF" stroke-opacity="1.000000" stroke-width="1.125000" stroke-linejoin="round" stroke-linecap="round"/>
	</g>
</svg>
