<svg width="18.000000" height="18.000000" viewBox="0 0 18 18" fill="none" xmlns="http://www.w3.org/2000/svg" xmlns:xlink="http://www.w3.org/1999/xlink">
	<desc>
			Created with Pixso.
	</desc>
	<defs>
		<clipPath id="clip657_14101">
			<rect id="锁定" width="18.000000" height="18.000000" fill="white" fill-opacity="0"/>
		</clipPath>
	</defs>
	<g clip-path="url(#clip657_14101)">
		<rect id="rect" x="2.250000" y="8.250000" rx="2.000000" width="13.500000" height="8.250000" fill="#000000" fill-opacity="0"/>
		<rect id="rect" x="2.250000" y="8.250000" rx="2.000000" width="13.500000" height="8.250000" stroke="#3662FF" stroke-opacity="1.000000" stroke-width="1.125000" stroke-linejoin="round"/>
		<path id="path" d="M5.79 8.23L5.81 8.25C5.81 8.56 5.56 8.81 5.25 8.81C4.93 8.81 4.68 8.56 4.68 8.25L4.7 8.23L5.79 8.23ZM13.29 8.23L13.31 8.25C13.31 8.56 13.06 8.81 12.75 8.81C12.43 8.81 12.18 8.56 12.18 8.25L12.2 8.23L13.29 8.23Z" fill="#000000" fill-opacity="0" fill-rule="nonzero"/>
		<path id="path" d="M5.25 8.25L5.25 5.25C5.25 3.17 6.92 1.5 9 1.5C11.07 1.5 12.75 3.17 12.75 5.25L12.75 8.25" stroke="#3662FF" stroke-opacity="1.000000" stroke-width="1.125000" stroke-linejoin="round" stroke-linecap="round"/>
		<path id="path" d="M8.45 11.26L8.43 11.25C8.43 10.93 8.68 10.68 9 10.68C9.31 10.68 9.56 10.93 9.56 11.25L9.54 11.26L8.45 11.26ZM9.54 13.48L9.56 13.5C9.56 13.81 9.31 14.06 9 14.06C8.68 14.06 8.43 13.81 8.43 13.5L8.45 13.48L9.54 13.48Z" fill="#000000" fill-opacity="0" fill-rule="nonzero"/>
		<path id="path" d="M9 11.25L9 13.5" stroke="#3662FF" stroke-opacity="1.000000" stroke-width="1.125000" stroke-linejoin="round" stroke-linecap="round"/>
	</g>
</svg>
