<svg viewBox="0 0 18 18" xmlns="http://www.w3.org/2000/svg" xmlns:xlink="http://www.w3.org/1999/xlink" width="18.000000" height="18.000000" fill="none">
	<rect id="深度思考" width="18.000000" height="18.000000" x="0.000000" y="0.000000" />
	<path id="Icon" d="M2.54018 15.4599C1.05365 13.9733 2.74074 9.87613 6.30842 6.30849C9.87609 2.74085 13.9733 1.05376 15.4599 2.54028C16.9464 4.0268 15.2593 8.124 11.6916 11.6916C8.12395 15.2593 4.02671 16.9464 2.54018 15.4599ZM15.4598 15.4597C13.9733 16.9462 9.87606 15.2592 6.30838 11.6915C2.74071 8.12387 1.05362 4.02666 2.54015 2.54014C4.02668 1.05362 8.12391 2.74071 11.6916 6.30835C15.2593 9.87599 16.9464 13.9732 15.4598 15.4597ZM9.00002 9.00007L9.00763 9.00007M9.00002 9.38072C8.78979 9.38072 8.61937 9.21029 8.61937 9.00007C8.61937 8.78984 8.78979 8.61942 9.00002 8.61942C9.21024 8.61942 9.38066 8.78984 9.38066 9.00007C9.38066 9.21029 9.21024 9.38072 9.00002 9.38072Z" fill-rule="evenodd" stroke="currentColor" stroke-linecap="round" stroke-linejoin="round" stroke-width="1" />
</svg>
