<svg width="24.000000" height="24.000000" viewBox="0 0 24 24" fill="none" xmlns="http://www.w3.org/2000/svg" xmlns:xlink="http://www.w3.org/1999/xlink">
  <desc>
    Created with Pixso.
  </desc>
  <defs>
    <clipPath id="clip545_10216">
      <rect id="沟通" width="24.000000" height="24.000000" fill="white" fill-opacity="0"/>
    </clipPath>
  </defs>
  <g clip-path="url(#clip545_10216)">
    <path id="path" d="M16.5 19L11 19L11 15L18 15L18 11L22 11L22 19L19.5 19L18 20.5L16.5 19Z" fill="#000000" fill-opacity="0" fill-rule="nonzero"/>
    <path id="path" d="M11 19L11 15L18 15L18 11L22 11L22 19L19.5 19L18 20.5L16.5 19L11 19Z" stroke="#3662FF" stroke-opacity="1.000000" stroke-width="1.250000" stroke-linejoin="round"/>
    <path id="path" d="M2 3L18 3L18 15L8.5 15L6.5 17L4.5 15L2 15L2 3Z" fill="#000000" fill-opacity="0" fill-rule="nonzero"/>
    <path id="path" d="M18 3L18 15L8.5 15L6.5 17L4.5 15L2 15L2 3L18 3Z" stroke="#3662FF" stroke-opacity="1.000000" stroke-width="1.250000" stroke-linejoin="round"/>
    <path id="path" d="M9.52 9.6L9.5 9.62C9.14 9.62 8.87 9.35 8.87 9C8.87 8.64 9.14 8.37 9.5 8.37L9.52 8.39L9.52 9.6ZM9.97 8.39L10 8.37C10.35 8.37 10.62 8.64 10.62 9C10.62 9.35 10.35 9.62 10 9.62L9.97 9.6L9.97 8.39Z" fill="#000000" fill-opacity="0" fill-rule="nonzero"/>
    <path id="path" d="M9.5 9L10 9" stroke="#3662FF" stroke-opacity="1.000000" stroke-width="1.250000" stroke-linecap="round"/>
    <path id="path" d="M13.02 9.6L13 9.62C12.64 9.62 12.37 9.35 12.37 9C12.37 8.64 12.64 8.37 13 8.37L13.02 8.39L13.02 9.6ZM13.48 8.39L13.5 8.37C13.85 8.37 14.12 8.64 14.12 9C14.12 9.35 13.85 9.62 13.5 9.62L13.48 9.6L13.48 8.39Z" fill="#000000" fill-opacity="0" fill-rule="nonzero"/>
    <path id="path" d="M13 9L13.5 9" stroke="#3662FF" stroke-opacity="1.000000" stroke-width="1.250000" stroke-linecap="round"/>
    <path id="path" d="M6.02 9.6L6 9.62C5.64 9.62 5.37 9.35 5.37 9C5.37 8.64 5.64 8.37 6 8.37L6.02 8.39L6.02 9.6ZM6.47 8.39L6.5 8.37C6.85 8.37 7.12 8.64 7.12 9C7.12 9.35 6.85 9.62 6.5 9.62L6.47 9.6L6.47 8.39Z" fill="#000000" fill-opacity="0" fill-rule="nonzero"/>
    <path id="path" d="M6 9L6.5 9" stroke="#3662FF" stroke-opacity="1.000000" stroke-width="1.250000" stroke-linecap="round"/>
  </g>
</svg>
