<svg width="18.000000" height="18.000000" viewBox="0 0 18 18" fill="none" xmlns="http://www.w3.org/2000/svg" xmlns:xlink="http://www.w3.org/1999/xlink">
  <desc>
    Created with Pixso.
  </desc>
  <defs>
    <clipPath id="clip383_2825">
      <rect id="清除" width="18.000000" height="18.000000" fill="white" fill-opacity="0"/>
    </clipPath>
  </defs>
  <g clip-path="url(#clip383_2825)">
    <path id="path" d="M7.5 2.21L10.5 2.21L10.5 5.21L16.12 5.21L16.12 8.21L1.87 8.21L1.87 5.21L7.5 5.21L7.5 2.21Z" fill="#000000" fill-opacity="0" fill-rule="evenodd"/>
    <path id="path" d="M10.5 2.21L10.5 5.21L16.12 5.21L16.12 8.21L1.87 8.21L1.87 5.21L7.5 5.21L7.5 2.21L10.5 2.21Z" stroke="#5F646C" stroke-opacity="1.000000" stroke-width="1.125000" stroke-linejoin="round"/>
    <path id="path" d="M3 15L15 15L15 8.25L3 8.25L3 15Z" fill="#000000" fill-opacity="0" fill-rule="nonzero"/>
    <path id="path" d="M15 15L15 8.25L3 8.25L3 15L15 15Z" stroke="#5F646C" stroke-opacity="1.000000" stroke-width="1.125000" stroke-linejoin="round"/>
    <path id="path" d="M5.45 12.73L5.43 12.71C5.43 12.4 5.68 12.15 6 12.15C6.31 12.15 6.56 12.4 6.56 12.71L6.54 12.73L5.45 12.73ZM6.54 14.94L6.56 14.96C6.56 15.27 6.31 15.52 6 15.52C5.68 15.52 5.43 15.27 5.43 14.96L5.45 14.94L6.54 14.94Z" fill="#000000" fill-opacity="0" fill-rule="nonzero"/>
    <path id="path" d="M6 12.71L6 14.96" stroke="#5F646C" stroke-opacity="1.000000" stroke-width="1.125000" stroke-linejoin="round" stroke-linecap="round"/>
    <path id="path" d="M8.45 12.73L8.43 12.71C8.43 12.39 8.68 12.14 9 12.14C9.31 12.14 9.56 12.39 9.56 12.71L9.54 12.73L8.45 12.73ZM9.54 14.94L9.56 14.96C9.56 15.27 9.31 15.52 9 15.52C8.68 15.52 8.43 15.27 8.43 14.96L8.45 14.94L9.54 14.94Z" fill="#000000" fill-opacity="0" fill-rule="nonzero"/>
    <path id="path" d="M9 12.71L9 14.96" stroke="#5F646C" stroke-opacity="1.000000" stroke-width="1.125000" stroke-linejoin="round" stroke-linecap="round"/>
    <path id="path" d="M11.45 12.73L11.43 12.71C11.43 12.4 11.68 12.15 12 12.15C12.31 12.15 12.56 12.4 12.56 12.71L12.54 12.73L11.45 12.73ZM12.54 14.94L12.56 14.96C12.56 15.27 12.31 15.52 12 15.52C11.68 15.52 11.43 15.27 11.43 14.96L11.45 14.94L12.54 14.94Z" fill="#000000" fill-opacity="0" fill-rule="nonzero"/>
    <path id="path" d="M12 12.71L12 14.96" stroke="#5F646C" stroke-opacity="1.000000" stroke-width="1.125000" stroke-linejoin="round" stroke-linecap="round"/>
    <path id="path" d="M4.51 15.54L4.5 15.56C4.18 15.56 3.93 15.31 3.93 15C3.93 14.68 4.18 14.43 4.5 14.43L4.51 14.45L4.51 15.54ZM13.48 14.45L13.5 14.43C13.81 14.43 14.06 14.68 14.06 15C14.06 15.31 13.81 15.56 13.5 15.56L13.48 15.54L13.48 14.45Z" fill="#000000" fill-opacity="0" fill-rule="nonzero"/>
    <path id="path" d="M4.5 15L13.5 15" stroke="#5F646C" stroke-opacity="1.000000" stroke-width="1.125000" stroke-linejoin="round" stroke-linecap="round"/>
  </g>
</svg>
