<svg width="22.000000" height="22.000000" viewBox="0 0 22 22" fill="none" xmlns="http://www.w3.org/2000/svg" xmlns:xlink="http://www.w3.org/1999/xlink">
  <desc>
    Created with Pixso.
  </desc>
  <defs>
    <clipPath id="clip68_1707">
      <rect id="听诊器" width="18.000000" height="18.000000" transform="translate(2.000000 2.000000)" fill="white" fill-opacity="0"/>
    </clipPath>
    <clipPath id="clip68_1708">
      <rect id="画板 61" width="22.000000" height="22.000000" fill="white" fill-opacity="0"/>
    </clipPath>
  </defs>
  <rect id="画板 61" width="22.000000" height="22.000000" fill="#FFFFFF" fill-opacity="0"/>
  <g clip-path="url(#clip68_1708)">
    <g clip-path="url(#clip68_1707)">
      <path id="path" d="M5.76 4.62L3.5 4.62C3.5 4.62 3.5 8 3.5 9.87C3.5 11.75 5 14 8 14C11 14 12.5 11.75 12.5 9.87C12.5 8 12.5 4.62 12.5 4.62L10.23 4.62L5.76 4.62ZM5.76 3.5L5.76 5.75L5.76 3.5ZM9.68 3.52L9.66 3.5C9.66 3.18 9.91 2.93 10.23 2.93C10.54 2.93 10.79 3.18 10.79 3.5L10.77 3.52L9.68 3.52ZM10.77 5.72L10.79 5.75C10.79 6.06 10.54 6.31 10.23 6.31C9.91 6.31 9.66 6.06 9.66 5.75L9.68 5.72L10.77 5.72ZM5.22 3.52L5.2 3.5C5.2 3.18 5.45 2.93 5.76 2.93C6.08 2.93 6.33 3.18 6.33 3.5L6.31 3.52L5.22 3.52ZM6.31 5.72L6.33 5.75C6.33 6.06 6.08 6.31 5.76 6.31C5.45 6.31 5.2 6.06 5.2 5.75L5.22 5.72L6.31 5.72Z" fill="#000000" fill-opacity="0" fill-rule="nonzero"/>
      <path id="path" d="M10.23 3.5L10.23 5.75M3.5 4.62C3.5 4.62 3.5 8 3.5 9.87C3.5 11.75 5 14 8 14C11 14 12.5 11.75 12.5 9.87C12.5 8 12.5 4.62 12.5 4.62L10.23 4.62L5.76 4.62L3.5 4.62ZM5.76 3.5L5.76 5.75" stroke="currentColor" stroke-opacity="1.000000" stroke-width="1.125000" stroke-linejoin="round" stroke-linecap="round"/>
      <path id="path" d="M17 10.62C17.82 10.62 18.5 9.95 18.5 9.12C18.5 8.29 17.82 7.62 17 7.62C16.17 7.62 15.5 8.29 15.5 9.12C15.5 9.95 16.17 10.62 17 10.62Z" fill="#000000" fill-opacity="0" fill-rule="nonzero"/>
      <path id="path" d="M18.5 9.12C18.5 8.29 17.82 7.62 17 7.62C16.17 7.62 15.5 8.29 15.5 9.12C15.5 9.95 16.17 10.62 17 10.62C17.82 10.62 18.5 9.95 18.5 9.12Z" stroke="currentColor" stroke-opacity="1.000000" stroke-width="1.125000" stroke-linejoin="round"/>
      <path id="path" d="M7.45 14.02L7.43 14C7.43 13.68 7.68 13.43 8 13.43C8.31 13.43 8.56 13.68 8.56 14L8.54 14.02L7.45 14.02ZM16.45 10.64L16.43 10.62C16.43 10.31 16.68 10.06 17 10.06C17.31 10.06 17.56 10.31 17.56 10.62L17.54 10.64L16.45 10.64Z" fill="#000000" fill-opacity="0" fill-rule="nonzero"/>
      <path id="path" d="M8 14C8 16.48 10.01 18.5 12.5 18.5C14.98 18.5 17 16.48 17 14L17 10.62" stroke="currentColor" stroke-opacity="1.000000" stroke-width="1.125000" stroke-linejoin="round" stroke-linecap="round"/>
    </g>
  </g>
</svg>
