<svg width="24.000000" height="24.000000" viewBox="0 0 24 24" fill="none" xmlns="http://www.w3.org/2000/svg" xmlns:xlink="http://www.w3.org/1999/xlink">
	<desc>
			Created with Pixso.
	</desc>
	<defs>
		<clipPath id="clip657_14170">
			<rect id="关闭-小" width="24.000000" height="24.000000" fill="white" fill-opacity="0"/>
		</clipPath>
	</defs>
	<g clip-path="url(#clip657_14170)">
		<path id="path" d="M6.49 7.53L6.46 7.53C6.17 7.23 6.17 6.76 6.46 6.46C6.76 6.17 7.23 6.17 7.53 6.46L7.53 6.49L6.49 7.53ZM17.5 16.46L17.53 16.46C17.82 16.76 17.82 17.23 17.53 17.53C17.23 17.82 16.76 17.82 16.46 17.53L16.46 17.5L17.5 16.46Z" fill="#000000" fill-opacity="0" fill-rule="nonzero"/>
		<path id="path" d="M7 7L17 17" stroke="#808080" stroke-opacity="1.000000" stroke-width="1.500000" stroke-linejoin="round" stroke-linecap="round"/>
		<path id="path" d="M7.53 17.5L7.53 17.53C7.23 17.82 6.76 17.82 6.46 17.53C6.17 17.23 6.17 16.76 6.46 16.46L6.49 16.46L7.53 17.5ZM16.46 6.49L16.46 6.46C16.76 6.17 17.23 6.17 17.53 6.46C17.82 6.76 17.82 7.23 17.53 7.53L17.5 7.53L16.46 6.49Z" fill="#000000" fill-opacity="0" fill-rule="nonzero"/>
		<path id="path" d="M7 17L17 7" stroke="#808080" stroke-opacity="1.000000" stroke-width="1.500000" stroke-linejoin="round" stroke-linecap="round"/>
	</g>
</svg>
