<svg width="20.000000" height="20.000000" viewBox="0 0 20 20" fill="none" xmlns="http://www.w3.org/2000/svg" xmlns:xlink="http://www.w3.org/1999/xlink">
  <desc>
    Created with Pixso.
  </desc>
  <defs>
    <clipPath id="clip218_3115">
      <rect id="复制" width="20.000000" height="20.000000" fill="white" fill-opacity="0"/>
    </clipPath>
  </defs>
  <g clip-path="url(#clip218_3115)">
    <path id="path" d="M6.14 5.16L6.16 5.18C6.16 5.6 5.83 5.93 5.41 5.93C4.99 5.93 4.66 5.6 4.66 5.18L4.68 5.16L6.14 5.16ZM14.81 15.31L14.79 15.33C14.37 15.33 14.04 15 14.04 14.58C14.04 14.16 14.37 13.83 14.79 13.83L14.81 13.85L14.81 15.31Z" fill="#000000" fill-opacity="0" fill-rule="nonzero"/>
    <path id="path" d="M5.41 5.18L5.41 3.25C5.41 2.6 5.94 2.08 6.58 2.08L16.74 2.08C17.39 2.08 17.91 2.6 17.91 3.25L17.91 13.41C17.91 14.05 17.39 14.58 16.74 14.58L14.79 14.58" stroke="currentColor" stroke-opacity="1.000000" stroke-width="1.500000" stroke-linejoin="round" stroke-linecap="round"/>
    <path id="path" d="M13.41 5.41L3.25 5.41C2.6 5.41 2.08 5.94 2.08 6.58L2.08 16.74C2.08 17.39 2.6 17.91 3.25 17.91L13.41 17.91C14.05 17.91 14.58 17.39 14.58 16.74L14.58 6.58C14.58 5.94 14.05 5.41 13.41 5.41Z" fill="#000000" fill-opacity="0" fill-rule="nonzero"/>
    <path id="path" d="M3.25 5.41C2.6 5.41 2.08 5.94 2.08 6.58L2.08 16.74C2.08 17.39 2.6 17.91 3.25 17.91L13.41 17.91C14.05 17.91 14.58 17.39 14.58 16.74L14.58 6.58C14.58 5.94 14.05 5.41 13.41 5.41L3.25 5.41Z" stroke="currentColor" stroke-opacity="1.000000" stroke-width="1.500000" stroke-linejoin="round"/>
  </g>
</svg>
