<svg width="20.000000" height="20.000000" viewBox="0 0 20 20" fill="none" xmlns="http://www.w3.org/2000/svg" xmlns:xlink="http://www.w3.org/1999/xlink">
	<desc>
			Created with Pixso.
	</desc>
	<defs>
		<clipPath id="clip657_13773">
			<rect id="文件夹-添加" width="20.000000" height="20.000000" fill="white" fill-opacity="0"/>
		</clipPath>
	</defs>
	<g clip-path="url(#clip657_13773)">
		<path id="path" d="M2.08 3.33C2.08 2.87 2.45 2.5 2.91 2.5L7.91 2.5L10 5L17.08 5C17.54 5 17.91 5.37 17.91 5.83L17.91 16.66C17.91 17.12 17.54 17.5 17.08 17.5L2.91 17.5C2.45 17.5 2.08 17.12 2.08 16.66L2.08 3.33Z" fill="#000000" fill-opacity="0" fill-rule="nonzero"/>
		<path id="path" d="M2.91 2.5L7.91 2.5L10 5L17.08 5C17.54 5 17.91 5.37 17.91 5.83L17.91 16.66C17.91 17.12 17.54 17.5 17.08 17.5L2.91 17.5C2.45 17.5 2.08 17.12 2.08 16.66L2.08 3.33C2.08 2.87 2.45 2.5 2.91 2.5Z" stroke="#FFFFFF" stroke-opacity="1.000000" stroke-width="1.200000" stroke-linejoin="round"/>
		<path id="path" d="M7.51 11.98L7.5 12C7.08 12 6.75 11.66 6.75 11.25C6.75 10.83 7.08 10.5 7.5 10.5L7.51 10.51L7.51 11.98ZM12.48 10.51L12.5 10.5C12.91 10.5 13.25 10.83 13.25 11.25C13.25 11.66 12.91 12 12.5 12L12.48 11.98L12.48 10.51Z" fill="#000000" fill-opacity="0" fill-rule="nonzero"/>
		<path id="path" d="M7.5 11.25L12.5 11.25" stroke="#FFFFFF" stroke-opacity="1.000000" stroke-width="1.500000" stroke-linecap="round"/>
		<path id="path" d="M9.26 8.76L9.25 8.75C9.25 8.33 9.58 8 10 8C10.41 8 10.75 8.33 10.75 8.75L10.73 8.76L9.26 8.76ZM10.73 13.73L10.75 13.75C10.75 14.16 10.41 14.5 10 14.5C9.58 14.5 9.25 14.16 9.25 13.75L9.26 13.73L10.73 13.73Z" fill="#000000" fill-opacity="0" fill-rule="nonzero"/>
		<path id="path" d="M10 8.75L10 13.75" stroke="#FFFFFF" stroke-opacity="1.000000" stroke-width="1.500000" stroke-linecap="round"/>
	</g>
</svg>
