<svg width="22.000000" height="22.000000" viewBox="0 0 22 22" fill="none" xmlns="http://www.w3.org/2000/svg" xmlns:xlink="http://www.w3.org/1999/xlink">
  <desc>
    Created with Pixso.
  </desc>
  <defs>
    <clipPath id="clip68_1719">
      <rect id="心脏" width="18.000000" height="18.000000" transform="translate(2.000000 2.000000)" fill="white" fill-opacity="0"/>
    </clipPath>
    <clipPath id="clip68_1720">
      <rect id="画板 62" width="22.000000" height="22.000000" fill="white" fill-opacity="0"/>
    </clipPath>
  </defs>
  <rect id="画板 62" width="22.000000" height="22.000000" fill="#FFFFFF" fill-opacity="0"/>
  <g clip-path="url(#clip68_1720)">
    <g clip-path="url(#clip68_1719)">
      <path id="path" d="M7.86 9.14L7.88 9.15C8.08 9.39 8.05 9.74 7.8 9.94C7.56 10.14 7.21 10.1 7.01 9.86L7.01 9.83L7.86 9.14ZM14.32 9.27L14.29 9.26C14.15 8.98 14.25 8.65 14.53 8.5C14.81 8.36 15.15 8.46 15.29 8.74L15.28 8.77L14.32 9.27Z" fill="#000000" fill-opacity="0" fill-rule="nonzero"/>
      <path id="path" d="M7.45 9.5C6.81 8.72 6.22 8.56 5.66 9C4.83 9.67 4.59 11.99 5.26 14.04C5.93 16.08 7.24 18.87 9.87 18.87C12.5 18.87 13.13 16.07 14.2 14.37C15.27 12.67 15.84 11.04 14.79 9" stroke="currentColor" stroke-opacity="1.000000" stroke-width="1.125000" stroke-linejoin="round" stroke-linecap="round"/>
      <path id="path" d="M6.56 8.44L6.59 8.45C6.76 8.71 6.69 9.06 6.43 9.23C6.17 9.4 5.82 9.33 5.65 9.07L5.66 9.04L6.56 8.44ZM8.28 7.09L8.3 7.09C8.5 7.34 8.46 7.69 8.21 7.88C7.96 8.08 7.62 8.04 7.42 7.79L7.42 7.76L8.28 7.09Z" fill="#000000" fill-opacity="0" fill-rule="nonzero"/>
      <path id="path" d="M6.12 8.76C5.48 7.79 4.98 7.03 4.62 6.5C4.08 5.69 5.46 4.65 6.12 5.36C6.56 5.83 7.14 6.52 7.86 7.44" stroke="currentColor" stroke-opacity="1.000000" stroke-width="1.125000" stroke-linecap="round"/>
      <path id="path" d="M8.17 11.55L8.19 11.56C8.21 11.88 7.99 12.15 7.67 12.17C7.36 12.2 7.09 11.97 7.07 11.65L7.09 11.63L8.17 11.55ZM13.79 6.31L13.82 6.31C14.04 6.53 14.03 6.88 13.81 7.1C13.58 7.32 13.23 7.32 13.01 7.09L13.01 7.06L13.79 6.31Z" fill="#000000" fill-opacity="0" fill-rule="nonzero"/>
      <path id="path" d="M7.63 11.61C7.45 9.34 7.6 7.86 8.07 7.17C8.79 6.14 10.12 5.75 11.37 5.75C12.12 5.75 12.8 6.06 13.41 6.7" stroke="currentColor" stroke-opacity="1.000000" stroke-width="1.125000" stroke-linejoin="round" stroke-linecap="round"/>
      <path id="path" d="M17.37 6.72C17.59 7.49 17.23 8.19 16.13 8.34C15.02 8.5 14.19 9.06 13.6 9.52C13 9.99 11.93 11.41 11.72 12.12C11.51 12.83 10.31 12.18 9.98 11.89C9.66 11.61 9.34 10.99 9.98 10.34C10.62 9.69 10.48 9.56 10.48 8.9C10.48 8.24 14 6.06 15.97 5.86C16.41 5.83 17.15 5.96 17.37 6.72Z" fill="#000000" fill-opacity="0" fill-rule="evenodd"/>
      <path id="path" d="M16.13 8.34C15.02 8.5 14.19 9.06 13.6 9.52C13 9.99 11.93 11.41 11.72 12.12C11.51 12.83 10.31 12.18 9.98 11.89C9.66 11.61 9.34 10.99 9.98 10.34C10.62 9.69 10.48 9.56 10.48 8.9C10.48 8.24 14 6.06 15.97 5.86C16.41 5.83 17.15 5.96 17.37 6.72C17.59 7.49 17.23 8.19 16.13 8.34Z" stroke="currentColor" stroke-opacity="1.000000" stroke-width="1.125000"/>
      <path id="path" d="M10.08 3.52L10.06 3.5C10.06 3.18 10.31 2.93 10.62 2.93C10.94 2.93 11.19 3.18 11.19 3.5L11.17 3.52L10.08 3.52ZM11.17 5.45L11.19 5.47C11.19 5.78 10.94 6.03 10.62 6.03C10.31 6.03 10.06 5.78 10.06 5.47L10.08 5.45L11.17 5.45Z" fill="#000000" fill-opacity="0" fill-rule="nonzero"/>
      <path id="path" d="M10.62 3.5L10.62 5.47" stroke="currentColor" stroke-opacity="1.000000" stroke-width="1.125000" stroke-linecap="round"/>
      <path id="path" d="M10.02 5.66L10.05 5.66C10.25 5.91 10.21 6.26 9.96 6.45C9.71 6.65 9.37 6.61 9.17 6.36L9.17 6.34L10.02 5.66ZM6.77 4.16L6.74 4.18C6.44 4.11 6.25 3.81 6.33 3.5C6.4 3.2 6.7 3.01 7 3.09L7.02 3.11L6.77 4.16Z" fill="#000000" fill-opacity="0" fill-rule="nonzero"/>
      <path id="path" d="M9.61 6.01C8.48 4.59 7.57 3.8 6.87 3.63" stroke="currentColor" stroke-opacity="1.000000" stroke-width="1.125000" stroke-linecap="round"/>
      <path id="path" d="M8.9 4.74L8.92 4.76C8.84 5.07 8.54 5.25 8.24 5.18C7.93 5.1 7.75 4.8 7.83 4.5L7.85 4.48L8.9 4.74ZM8.21 3L8.2 2.97C8.27 2.67 8.57 2.48 8.88 2.56C9.18 2.63 9.36 2.93 9.29 3.24L9.27 3.25L8.21 3Z" fill="#000000" fill-opacity="0" fill-rule="nonzero"/>
      <path id="path" d="M8.37 4.63L8.74 3.11" stroke="currentColor" stroke-opacity="1.000000" stroke-width="1.125000" stroke-linecap="round"/>
      <path id="path" d="M14.82 5.88L14.81 5.86C14.9 5.55 15.21 5.39 15.51 5.47C15.81 5.56 15.98 5.87 15.89 6.17L15.87 6.19L14.82 5.88ZM16.5 7.95L16.53 7.95C16.75 8.18 16.74 8.53 16.52 8.75C16.29 8.97 15.94 8.96 15.72 8.73L15.72 8.7L16.5 7.95Z" fill="#000000" fill-opacity="0" fill-rule="nonzero"/>
      <path id="path" d="M15.35 6.01C15.23 6.43 15.23 6.82 15.35 7.18C15.47 7.54 15.73 7.93 16.13 8.34" stroke="currentColor" stroke-opacity="1.000000" stroke-width="1.125000" stroke-linecap="round"/>
    </g>
  </g>
</svg>
