<svg width="17.562744" height="17.562988" viewBox="0 0 17.5627 17.563" fill="none" xmlns="http://www.w3.org/2000/svg" xmlns:xlink="http://www.w3.org/1999/xlink">
	<desc>
			Created with Pixso.
	</desc>
	<defs/>
	<path id="path" d="M8.78 17.56C3.93 17.56 0 13.63 0 8.78C0 3.93 3.93 0 8.78 0C13.63 0 17.56 3.93 17.56 8.78C17.56 13.63 13.63 17.56 8.78 17.56ZM12.8 6.22C12.97 6.05 12.97 5.78 12.8 5.62L11.91 4.72C11.74 4.56 11.47 4.56 11.31 4.72L8.77 7.26L6.23 4.72C6.06 4.56 5.8 4.56 5.63 4.72L4.73 5.62C4.57 5.78 4.57 6.05 4.73 6.22L7.27 8.76L4.73 11.3C4.57 11.46 4.57 11.73 4.73 11.89L5.63 12.79C5.8 12.96 6.06 12.96 6.23 12.79L8.77 10.25L11.31 12.79C11.47 12.96 11.74 12.96 11.91 12.79L12.8 11.89C12.97 11.73 12.97 11.46 12.8 11.3L10.26 8.76L12.8 6.22Z" fill="#C9CDD4" fill-opacity="1.000000" fill-rule="nonzero"/>
</svg>
