<svg width="20.000000" height="20.000000" viewBox="0 0 20 20" fill="none" xmlns="http://www.w3.org/2000/svg" xmlns:xlink="http://www.w3.org/1999/xlink">
  <desc>
    Created with Pixso.
  </desc>
  <defs>
    <clipPath id="clip218_3128">
      <rect id="删除" width="20.000000" height="20.000000" fill="white" fill-opacity="0"/>
    </clipPath>
  </defs>
  <g clip-path="url(#clip218_3128)">
    <path id="path" d="M3.75 4.16L3.75 18.33L16.25 18.33L16.25 4.16L3.75 4.16Z" fill="#000000" fill-opacity="0" fill-rule="nonzero"/>
    <path id="path" d="M3.75 18.33L16.25 18.33L16.25 4.16L3.75 4.16L3.75 18.33Z" stroke="currentColor" stroke-opacity="1.000000" stroke-width="1.500000" stroke-linejoin="round"/>
    <path id="path" d="M7.6 8.35L7.58 8.33C7.58 7.91 7.91 7.58 8.33 7.58C8.75 7.58 9.08 7.91 9.08 8.33L9.06 8.35L7.6 8.35ZM9.06 13.73L9.08 13.75C9.08 14.16 8.75 14.5 8.33 14.5C7.91 14.5 7.58 14.16 7.58 13.75L7.6 13.73L9.06 13.73Z" fill="#000000" fill-opacity="0" fill-rule="nonzero"/>
    <path id="path" d="M8.33 8.33L8.33 13.75" stroke="currentColor" stroke-opacity="1.000000" stroke-width="1.500000" stroke-linejoin="round" stroke-linecap="round"/>
    <path id="path" d="M10.93 8.35L10.91 8.33C10.91 7.91 11.24 7.58 11.66 7.58C12.08 7.58 12.41 7.91 12.41 8.33L12.39 8.35L10.93 8.35ZM12.39 13.73L12.41 13.75C12.41 14.16 12.08 14.5 11.66 14.5C11.24 14.5 10.91 14.16 10.91 13.75L10.93 13.73L12.39 13.73Z" fill="#000000" fill-opacity="0" fill-rule="nonzero"/>
    <path id="path" d="M11.66 8.33L11.66 13.75" stroke="currentColor" stroke-opacity="1.000000" stroke-width="1.500000" stroke-linejoin="round" stroke-linecap="round"/>
    <path id="path" d="M1.68 4.89L1.66 4.91C1.24 4.91 0.91 4.58 0.91 4.16C0.91 3.74 1.24 3.41 1.66 3.41L1.68 3.43L1.68 4.89ZM18.31 3.43L18.33 3.41C18.75 3.41 19.08 3.74 19.08 4.16C19.08 4.58 18.75 4.91 18.33 4.91L18.31 4.89L18.31 3.43Z" fill="#000000" fill-opacity="0" fill-rule="nonzero"/>
    <path id="path" d="M1.66 4.16L18.33 4.16" stroke="currentColor" stroke-opacity="1.000000" stroke-width="1.500000" stroke-linejoin="round" stroke-linecap="round"/>
    <path id="path" d="M6.66 4.16L8.03 1.66L11.99 1.66L13.33 4.16L6.66 4.16Z" fill="#000000" fill-opacity="0" fill-rule="nonzero"/>
    <path id="path" d="M8.03 1.66L11.99 1.66L13.33 4.16L6.66 4.16L8.03 1.66Z" stroke="currentColor" stroke-opacity="1.000000" stroke-width="1.500000" stroke-linejoin="round"/>
  </g>
</svg>
