<svg width="18.000000" height="18.000000" viewBox="0 0 18 18" fill="none" xmlns="http://www.w3.org/2000/svg" xmlns:xlink="http://www.w3.org/1999/xlink">
	<desc>
			Created with Pixso.
	</desc>
	<defs>
		<clipPath id="clip676_14601">
			<rect id="移动" width="18.000000" height="18.000000" fill="white" fill-opacity="0"/>
		</clipPath>
	</defs>
	<g clip-path="url(#clip676_14601)">
		<path id="path" d="M10.5 10.5L15.75 11.54L14.17 12.59L15.75 14.17L14.17 15.75L12.6 14.17L11.54 15.75L10.5 10.5Z" fill="#000000" fill-opacity="0" fill-rule="evenodd"/>
		<path id="path" d="M15.75 11.54L14.17 12.59L15.75 14.17L14.17 15.75L12.6 14.17L11.54 15.75L10.5 10.5L15.75 11.54Z" stroke="#1D2129" stroke-opacity="1.000000" stroke-width="1.125000" stroke-linejoin="round"/>
		<path id="path" d="M16.29 8.23L16.31 8.25C16.31 8.56 16.06 8.81 15.75 8.81C15.43 8.81 15.18 8.56 15.18 8.25L15.2 8.23L16.29 8.23ZM7.85 15.2L7.87 15.18C8.18 15.18 8.43 15.43 8.43 15.75C8.43 16.06 8.18 16.31 7.87 16.31L7.85 16.29L7.85 15.2Z" fill="#000000" fill-opacity="0" fill-rule="nonzero"/>
		<path id="path" d="M15.75 8.25L15.75 3C15.75 2.58 15.41 2.25 15 2.25L3 2.25C2.58 2.25 2.25 2.58 2.25 3L2.25 15C2.25 15.41 2.58 15.75 3 15.75L7.87 15.75" stroke="#1D2129" stroke-opacity="1.000000" stroke-width="1.125000" stroke-linejoin="round" stroke-linecap="round"/>
	</g>
</svg>
