<svg width="18.000000" height="18.000000" viewBox="0 0 18 18" fill="none" xmlns="http://www.w3.org/2000/svg" xmlns:xlink="http://www.w3.org/1999/xlink">
	<desc>
			Created with Pixso.
	</desc>
	<defs>
		<clipPath id="clip676_14609">
			<rect id="删除" width="18.000000" height="18.000000" fill="white" fill-opacity="0"/>
		</clipPath>
	</defs>
	<g clip-path="url(#clip676_14609)">
		<path id="path" d="M3.37 3.75L3.37 15C3.37 15.82 4.04 16.5 4.87 16.5L13.12 16.5C13.95 16.5 14.62 15.82 14.62 15L14.62 3.75L3.37 3.75Z" fill="#000000" fill-opacity="0" fill-rule="nonzero"/>
		<path id="path" d="M3.37 15C3.37 15.82 4.04 16.5 4.87 16.5L13.12 16.5C13.95 16.5 14.62 15.82 14.62 15L14.62 3.75L3.37 3.75L3.37 15Z" stroke="#FF5656" stroke-opacity="1.000000" stroke-width="1.125000" stroke-linejoin="round"/>
		<path id="path" d="M6.95 7.51L6.93 7.5C6.93 7.18 7.18 6.93 7.5 6.93C7.81 6.93 8.06 7.18 8.06 7.5L8.04 7.51L6.95 7.51ZM8.04 12.35L8.06 12.37C8.06 12.69 7.81 12.93 7.5 12.93C7.18 12.93 6.93 12.69 6.93 12.37L6.95 12.35L8.04 12.35Z" fill="#000000" fill-opacity="0" fill-rule="nonzero"/>
		<path id="path" d="M7.5 7.5L7.5 12.37" stroke="#FF5656" stroke-opacity="1.000000" stroke-width="1.125000" stroke-linejoin="round" stroke-linecap="round"/>
		<path id="path" d="M9.95 7.51L9.93 7.5C9.93 7.18 10.18 6.93 10.5 6.93C10.81 6.93 11.06 7.18 11.06 7.5L11.04 7.51L9.95 7.51ZM11.04 12.35L11.06 12.37C11.06 12.69 10.81 12.93 10.5 12.93C10.18 12.93 9.93 12.69 9.93 12.37L9.95 12.35L11.04 12.35Z" fill="#000000" fill-opacity="0" fill-rule="nonzero"/>
		<path id="path" d="M10.5 7.5L10.5 12.37" stroke="#FF5656" stroke-opacity="1.000000" stroke-width="1.125000" stroke-linejoin="round" stroke-linecap="round"/>
		<path id="path" d="M1.52 4.29L1.5 4.31C1.18 4.31 0.93 4.06 0.93 3.75C0.93 3.43 1.18 3.18 1.5 3.18L1.52 3.2L1.52 4.29ZM16.48 3.2L16.5 3.18C16.81 3.18 17.06 3.43 17.06 3.75C17.06 4.06 16.81 4.31 16.5 4.31L16.48 4.29L16.48 3.2Z" fill="#000000" fill-opacity="0" fill-rule="nonzero"/>
		<path id="path" d="M1.5 3.75L16.5 3.75" stroke="#FF5656" stroke-opacity="1.000000" stroke-width="1.125000" stroke-linejoin="round" stroke-linecap="round"/>
		<path id="path" d="M6 3.75L7 1.91C7.14 1.65 7.41 1.5 7.7 1.5L10.31 1.5C10.6 1.5 10.87 1.66 11.01 1.92L12 3.75L6 3.75Z" fill="#000000" fill-opacity="0" fill-rule="nonzero"/>
		<path id="path" d="M7 1.91C7.14 1.65 7.41 1.5 7.7 1.5L10.31 1.5C10.6 1.5 10.87 1.66 11.01 1.92L12 3.75L6 3.75L7 1.91Z" stroke="#FF5656" stroke-opacity="1.000000" stroke-width="1.125000" stroke-linejoin="round"/>
	</g>
</svg>
