<svg viewBox="0 0 32 32" xmlns="http://www.w3.org/2000/svg" xmlns:xlink="http://www.w3.org/1999/xlink" width="32" height="32" fill="none" customFrame="#000000">
	<rect id="属性 1=docx" width="32" height="32" x="0" y="0" />
	<path id="减去顶层" d="M7 30L25 30C26.6569 30 28 28.6569 28 27L28 10.1098C28 9.39364 27.7438 8.70113 27.2778 8.1574L22.898 3.04763C22.328 2.38269 21.496 2 20.6202 2L7 2C5.34315 2 4 3.34315 4 5L4 27C4 28.6569 5.34315 30 7 30ZM14.047 15.5613C13.6716 16.15 13.4839 16.8584 13.4839 17.6865C13.4839 18.4238 13.6469 19.0627 13.9731 19.6032C14.0927 19.8015 14.2344 19.9866 14.3979 20.1584C14.607 20.3781 14.8377 20.56 15.0899 20.7043C15.5727 20.9805 16.1345 21.1187 16.7754 21.1187C17.4303 21.1187 18.0031 20.9767 18.4937 20.6928C18.7515 20.5436 18.9866 20.3552 19.199 20.1277C19.3315 19.9857 19.4498 19.8344 19.5539 19.674C19.934 19.0878 20.124 18.3785 20.124 17.5459C20.124 16.7645 19.9488 16.0922 19.5983 15.5289L19.5983 15.5288C19.4928 15.3593 19.3714 15.1996 19.2341 15.0498C19.0296 14.8266 18.8026 14.6419 18.553 14.4956C18.0785 14.2176 17.5226 14.0786 16.8853 14.0786C16.1977 14.0786 15.6006 14.23 15.0939 14.5327C14.847 14.6801 14.6217 14.8635 14.4177 15.0828C14.2786 15.2324 14.155 15.3919 14.047 15.5613ZM26.1313 20.7539C25.6362 20.9971 24.9902 21.1187 24.1934 21.1187C23.3927 21.1187 22.7211 20.9315 22.1785 20.5573C22.0263 20.4523 21.8841 20.3325 21.7522 20.198C21.6253 20.0686 21.5117 19.9301 21.4116 19.7826C21.0366 19.2302 20.8491 18.5506 20.8491 17.7437C20.8491 16.9964 21.0115 16.3435 21.3363 15.7852C21.4788 15.5402 21.6526 15.3134 21.8577 15.1047C22.0796 14.8789 22.3229 14.6904 22.5875 14.5391L22.5875 14.539C23.1244 14.2321 23.7491 14.0786 24.4614 14.0786C25.1265 14.0786 25.6831 14.165 26.1313 14.3379L26.1313 15.7397C26.0473 15.6905 25.9611 15.6457 25.8729 15.6054C25.4786 15.4254 25.0433 15.3354 24.5669 15.3354C24.0981 15.3355 23.6956 15.441 23.3593 15.652C23.2185 15.7404 23.0893 15.8473 22.9717 15.9727C22.8874 16.0626 22.812 16.1583 22.7455 16.2599C22.4978 16.6383 22.374 17.0977 22.374 17.6382C22.374 18.19 22.503 18.6529 22.7609 19.0268C22.8152 19.1054 22.8752 19.1802 22.9409 19.251C23.0447 19.3628 23.1586 19.4593 23.2825 19.5405C23.6098 19.7547 24.0071 19.8618 24.4746 19.8618C24.8832 19.8618 25.2671 19.7953 25.6265 19.6624C25.8005 19.598 25.9688 19.518 26.1313 19.4224L26.1313 20.7539ZM6.78662 21L6.78662 14.1929L9.1377 14.1929C10.4531 14.1929 11.4105 14.5204 12.01 15.1755C12.5121 15.7242 12.7632 16.5026 12.7632 17.5107C12.7632 18.2388 12.601 18.8675 12.2767 19.397C12.1326 19.6323 11.9563 19.8481 11.748 20.0442C11.5785 20.2038 11.3966 20.3435 11.2024 20.4632C10.6215 20.8211 9.93031 21 9.12891 21L6.78662 21ZM15.4856 19.2283C15.1677 18.8083 15.0088 18.268 15.0088 17.6074C15.0088 16.9431 15.1689 16.4008 15.4892 15.9807C15.4924 15.9765 15.4956 15.9724 15.4988 15.9683C15.6356 15.7915 15.7937 15.6518 15.9729 15.5491C16.2216 15.4067 16.511 15.3354 16.8413 15.3354C17.18 15.3354 17.4726 15.4109 17.719 15.5617C17.8796 15.66 18.0207 15.7904 18.1421 15.9529C18.4497 16.3645 18.6035 16.9248 18.6035 17.6338C18.6035 18.3135 18.4453 18.8547 18.1289 19.2576C18.0132 19.4049 17.8807 19.5253 17.7313 19.6187C17.4721 19.7808 17.1623 19.8618 16.8018 19.8618C16.4863 19.8618 16.2089 19.7943 15.9696 19.6592C15.7867 19.556 15.6261 19.4133 15.4878 19.2312L15.4856 19.2283ZM8.23682 15.3794L8.23682 19.8135L9.02783 19.8135C9.57617 19.8135 10.0307 19.6834 10.3913 19.4232C10.4835 19.3567 10.5695 19.2817 10.6494 19.1982C10.7073 19.1377 10.761 19.074 10.8104 19.0072C11.0956 18.6211 11.2383 18.1296 11.2383 17.5327C11.2383 17.0021 11.1122 16.5628 10.86 16.215C10.7906 16.1192 10.7116 16.0304 10.623 15.9485C10.5368 15.8687 10.4451 15.7973 10.348 15.7343C9.9832 15.4977 9.54169 15.3794 9.02344 15.3794L8.23682 15.3794Z" fill="rgb(54,98,255)" fill-rule="evenodd" />
</svg>
