<svg width="32.000000" height="32.000000" viewBox="0 0 32 32" fill="none" xmlns="http://www.w3.org/2000/svg" xmlns:xlink="http://www.w3.org/1999/xlink">
  <desc>
    Created with Pixso.
  </desc>
  <defs>
    <clipPath id="clip218_3123">
      <rect id="下载" width="20.000000" height="20.000000" transform="translate(6.000000 6.000000)" fill="white" fill-opacity="0"/>
    </clipPath>
    <clipPath id="clip218_3122">
      <rect id="画板 75" rx="8.000000" width="32.000000" height="32.000000" fill="white" fill-opacity="0"/>
    </clipPath>
  </defs>
  <rect id="画板 75" rx="8.000000" width="32.000000" height="32.000000" fill="#FFFFFF" fill-opacity="0"/>
  <g clip-path="url(#clip218_3122)">
    <g clip-path="url(#clip218_3123)">
      <path id="path" d="M7.77 16.02L7.75 16C7.75 15.58 8.08 15.25 8.5 15.25C8.91 15.25 9.25 15.58 9.25 16L9.22 16.02L7.77 16.02ZM22.77 16.02L22.75 16C22.75 15.58 23.08 15.25 23.5 15.25C23.91 15.25 24.25 15.58 24.25 16L24.23 16.02L22.77 16.02Z" fill="#000000" fill-opacity="0" fill-rule="nonzero"/>
      <path id="path" d="M8.5 16L8.5 23.5L23.5 23.5L23.5 16" stroke="currentColor" stroke-opacity="1.000000" stroke-width="1.500000" stroke-linejoin="round" stroke-linecap="round"/>
      <path id="path" d="M19.21 15.08L19.21 15.05C19.51 14.75 19.98 14.75 20.28 15.05C20.57 15.35 20.57 15.81 20.28 16.11L20.25 16.11L19.21 15.08ZM11.74 16.11L11.71 16.11C11.42 15.81 11.42 15.35 11.71 15.05C12.01 14.75 12.48 14.75 12.78 15.05L12.78 15.08L11.74 16.11Z" fill="#000000" fill-opacity="0" fill-rule="nonzero"/>
      <path id="path" d="M19.75 15.58L16 19.33L12.25 15.58" stroke="currentColor" stroke-opacity="1.000000" stroke-width="1.500000" stroke-linejoin="round" stroke-linecap="round"/>
      <path id="path" d="M15.26 8.52L15.24 8.5C15.24 8.08 15.57 7.75 15.99 7.75C16.41 7.75 16.74 8.08 16.74 8.5L16.72 8.52L15.26 8.52ZM16.72 19.31L16.74 19.33C16.74 19.75 16.41 20.08 15.99 20.08C15.57 20.08 15.24 19.75 15.24 19.33L15.26 19.31L16.72 19.31Z" fill="#000000" fill-opacity="0" fill-rule="nonzero"/>
      <path id="path" d="M15.99 8.5L15.99 19.33" stroke="currentColor" stroke-opacity="1.000000" stroke-width="1.500000" stroke-linejoin="round" stroke-linecap="round"/>
    </g>
  </g>
</svg>
