<svg width="24.000000" height="24.000000" viewBox="0 0 24 24" fill="none" xmlns="http://www.w3.org/2000/svg" xmlns:xlink="http://www.w3.org/1999/xlink">
  <desc>
    Created with Pixso.
  </desc>
  <defs>
    <clipPath id="clip947_17850">
      <rect id="编辑" rx="4.000000" width="24.000000" height="24.000000" transform=" rotate(-0.000000)" fill="white" fill-opacity="0"/>
    </clipPath>
  </defs>
  <g clip-path="url(#clip947_17850)">
    <path id="path" d="M4.81 19.13L4.79 19.15C4.37 19.15 4.04 18.82 4.04 18.4C4.04 17.98 4.37 17.65 4.79 17.65L4.81 17.67L4.81 19.13ZM17.97 17.67L17.99 17.65C18.41 17.65 18.74 17.98 18.74 18.4C18.74 18.82 18.41 19.15 17.99 19.15L17.97 19.13L17.97 17.67Z" fill="#000000" fill-opacity="0" fill-rule="nonzero"/>
    <path id="path" d="M4.79 18.4L17.99 18.4" stroke="#5F646C" stroke-opacity="1.000000" stroke-width="1.500000" stroke-linejoin="round" stroke-linecap="round"/>
    <path id="path" d="M7.9 12.4L7.9 14.79L10.3 14.79L17.1 8L14.7 5.59L7.9 12.4Z" fill="#000000" fill-opacity="0" fill-rule="nonzero"/>
    <path id="path" d="M7.9 14.79L10.3 14.79L17.1 8L14.7 5.59L7.9 12.4L7.9 14.79Z" stroke="#5F646C" stroke-opacity="1.000000" stroke-width="1.500000" stroke-linejoin="round"/>
  </g>
</svg>
