<svg viewBox="0 0 20 20" xmlns="http://www.w3.org/2000/svg" xmlns:xlink="http://www.w3.org/1999/xlink" width="20.000000" height="20.000000" fill="none">
	<rect id="注意 1" width="20.000000" height="20.000000" x="0.000000" y="0.000000" />
	<path id="矢量 198" d="M9.99984 18.3327C12.301 18.3327 14.3843 17.3999 15.8924 15.8919C17.4004 14.3838 18.3332 12.3005 18.3332 9.99935C18.3332 7.69818 17.4004 5.61485 15.8924 4.10679C14.3843 2.59876 12.301 1.66602 9.99984 1.66602C7.69867 1.66602 5.61534 2.59876 4.10728 4.10679C2.59925 5.61485 1.6665 7.69818 1.6665 9.99935C1.6665 12.3005 2.59925 14.3838 4.10728 15.8919C5.61534 17.3999 7.69867 18.3327 9.99984 18.3327Z" fill="rgb(247,181,1)" fill-rule="nonzero" />
	<path id="矢量 198" d="M15.8924 15.8919C17.4004 14.3838 18.3332 12.3005 18.3332 9.99935C18.3332 7.69818 17.4004 5.61485 15.8924 4.10679C14.3843 2.59876 12.301 1.66602 9.99984 1.66602C7.69867 1.66602 5.61534 2.59876 4.10728 4.10679C2.59925 5.61485 1.6665 7.69818 1.6665 9.99935C1.6665 12.3005 2.59925 14.3838 4.10728 15.8919C5.61534 17.3999 7.69867 18.3327 9.99984 18.3327C12.301 18.3327 14.3843 17.3999 15.8924 15.8919Z" fill-rule="nonzero" stroke="rgb(247,181,1)" stroke-linejoin="round" stroke-width="1.500000" />
	<path id="矢量 199" d="M10.0002 15.4173C10.5755 15.4173 11.0418 14.9509 11.0418 14.3757C11.0418 13.8004 10.5755 13.334 10.0002 13.334C9.42487 13.334 8.9585 13.8004 8.9585 14.3757C8.9585 14.9509 9.42487 15.4173 10.0002 15.4173Z" fill="rgb(255,254.745,255)" fill-rule="evenodd" />
	<path id="矢量 200" d="M10 5L10 11.6667" stroke="rgb(255,254.745,255)" stroke-linecap="round" stroke-linejoin="round" stroke-width="1.500000" />
</svg>
