<svg width="16" height="16" viewBox="0 0 16 16" fill="none" xmlns="http://www.w3.org/2000/svg">
<path d="M3 2.8C3 2.35817 3.35817 2 3.8 2H12.2C12.6418 2 13 2.35817 13 2.8V12.8184C13 13.3843 12.4284 13.7714 11.9029 13.5612L8.29711 12.1188C8.10638 12.0426 7.89362 12.0426 7.70289 12.1188L4.09711 13.5612C3.57162 13.7714 3 13.3843 3 12.8184V2.8Z" stroke="currentColor" stroke-width="1.33"/>
<path d="M7.723 4.66598C7.82548 4.41959 8.17452 4.41959 8.277 4.66598L8.72314 5.73864C8.76634 5.84251 8.86403 5.91348 8.97616 5.92247L10.1342 6.01531C10.4002 6.03663 10.508 6.36859 10.3054 6.54219L9.42309 7.29797C9.33765 7.37115 9.30034 7.48598 9.32644 7.59541L9.596 8.72545C9.65791 8.98502 9.37554 9.19017 9.14781 9.05108L8.15638 8.44551C8.06037 8.38687 7.93963 8.38687 7.84362 8.44551L6.85219 9.05108C6.62446 9.19017 6.34209 8.98502 6.404 8.72545L6.67356 7.59541C6.69966 7.48598 6.66235 7.37115 6.57691 7.29797L5.69462 6.54219C5.49196 6.36859 5.59981 6.03663 5.86581 6.01531L7.02384 5.92247C7.13597 5.91348 7.23366 5.84251 7.27686 5.73864L7.723 4.66598Z" fill="currentColor"/>
</svg>
