<svg viewBox="0 0 32 32" xmlns="http://www.w3.org/2000/svg" xmlns:xlink="http://www.w3.org/1999/xlink" width="32.000000" height="32.000000" fill="none" customFrame="#000000">
	<rect id="文件" width="32.000000" height="32.000000" x="0.000000" y="0.000000" />
	<path id="减去顶层" d="M7 30L25 30C26.6569 30 28 28.6569 28 27L28 10.1098C28 9.39364 27.7438 8.70113 27.2778 8.1574L22.898 3.04763C22.328 2.38269 21.496 2 20.6202 2L7 2C5.34315 2 4 3.34315 4 5L4 27C4 28.6569 5.34315 30 7 30ZM17.999 10C17.999 9.44772 17.5513 9 16.999 9L7.99902 9C7.44674 9 6.99902 9.44772 6.99902 10C6.99902 10.5523 7.44674 11 7.99902 11L16.999 11C17.5513 11 17.999 10.5523 17.999 10ZM23.999 15C24.5513 15 24.999 15.4477 24.999 16C24.999 16.5523 24.5513 17 23.999 17L7.99902 17C7.44674 17 6.99902 16.5523 6.99902 16C6.99902 15.4477 7.44674 15 7.99902 15L23.999 15ZM24.999 22C24.999 21.4477 24.5513 21 23.999 21L7.99902 21C7.44674 21 6.99902 21.4477 6.99902 22C6.99902 22.5523 7.44674 23 7.99902 23L23.999 23C24.5513 23 24.999 22.5523 24.999 22Z" fill="rgb(54,98,255)" fill-rule="evenodd" />
</svg>
