<svg viewBox="0 0 32 32" xmlns="http://www.w3.org/2000/svg" xmlns:xlink="http://www.w3.org/1999/xlink" width="32.000000" height="32.000000" fill="none" customFrame="#000000">
	<rect id="画板 663" width="32.000000" height="32.000000" x="0.000000" y="0.000000" />
	<path id="减去顶层" d="M28 27C28 28.6569 26.6569 30 25 30L7 30C5.34314 30 4 28.6569 4 27L4 5C4 3.34314 5.34314 2 7 2L20.6202 2C21.496 2 22.328 2.38268 22.898 3.04762L27.2778 8.1574C27.7438 8.70112 28 9.39364 28 10.1098L28 27ZM12.8145 15.2201L10.6975 15.2201L10.6975 21L9.11218 21L9.11218 15.2201L7 15.2201L7 14L12.8145 14L12.8145 15.2201ZM17.8914 21L19.7688 21L17.4699 17.4706L19.7114 14L17.944 14L16.7227 16.1194C16.6269 16.3303 16.5455 16.5307 16.4784 16.7205L16.4593 16.7205C16.3954 16.5096 16.3188 16.3168 16.2294 16.142L15.123 14L13.1976 14L15.3721 17.4977L12.9917 21L14.8835 21L16.2198 18.6908C16.3092 18.4859 16.3667 18.3292 16.3922 18.2208L16.4114 18.2208C16.4625 18.4407 16.512 18.5929 16.5599 18.6772L17.8914 21ZM26 15.2201L23.883 15.2201L23.883 21L22.2977 21L22.2977 15.2201L20.1855 15.2201L20.1855 14L26 14L26 15.2201Z" fill="rgb(54,98,255)" fill-rule="evenodd" />
</svg>
