<svg viewBox="0 0 32 32" xmlns="http://www.w3.org/2000/svg" xmlns:xlink="http://www.w3.org/1999/xlink" width="32.000000" height="32.000000" fill="none" customFrame="#000000">
	<rect id="画板 662" width="32.000000" height="32.000000" x="0.000000" y="0.000000" />
	<path id="减去顶层" d="M28 27C28 28.6569 26.6569 30 25 30L7 30C5.34314 30 4 28.6569 4 27L4 5C4 3.34314 5.34314 2 7 2L20.6202 2C21.496 2 22.328 2.38268 22.898 3.04762L27.2778 8.1574C27.7438 8.70112 28 9.39364 28 10.1098L28 27ZM8.48536 19.3633L8.48536 22L6.87402 22L6.87402 14.4365L9.47656 14.4365C10.5713 14.4365 11.3476 14.7065 11.8053 15.2465C12.1343 15.6346 12.2988 16.1621 12.2988 16.8291C12.2988 17.2716 12.2062 17.6639 12.0209 18.006C11.8818 18.2629 11.6904 18.4916 11.4468 18.6919C11.3297 18.7882 11.2066 18.8741 11.0774 18.9497C10.5798 19.2409 9.99252 19.3788 9.31544 19.3633L8.48536 19.3633ZM13.4463 14.4365L13.4463 22L16.0488 22C16.9393 22 17.7072 21.8012 18.3527 21.4035C18.5685 21.2706 18.7706 21.1154 18.959 20.938C19.1904 20.7201 19.3862 20.4804 19.5464 20.2188C19.9068 19.6306 20.0869 18.932 20.0869 18.123C20.0869 17.0029 19.808 16.138 19.2501 15.5284C18.5839 14.8005 17.5201 14.4365 16.0586 14.4365L13.4463 14.4365ZM25.6729 15.7549L22.9727 15.7549L22.9727 17.6982L25.458 17.6982L25.458 19.0166L22.9727 19.0166L22.9727 22L21.3613 22L21.3613 14.4365L25.6729 14.4365L25.6729 15.7549ZM8.48536 15.6865L8.48536 18.1279L9.1836 18.1279C9.72307 18.1279 10.1089 17.9944 10.3412 17.7273C10.5167 17.5253 10.6045 17.2471 10.6045 16.8926C10.6045 16.5518 10.5203 16.2833 10.3519 16.0869C10.123 15.82 9.73842 15.6865 9.19824 15.6865L8.48536 15.6865ZM15.0576 20.6816L15.0576 15.7549L15.9316 15.7549C16.5075 15.7549 16.998 15.8863 17.4034 16.1492C17.5113 16.2192 17.6132 16.2986 17.709 16.3872C17.8074 16.4782 17.8951 16.5769 17.9723 16.6833C18.2525 17.0698 18.3926 17.5579 18.3926 18.1475C18.3926 18.8107 18.2341 19.3568 17.9171 19.7858C17.8623 19.86 17.8027 19.9308 17.7383 19.998C17.6495 20.0908 17.5539 20.1741 17.4515 20.248C17.0508 20.5371 16.5458 20.6816 15.9365 20.6816L15.0576 20.6816Z" fill="rgb(54,98,255)" fill-rule="evenodd" />
</svg>
