<svg width="32" height="32" viewBox="0 0 32 32" fill="none" xmlns="http://www.w3.org/2000/svg">
<g clip-path="url(#clip0_387_29270)">
<mask id="mask0_387_29270" style="mask-type:luminance" maskUnits="userSpaceOnUse" x="6" y="6" width="20" height="20">
<rect x="6" y="6" width="20" height="20" fill="white"/>
</mask>
<g mask="url(#mask0_387_29270)">
<path d="M23.5 19.75V20.375H24.125H24.75C24.75 19.6846 24.1904 19.125 23.5 19.125V19.75ZM24.125 20.375H23.5V21V21.625C24.1904 21.625 24.75 21.0654 24.75 20.375H24.125ZM23.5 21V20.375H12.25V21V21.625H23.5V21ZM12.25 21V20.375H11.625H11C11 21.0654 11.5596 21.625 12.25 21.625V21ZM11.625 20.375H12.25V19.75V19.125C11.5596 19.125 11 19.6846 11 20.375H11.625ZM12.25 19.75V20.375H23.5V19.75V19.125H12.25V19.75ZM23.5 15.375V16H24.125H24.75C24.75 15.3096 24.1904 14.75 23.5 14.75V15.375ZM24.125 16H23.5V16.625V17.25C24.1904 17.25 24.75 16.6904 24.75 16H24.125ZM23.5 16.625V16H12.25V16.625V17.25H23.5V16.625ZM12.25 16.625V16H11.625H11C11 16.6904 11.5596 17.25 12.25 17.25V16.625ZM11.625 16H12.25V15.375V14.75C11.5596 14.75 11 15.3096 11 16H11.625ZM12.25 15.375V16H23.5V15.375V14.75H12.25V15.375ZM23.5 11V11.625H24.125H24.75C24.75 10.9346 24.1904 10.375 23.5 10.375V11ZM24.125 11.625H23.5V12.25V12.875C24.1904 12.875 24.75 12.3154 24.75 11.625H24.125ZM23.5 12.25V11.625H12.25V12.25V12.875H23.5V12.25ZM12.25 12.25V11.625H11.625H11C11 12.3154 11.5596 12.875 12.25 12.875V12.25ZM11.625 11.625H12.25V11V10.375C11.5596 10.375 11 10.9346 11 11.625H11.625ZM12.25 11V11.625H23.5V11V10.375H12.25V11Z" fill="#5F646C"/>
<circle cx="9.125" cy="11.625" r="0.625" stroke="#5F646C" stroke-width="1.25"/>
<circle cx="9.125" cy="16" r="0.625" stroke="#5F646C" stroke-width="1.25"/>
<circle cx="9.125" cy="20.375" r="0.625" stroke="#5F646C" stroke-width="1.25"/>
</g>
</g>
<defs>
<clipPath id="clip0_387_29270">
<rect width="20" height="20" fill="white" transform="translate(6 6)"/>
</clipPath>
</defs>
</svg>
