<svg viewBox="0 0 32 32" xmlns="http://www.w3.org/2000/svg" xmlns:xlink="http://www.w3.org/1999/xlink" width="32.000000" height="32.000000" fill="none" customFrame="#000000">
	<rect id="画板 710" width="32.000000" height="32.000000" x="0.000000" y="0.000000" />
	<path id="减去顶层" d="M28 27C28 28.6569 26.6569 30 25 30L7 30C5.34314 30 4 28.6569 4 27L4 5C4 3.34314 5.34314 2 7 2L20.6202 2C21.496 2 22.328 2.38268 22.898 3.04762L27.2778 8.1574C27.7438 8.70112 28 9.39364 28 10.1098L28 27ZM20.6397 19.1779C20.9883 19.4236 21.3628 19.6024 21.7632 19.7144C22.0986 19.8083 22.4522 19.8552 22.8239 19.8552C23.2864 19.8552 23.6342 19.7875 23.8672 19.652C24.0156 19.5657 24.1167 19.4638 24.1706 19.3463C24.2013 19.2792 24.2167 19.2071 24.2167 19.1298C24.2167 19.1025 24.2146 19.0755 24.2105 19.0486C24.1871 18.895 24.0966 18.7487 23.9391 18.6099C23.7541 18.4467 23.2659 18.2253 22.4744 17.9457C21.5689 17.6191 20.993 17.1844 20.7468 16.6415C20.6549 16.4388 20.6089 16.221 20.6089 15.9881C20.6089 15.6276 20.7014 15.3131 20.8865 15.0449C21.0244 14.845 21.2137 14.6708 21.4543 14.5222C22.0179 14.1741 22.764 14 23.6925 14C24.4702 14 25.1229 14.0859 25.6505 14.2578L25.6505 15.6124C25.5376 15.5471 25.4206 15.4888 25.2995 15.4373C24.8477 15.2452 24.3394 15.1492 23.7747 15.1492C23.3567 15.1492 23.0226 15.214 22.7725 15.3436C22.6138 15.4259 22.5055 15.526 22.4475 15.6441C22.4141 15.712 22.3973 15.7859 22.3973 15.8658C22.3973 15.9043 22.4015 15.942 22.4098 15.9792C22.4392 16.1107 22.5207 16.2339 22.6543 16.3486C22.8256 16.4957 23.2488 16.6945 23.9237 16.9451C24.7152 17.2335 25.2591 17.5379 25.5555 17.8583C25.6472 17.9575 25.7247 18.0626 25.7881 18.1735C25.9294 18.4209 26 18.6974 26 19.0031C26 19.4273 25.8846 19.7857 25.6538 20.0782C25.5311 20.2336 25.3758 20.3705 25.188 20.4888C24.6467 20.8296 23.8775 21 22.8804 21C21.9691 21 21.2222 20.8747 20.6397 20.6242L20.6397 19.1779ZM14.2721 20.882L12.2575 20.882L10.8288 18.6361C10.7774 18.5545 10.7243 18.4074 10.6695 18.1948L10.6489 18.1948C10.6215 18.2996 10.5598 18.4511 10.4639 18.6492L9.03002 20.882L7 20.882L9.55424 17.4956L7.221 14.1136L9.28698 14.1136L10.4742 16.1848C10.5701 16.3537 10.6523 16.5402 10.7209 16.7441L10.7414 16.7441C10.8134 16.5606 10.9007 16.3668 11.0035 16.1629L12.314 14.1136L14.2104 14.1136L11.8052 17.4694L14.2721 20.882ZM15.2486 20.882L19.9202 20.882L19.9202 19.7022L16.9446 19.7022L16.9446 14.1136L15.2486 14.1136L15.2486 20.882Z" fill="rgb(54,98,255)" fill-rule="evenodd" />
</svg>
