<svg width="48" height="48" viewBox="0 0 48 48" fill="none" xmlns="http://www.w3.org/2000/svg">
<path d="M43.0628 41.3906H4.89033C3.87084 41.3906 3.04688 40.6579 3.04688 39.7513V12.9831C3.04688 12.0765 3.87084 11.3438 4.89033 11.3438H43.0628C44.0823 11.3438 44.9062 12.0765 44.9062 12.9831V39.7513C44.9062 40.6537 44.0776 41.3906 43.0628 41.3906Z" fill="#FFE9B4"/>
<path d="M24 19.2656H3.04688V9.86109C3.04688 8.84048 3.87178 8.01562 4.89239 8.01562H19.2324C20.048 8.01562 20.7657 8.54691 20.9987 9.32981L24 19.2656Z" fill="#FFB02C"/>
<path d="M43.0628 41.3906H4.89033C3.87084 41.3906 3.04688 40.5666 3.04688 39.5469V15.7187C3.04688 14.6991 3.87084 13.875 4.89033 13.875H43.0628C44.0823 13.875 44.9062 14.6991 44.9062 15.7187V39.5469C44.9062 40.5619 44.0776 41.3906 43.0628 41.3906Z" fill="#FFCA28"/>
</svg>
