<svg viewBox="0 0 20 20" xmlns="http://www.w3.org/2000/svg" xmlns:xlink="http://www.w3.org/1999/xlink" width="20.000000" height="20.000000" fill="none">
	<rect id="快进15秒 1" width="20.000000" height="20.000000" x="0.000000" y="0.000000" />
	<path id="矢量 218" d="M10.1167 14.0993C9.77499 14.0993 9.49166 13.816 9.49166 13.4743C9.49166 13.1327 9.77499 12.8493 10.1167 12.8493L12.025 12.8493C12.0663 12.8472 12.107 12.8413 12.1472 12.8314C12.1873 12.8216 12.2262 12.808 12.2638 12.7907C12.3013 12.7735 12.3369 12.7528 12.3706 12.7288C12.4042 12.7047 12.4353 12.6777 12.4638 12.6478C12.4923 12.6178 12.5177 12.5854 12.54 12.5506C12.5623 12.5158 12.5811 12.4792 12.5965 12.4408C12.6118 12.4024 12.6234 12.3629 12.6312 12.3223C12.639 12.2817 12.6429 12.2407 12.6429 12.1993C12.6429 12.158 12.639 12.117 12.6312 12.0764C12.6234 12.0358 12.6118 11.9963 12.5965 11.9579C12.5811 11.9195 12.5623 11.8829 12.54 11.8481C12.5177 11.8133 12.4923 11.7809 12.4638 11.7509C12.4353 11.721 12.4042 11.6939 12.3706 11.6699C12.3369 11.6458 12.3013 11.6252 12.2638 11.6079C12.2262 11.5907 12.1873 11.5771 12.1472 11.5673C12.107 11.5574 12.0663 11.5514 12.025 11.5493L10.1167 11.5493C9.91666 11.5493 9.72499 11.4493 9.60833 11.291C9.54917 11.209 9.51223 11.1179 9.49751 11.0178C9.4828 10.9178 9.49196 10.8199 9.52499 10.7243L10.1583 8.81601C10.2417 8.55767 10.4833 8.39101 10.75 8.39101L13.3 8.39101C13.6417 8.39101 13.925 8.67434 13.925 9.016C13.925 9.35767 13.6417 9.64101 13.3 9.64101L11.2 9.64101L10.9833 10.2993L12.025 10.2993C12.0872 10.2993 12.1494 10.3023 12.2113 10.3084C12.2733 10.3144 12.3348 10.3235 12.3959 10.3356C12.4569 10.3477 12.5172 10.3628 12.5768 10.3808C12.6364 10.3989 12.695 10.4198 12.7525 10.4436C12.81 10.4674 12.8662 10.4939 12.9212 10.5233C12.9761 10.5526 13.0294 10.5845 13.0812 10.6191C13.133 10.6537 13.1829 10.6907 13.2311 10.7301C13.2792 10.7696 13.3253 10.8114 13.3693 10.8554C13.4134 10.8994 13.4552 10.9454 13.4947 10.9935C13.5342 11.0417 13.5712 11.0916 13.6058 11.1433C13.6404 11.1951 13.6724 11.2484 13.7018 11.3033C13.7311 11.3582 13.7577 11.4144 13.7816 11.4719C13.8054 11.5294 13.8263 11.588 13.8444 11.6476C13.8625 11.7071 13.8776 11.7674 13.8898 11.8285C13.9019 11.8896 13.911 11.9511 13.9171 12.013C13.9233 12.075 13.9263 12.1371 13.9263 12.1993C13.9263 12.2616 13.9233 12.3237 13.9171 12.3857C13.911 12.4476 13.9019 12.5091 13.8898 12.5702C13.8776 12.6312 13.8625 12.6915 13.8444 12.7511C13.8263 12.8107 13.8054 12.8692 13.7816 12.9267C13.7577 12.9843 13.7311 13.0405 13.7018 13.0954C13.6724 13.1503 13.6404 13.2036 13.6058 13.2553C13.5712 13.3071 13.5342 13.357 13.4947 13.4051C13.4552 13.4532 13.4134 13.4993 13.3693 13.5433C13.3253 13.5873 13.2792 13.629 13.2311 13.6685C13.1829 13.708 13.133 13.745 13.0812 13.7796C13.0294 13.8141 12.9761 13.8461 12.9212 13.8754C12.8662 13.9047 12.81 13.9313 12.7525 13.9551C12.695 13.9789 12.6364 13.9998 12.5768 14.0178C12.5172 14.0359 12.4569 14.0509 12.3959 14.0631C12.3348 14.0752 12.2733 14.0842 12.2113 14.0903C12.1494 14.0964 12.0872 14.0994 12.025 14.0993L10.1167 14.0993ZM7.325 13.4743L7.325 10.6493L7.16666 10.8327C6.93333 11.091 6.54166 11.1077 6.28333 10.8827C6.25294 10.8552 6.22549 10.825 6.201 10.7921C6.1765 10.7592 6.15541 10.7243 6.13774 10.6873C6.12006 10.6503 6.10613 10.6119 6.09594 10.5722C6.08575 10.5325 6.0795 10.4922 6.07718 10.4513C6.07486 10.4103 6.07652 10.3696 6.08217 10.3289C6.08781 10.2883 6.09733 10.2487 6.11071 10.2099C6.1241 10.1712 6.14111 10.1341 6.16174 10.0986C6.18237 10.0632 6.20624 10.0301 6.23333 9.99934L7.48333 8.60767C7.65833 8.41601 7.93333 8.34934 8.175 8.44101C8.41666 8.53267 8.575 8.76601 8.575 9.02434L8.575 13.4827C8.575 13.8243 8.3 14.0993 7.95 14.0993C7.60833 14.0993 7.325 13.816 7.325 13.4743L7.325 13.4743ZM11.1667 4.11601L9.51666 2.05767C9.3 1.79101 9.34166 1.39101 9.61666 1.18267C9.64851 1.15684 9.68259 1.13441 9.71891 1.11538C9.75523 1.09634 9.79307 1.08108 9.83244 1.0696C9.8718 1.05812 9.91191 1.05063 9.95277 1.04715C9.99362 1.04367 10.0344 1.04425 10.0752 1.04891C10.1159 1.05357 10.1558 1.0622 10.1948 1.07481C10.2338 1.08742 10.2712 1.10376 10.307 1.12383C10.3427 1.1439 10.3761 1.1673 10.4072 1.19404C10.4383 1.22078 10.4665 1.25032 10.4917 1.28267L12.1417 3.34101C12.3583 3.60767 12.3167 4.00767 12.0417 4.21601C11.925 4.29934 11.7833 4.34934 11.65 4.34934C11.5559 4.34938 11.4664 4.32894 11.3816 4.28801C11.2968 4.24708 11.2252 4.18975 11.1667 4.11601L11.1667 4.11601Z" fill="rgb(94.8712,100.341,107.92)" fill-rule="nonzero" />
	<path id="矢量 219" d="M1.9668 10.924C1.9668 6.49063 5.5668 2.89062 10.0001 2.89062C10.5751 2.89062 11.1585 2.95729 11.7918 3.10729C12.1251 3.18229 12.3418 3.52396 12.2585 3.85729C12.1835 4.19063 11.8418 4.40729 11.5085 4.32396C10.9751 4.19896 10.4751 4.14062 10.0001 4.14062C6.25846 4.14062 3.2168 7.18229 3.2168 10.924C3.2168 14.6656 6.25846 17.7073 10.0001 17.7073C13.7418 17.7073 16.7835 14.6656 16.7835 10.924C16.7835 9.47396 16.3085 8.07396 15.4085 6.87396C15.3838 6.84113 15.3627 6.80621 15.3449 6.76921C15.3272 6.7322 15.3132 6.69383 15.303 6.65407C15.2928 6.61432 15.2866 6.57395 15.2844 6.53297C15.2822 6.492 15.2839 6.4512 15.2897 6.41057C15.2955 6.36994 15.3053 6.33028 15.3189 6.29156C15.3325 6.25285 15.3498 6.21584 15.3707 6.18053C15.3916 6.14521 15.4157 6.11228 15.4431 6.08173C15.4705 6.05117 15.5006 6.02358 15.5335 5.99896C15.5663 5.97434 15.6012 5.95315 15.6382 5.93541C15.6752 5.91766 15.7136 5.9037 15.7534 5.89351C15.7931 5.88333 15.8335 5.87712 15.8744 5.87489C15.9154 5.87265 15.9562 5.87444 15.9969 5.88024C16.0375 5.88604 16.0771 5.89575 16.1159 5.90937C16.1546 5.92299 16.1916 5.94025 16.2269 5.96116C16.2622 5.98207 16.2951 6.00622 16.3257 6.03362C16.3563 6.06102 16.3838 6.09113 16.4085 6.12396C17.4751 7.54063 18.0335 9.19896 18.0335 10.924C18.0335 15.3573 14.4251 18.9573 10.0001 18.9573C5.57513 18.9573 1.9668 15.3573 1.9668 10.924L1.9668 10.924Z" fill="rgb(94.8712,100.341,107.92)" fill-rule="nonzero" />
</svg>
