<svg width="40.000000" height="40.000000" viewBox="0 0 40 40" fill="none" xmlns="http://www.w3.org/2000/svg" xmlns:xlink="http://www.w3.org/1999/xlink">
  <desc>
    Created with Pixso.
  </desc>
  <defs>
    <clipPath id="clip196_1299">
      <rect id="全局放大2" width="20.000000" height="20.000000" transform="translate(10.000000 10.000000)" fill="white" fill-opacity="0"/>
    </clipPath>
  </defs>
  <g clip-path="url(#clip196_1299)">
    <path id="path" d="M22.52 13.04L22.5 13.06C22.18 13.06 21.93 12.81 21.93 12.5C21.93 12.18 22.18 11.93 22.5 11.93L22.52 11.95L22.52 13.04ZM28.04 17.48L28.06 17.5C28.06 17.81 27.81 18.06 27.5 18.06C27.18 18.06 26.93 17.81 26.93 17.5L26.95 17.48L28.04 17.48Z" fill="#000000" fill-opacity="0" fill-rule="nonzero"/>
    <path id="path" d="M22.5 12.5L27.5 12.5L27.5 17.5" stroke="currentColor" stroke-opacity="1.000000" stroke-width="1.130000" stroke-linejoin="round" stroke-linecap="round"/>
    <path id="path" d="M17.48 11.95L17.5 11.93C17.81 11.93 18.06 12.18 18.06 12.5C18.06 12.81 17.81 13.06 17.5 13.06L17.48 13.04L17.48 11.95ZM13.04 17.48L13.06 17.5C13.06 17.81 12.81 18.06 12.5 18.06C12.18 18.06 11.93 17.81 11.93 17.5L11.95 17.48L13.04 17.48Z" fill="#000000" fill-opacity="0" fill-rule="nonzero"/>
    <path id="path" d="M17.5 12.5L12.5 12.5L12.5 17.5" stroke="currentColor" stroke-opacity="1.000000" stroke-width="1.130000" stroke-linejoin="round" stroke-linecap="round"/>
    <path id="path" d="M22.52 28.04L22.5 28.06C22.18 28.06 21.93 27.81 21.93 27.5C21.93 27.18 22.18 26.93 22.5 26.93L22.52 26.95L22.52 28.04ZM26.95 22.52L26.93 22.5C26.93 22.18 27.18 21.93 27.5 21.93C27.81 21.93 28.06 22.18 28.06 22.5L28.04 22.52L26.95 22.52Z" fill="#000000" fill-opacity="0" fill-rule="nonzero"/>
    <path id="path" d="M22.5 27.5L27.5 27.5L27.5 22.5" stroke="currentColor" stroke-opacity="1.000000" stroke-width="1.130000" stroke-linejoin="round" stroke-linecap="round"/>
    <path id="path" d="M17.48 26.95L17.5 26.93C17.81 26.93 18.06 27.18 18.06 27.5C18.06 27.81 17.81 28.06 17.5 28.06L17.48 28.04L17.48 26.95ZM11.95 22.52L11.93 22.5C11.93 22.18 12.18 21.93 12.5 21.93C12.81 21.93 13.06 22.18 13.06 22.5L13.04 22.52L11.95 22.52Z" fill="#000000" fill-opacity="0" fill-rule="nonzero"/>
    <path id="path" d="M17.5 27.5L12.5 27.5L12.5 22.5" stroke="currentColor" stroke-opacity="1.000000" stroke-width="1.130000" stroke-linejoin="round" stroke-linecap="round"/>
    <path id="path" d="M22.48 18.28L22.48 18.31C22.25 18.54 21.9 18.54 21.68 18.31C21.46 18.09 21.46 17.74 21.68 17.51L21.71 17.51L22.48 18.28ZM27.1 12.12L27.1 12.1C27.32 11.87 27.67 11.87 27.9 12.1C28.12 12.32 28.12 12.67 27.9 12.89L27.87 12.89L27.1 12.12Z" fill="#000000" fill-opacity="0" fill-rule="nonzero"/>
    <path id="path" d="M22.08 17.91L27.5 12.5" stroke="currentColor" stroke-opacity="1.000000" stroke-width="1.130000" stroke-linejoin="round" stroke-linecap="round"/>
    <path id="path" d="M12.89 27.87L12.89 27.89C12.67 28.12 12.32 28.12 12.1 27.89C11.87 27.67 11.87 27.32 12.1 27.1L12.12 27.1L12.89 27.87ZM17.51 21.71L17.51 21.68C17.74 21.46 18.09 21.46 18.31 21.68C18.53 21.9 18.53 22.25 18.31 22.48L18.28 22.48L17.51 21.71Z" fill="#000000" fill-opacity="0" fill-rule="nonzero"/>
    <path id="path" d="M12.5 27.5L17.91 22.08" stroke="currentColor" stroke-opacity="1.000000" stroke-width="1.130000" stroke-linejoin="round" stroke-linecap="round"/>
  </g>
  <rect id="画板 1" rx="0.000000" width="39.000000" height="39.000000" transform="translate(0.500000 0.500000)" stroke="#000000" stroke-opacity="0.060000" stroke-width="1.000000"/>
</svg>
