<svg width="18.000000" height="18.000000" viewBox="0 0 18 18" fill="none" xmlns="http://www.w3.org/2000/svg" xmlns:xlink="http://www.w3.org/1999/xlink">
  <desc>
    Created with Pixso.
  </desc>
  <defs>
    <clipPath id="clip512_41366">
      <rect id="历史记录" width="18.000000" height="18.000000" fill="white" fill-opacity="0"/>
    </clipPath>
  </defs>
  <g clip-path="url(#clip512_41366)">
    <path id="path" d="M1.63 2.54L1.61 2.52C1.61 2.2 1.86 1.96 2.18 1.96C2.49 1.96 2.74 2.2 2.74 2.52L2.72 2.54L1.63 2.54ZM4.88 4.7L4.9 4.68C5.22 4.68 5.47 4.93 5.47 5.25C5.47 5.56 5.22 5.81 4.9 5.81L4.88 5.79L4.88 4.7Z" fill="#000000" fill-opacity="0" fill-rule="nonzero"/>
    <path id="path" d="M2.18 2.52L2.18 5.25L4.9 5.25" stroke="currentColor" stroke-opacity="1.000000" stroke-width="1.125000" stroke-linejoin="round" stroke-linecap="round"/>
    <path id="path" d="M0.95 9.02L0.93 9C0.93 8.68 1.18 8.43 1.5 8.43C1.81 8.43 2.06 8.68 2.06 9L2.04 9.02L0.95 9.02ZM2.98 5.5L2.99 5.53C2.83 5.8 2.49 5.89 2.22 5.73C1.94 5.57 1.85 5.24 2.01 4.96L2.04 4.96L2.98 5.5Z" fill="#000000" fill-opacity="0" fill-rule="nonzero"/>
    <path id="path" d="M1.5 9C1.5 13.14 4.85 16.5 9 16.5C13.14 16.5 16.5 13.14 16.5 9C16.5 4.85 13.14 1.5 9 1.5C6.22 1.5 3.8 3 2.5 5.24" stroke="currentColor" stroke-opacity="1.000000" stroke-width="1.125000" stroke-linejoin="round" stroke-linecap="round"/>
    <path id="path" d="M8.45 4.51L8.43 4.5C8.43 4.18 8.68 3.93 9 3.93C9.31 3.93 9.56 4.18 9.56 4.5L9.54 4.52L8.45 4.51ZM12.54 11.78L12.57 11.78C12.8 12 12.8 12.35 12.57 12.58C12.35 12.8 12 12.8 11.78 12.58L11.78 12.55L12.54 11.78Z" fill="#000000" fill-opacity="0" fill-rule="nonzero"/>
    <path id="path" d="M9 4.5L9 9L12.18 12.18" stroke="currentColor" stroke-opacity="1.000000" stroke-width="1.125000" stroke-linejoin="round" stroke-linecap="round"/>
  </g>
</svg>
