<svg width="22.000000" height="22.000000" viewBox="0 0 22 22" fill="none" xmlns="http://www.w3.org/2000/svg" xmlns:xlink="http://www.w3.org/1999/xlink">
  <desc>
    Created with Pixso.
  </desc>
  <defs>
    <clipPath id="clip68_1736">
      <rect id="历史记录" width="18.000000" height="18.000000" transform="translate(2.000000 2.000000)" fill="white" fill-opacity="0"/>
    </clipPath>
    <clipPath id="clip68_1737">
      <rect id="画板 61" width="22.000000" height="22.000000" fill="white" fill-opacity="0"/>
    </clipPath>
  </defs>
  <rect id="画板 61" width="22.000000" height="22.000000" fill="#FFFFFF" fill-opacity="0"/>
  <g clip-path="url(#clip68_1737)">
    <g clip-path="url(#clip68_1736)">
      <path id="path" d="M3.63 4.54L3.61 4.52C3.61 4.2 3.86 3.95 4.18 3.95C4.49 3.95 4.74 4.2 4.74 4.52L4.72 4.54L3.63 4.54ZM6.88 6.7L6.9 6.68C7.22 6.68 7.47 6.93 7.47 7.24C7.47 7.56 7.22 7.81 6.9 7.81L6.88 7.79L6.88 6.7Z" fill="#000000" fill-opacity="0" fill-rule="nonzero"/>
      <path id="path" d="M4.18 4.52L4.18 7.24L6.9 7.24" stroke="currentColor" stroke-opacity="1.000000" stroke-width="1.125000" stroke-linejoin="round" stroke-linecap="round"/>
      <path id="path" d="M2.95 11.02L2.93 11C2.93 10.68 3.18 10.43 3.5 10.43C3.81 10.43 4.06 10.68 4.06 11L4.04 11.02L2.95 11.02ZM4.98 7.5L4.99 7.53C4.83 7.8 4.49 7.89 4.22 7.73C3.94 7.57 3.85 7.24 4.01 6.96L4.04 6.96L4.98 7.5Z" fill="#000000" fill-opacity="0" fill-rule="nonzero"/>
      <path id="path" d="M3.5 11C3.5 15.14 6.85 18.5 11 18.5C15.14 18.5 18.5 15.14 18.5 11C18.5 6.85 15.14 3.5 11 3.5C8.22 3.5 5.8 5 4.5 7.24" stroke="currentColor" stroke-opacity="1.000000" stroke-width="1.125000" stroke-linejoin="round" stroke-linecap="round"/>
      <path id="path" d="M10.45 6.52L10.43 6.5C10.43 6.18 10.68 5.93 11 5.93C11.31 5.93 11.56 6.18 11.56 6.5L11.54 6.52L10.45 6.52ZM14.55 13.78L14.57 13.78C14.8 14 14.8 14.35 14.57 14.58C14.35 14.8 14 14.8 13.78 14.58L13.78 14.55L14.55 13.78Z" fill="#000000" fill-opacity="0" fill-rule="nonzero"/>
      <path id="path" d="M11 6.5L11 11L14.18 14.18" stroke="currentColor" stroke-opacity="1.000000" stroke-width="1.125000" stroke-linejoin="round" stroke-linecap="round"/>
    </g>
  </g>
</svg>
