<svg viewBox="0 0 120 120" xmlns="http://www.w3.org/2000/svg" xmlns:xlink="http://www.w3.org/1999/xlink" width="120.000000" height="120.000000" fill="none">
	<rect id="命中 2" width="120.000000" height="120.000008" x="0.000000" y="0.000000" />
	<path id="矢量 1" d="M104.709 5.05645L105.99 14.0104L114.944 15.28C116.023 15.4425 117.036 15.9008 117.871 16.6041C118.705 17.3074 119.329 18.2281 119.672 19.2642C120.015 20.3003 120.064 21.4111 119.814 22.4735C119.564 23.5359 119.025 24.5083 118.256 25.2828L110.583 32.9449C115.942 42.7832 118.38 53.947 117.612 65.1237C116.844 76.3005 112.9 87.0255 106.245 96.0379C99.5905 105.05 90.5009 111.975 80.0452 115.999C69.5894 120.022 58.2024 120.977 47.2227 118.75C36.243 116.524 26.1273 111.209 18.0648 103.43C10.0023 95.6518 4.32822 85.733 1.70972 74.8402C-0.908778 63.9474 -0.362852 52.5334 3.28331 41.9402C6.92947 31.347 13.5243 22.015 22.2924 15.0415C31.0605 8.06789 41.6373 3.74264 52.7793 2.57426C63.9214 1.40588 75.1654 3.44293 85.1894 8.44591L87 9.3954L94.6621 1.7222C95.3936 0.993042 96.3038 0.468831 97.3015 0.202043C98.2993 -0.0647436 99.3496 -0.0647436 100.347 0.202043C101.345 0.46883 102.255 0.993042 102.987 1.7222C103.43 2.169 103.801 2.68317 104.084 3.24564C104.367 3.80811 104.559 4.41181 104.654 5.03437L104.709 5.05645ZM58.8796 11.0404C49.2447 11.0445 39.8158 13.8296 31.7251 19.0614C23.6344 24.2931 17.2258 31.7491 13.2689 40.534C9.31204 49.3189 7.97508 59.0592 9.41858 68.5854C10.8621 78.1115 15.0247 87.0185 21.4065 94.2368C27.7883 101.455 36.1181 106.678 45.3956 109.278C54.6731 111.878 64.5038 111.744 73.7074 108.894C82.9109 106.043 91.096 100.597 97.2798 93.208C103.464 85.8193 107.383 76.8028 108.568 67.241C109.752 57.6792 108.152 47.9787 103.958 39.3043C103.38 39.6542 102.746 39.9023 102.084 40.0378C101.422 40.1732 100.741 40.194 100.072 40.0992L87.9053 38.3438L86.8012 39.4478C91.1791 45.1133 93.7324 51.9751 94.1227 59.1243C94.513 66.2734 92.722 73.3725 88.987 79.4808C85.2519 85.5892 79.7491 90.4186 73.2076 93.3292C66.6661 96.2398 59.3947 97.0942 52.3567 95.7792C45.3186 94.4642 38.8463 91.0419 33.797 85.9657C28.7478 80.8895 25.36 74.399 24.0825 67.3541C22.805 60.3092 23.6981 53.0424 26.6435 46.5164C29.5889 39.9905 34.4475 34.5135 40.5757 30.8111C46.7038 27.1086 53.8123 25.3554 60.9593 25.7838C68.1063 26.2122 74.9544 28.8019 80.5964 33.2099L81.7005 32.1059L79.9119 19.8729C79.7573 18.7982 79.9025 17.7017 80.3315 16.7043L80.6737 16.0529C73.8824 12.753 66.4302 11.0391 58.8796 11.0404ZM58.8796 34.59C53.6108 34.588 48.4611 36.1567 44.0882 39.0959C39.7154 42.035 36.3181 46.211 34.3302 51.0905C32.3424 55.9699 31.8544 61.3311 32.9286 66.4893C34.0027 71.6474 36.5902 76.3682 40.3605 80.0486C44.1308 83.729 48.9126 86.2018 54.0952 87.1511C59.2778 88.1004 64.6257 87.4831 69.4557 85.3782C74.2858 83.2732 78.3786 79.776 81.2113 75.3335C84.044 70.891 85.4881 65.7049 85.3589 60.4377C85.2297 55.1704 83.5331 50.0613 80.486 45.7631L69.7325 56.5166C70.6836 58.7503 70.922 61.2232 70.4151 63.5975C69.9082 65.9718 68.6808 68.1318 66.9004 69.7824C65.1201 71.4331 62.8736 72.494 60.4678 72.8202C58.062 73.1463 55.6142 72.722 53.4586 71.605C51.303 70.488 49.5448 68.7328 48.424 66.5792C47.3032 64.4256 46.8745 61.9785 47.1964 59.5721C47.5183 57.1658 48.5752 54.9174 50.2227 53.1342C51.8702 51.3509 54.028 50.1197 56.4014 49.6086C58.7748 49.0975 61.2481 49.3315 63.4836 50.2786L74.2371 39.5141C69.7513 36.3247 64.3837 34.6114 58.8796 34.6121L58.8796 34.59ZM96.804 12.1445L88.8548 20.0827L90.2349 29.8094L99.9174 31.1343L107.856 23.1851L104.731 22.7435C102.988 22.4956 101.359 21.7326 100.053 20.5523C98.7465 19.3719 97.8228 17.8282 97.4002 16.1191L97.2346 15.3021L96.793 12.1445L96.804 12.1445Z" fill="rgb(201,205,212)" fill-rule="nonzero" />
</svg>
