<svg viewBox="0 0 20 20" xmlns="http://www.w3.org/2000/svg" xmlns:xlink="http://www.w3.org/1999/xlink" width="20.000000" height="20.000000" fill="none" customFrame="#000000">
	<defs>
		<clipPath id="clipPath_1">
			<rect width="17.200001" height="17.200001" x="1.399902" y="1.400024" fill="rgb(255,255,255)" />
		</clipPath>
	</defs>
	<rect id="组合 1" width="20.000000" height="20.000000" x="0.000000" y="0.000000" />
	<g id="命中 1" clip-path="url(#clipPath_1)" customFrame="url(#clipPath_1)">
		<rect id="命中 1" width="17.200001" height="17.200001" x="1.399902" y="1.400024" />
		<path id="矢量 1" d="M16.408 2.12475L16.5915 3.40814L17.8749 3.59013C18.0296 3.61341 18.1748 3.6791 18.2944 3.77991C18.4141 3.88071 18.5034 4.01269 18.5526 4.16119C18.6018 4.3097 18.6088 4.46892 18.573 4.6212C18.5372 4.77347 18.4599 4.91285 18.3497 5.02386L17.2498 6.1221C18.018 7.53225 18.3675 9.13239 18.2574 10.7344C18.1472 12.3364 17.582 13.8736 16.6282 15.1654C15.6743 16.4572 14.3714 17.4498 12.8728 18.0265C11.3741 18.6032 9.74199 18.74 8.16824 18.4209C6.59449 18.1017 5.14457 17.3399 3.98894 16.225C2.83332 15.1101 2.02003 13.6884 1.64471 12.1271C1.2694 10.5658 1.34765 8.92977 1.87026 7.41141C2.39288 5.89306 3.33814 4.55547 4.59489 3.55593C5.85165 2.55639 7.36767 1.93643 8.96469 1.76897C10.5617 1.6015 12.1734 1.89348 13.6101 2.61057L13.8697 2.74666L14.9679 1.64684C15.0727 1.54232 15.2032 1.46719 15.3462 1.42895C15.4892 1.39071 15.6398 1.39071 15.7828 1.42895C15.9258 1.46719 16.0562 1.54232 16.1611 1.64684C16.2247 1.71088 16.2778 1.78458 16.3183 1.8652C16.3589 1.94582 16.3865 2.03235 16.4 2.12158L16.408 2.12475ZM9.83907 2.98245C8.45807 2.98303 7.10659 3.38223 5.94692 4.13212C4.78725 4.882 3.86868 5.9507 3.30153 7.20986C2.73438 8.46903 2.54275 9.86515 2.74965 11.2306C2.95655 12.596 3.55319 13.8726 4.46792 14.9073C5.38265 15.9419 6.57658 16.6905 7.90636 17.0631C9.23613 17.4358 10.6452 17.4167 11.9644 17.0081C13.2836 16.5995 14.4568 15.8188 15.3431 14.7598C16.2294 13.7008 16.7912 12.4084 16.961 11.0379C17.1308 9.66734 16.9014 8.27694 16.3003 7.03361C16.2175 7.08376 16.1266 7.11932 16.0317 7.13874C15.9368 7.15815 15.8392 7.16113 15.7433 7.14755L13.9994 6.89593L13.8412 7.05418C14.4687 7.86622 14.8346 8.84976 14.8906 9.87447C14.9465 10.8992 14.6898 11.9167 14.1545 12.7922C13.6191 13.6678 12.8304 14.36 11.8927 14.7772C10.9551 15.1944 9.91289 15.3168 8.90411 15.1283C7.89533 14.9399 6.96762 14.4493 6.24389 13.7217C5.52017 12.9942 5.03458 12.0638 4.85148 11.0541C4.66837 10.0443 4.79638 9.00273 5.21855 8.06735C5.64073 7.13197 6.33713 6.34693 7.2155 5.81624C8.09387 5.28555 9.11275 5.03427 10.1372 5.09567C11.1616 5.15707 12.1431 5.52827 12.9518 6.16008L13.1101 6.00183L12.8537 4.24844C12.8315 4.0944 12.8523 3.93723 12.9138 3.79427L12.9629 3.7009C11.9895 3.22792 10.9213 2.98226 9.83907 2.98245ZM9.83907 6.35789C9.08387 6.3576 8.34574 6.58245 7.71897 7.00373C7.09219 7.425 6.60524 8.02357 6.32032 8.72296C6.0354 9.42234 5.96546 10.1908 6.11941 10.9301C6.27337 11.6695 6.64425 12.3461 7.18466 12.8736C7.72506 13.4011 8.41047 13.7556 9.1533 13.8916C9.89614 14.0277 10.6627 13.9392 11.355 13.6375C12.0473 13.3358 12.6339 12.8346 13.0399 12.1978C13.446 11.561 13.6529 10.8177 13.6344 10.0627C13.6159 9.30775 13.3727 8.57545 12.936 7.95936L11.3946 9.5007C11.531 9.82087 11.5651 10.1753 11.4925 10.5156C11.4198 10.856 11.2439 11.1655 10.9887 11.4021C10.7335 11.6387 10.4115 11.7908 10.0667 11.8375C9.72188 11.8843 9.37102 11.8235 9.06206 11.6634C8.75309 11.5033 8.50107 11.2517 8.34042 10.943C8.17978 10.6343 8.11833 10.2836 8.16447 9.93866C8.21062 9.59375 8.3621 9.27149 8.59824 9.01589C8.83438 8.76029 9.14367 8.58381 9.48386 8.51056C9.82404 8.4373 10.1786 8.47084 10.499 8.6066L12.0403 7.06368C11.3973 6.60653 10.628 6.36096 9.83907 6.36105L9.83907 6.35789ZM15.2749 3.1407L14.1355 4.27851L14.3333 5.67267L15.7212 5.86257L16.859 4.72318L16.4111 4.65988C16.1613 4.62436 15.9278 4.51499 15.7405 4.34581C15.5533 4.17663 15.4209 3.95536 15.3603 3.71039L15.3366 3.59329L15.2733 3.1407L15.2749 3.1407Z" fill="rgb(255,255,255)" fill-rule="nonzero" />
	</g>
</svg>
