<svg viewBox="0 0 20 20" xmlns="http://www.w3.org/2000/svg" xmlns:xlink="http://www.w3.org/1999/xlink" width="20.000000" height="20.000000" fill="none">
	<rect id="声音-无" width="20.000000" height="20.000000" x="0.000000" y="0.000000" />
	<path id="矢量 220" d="M10.0003 17.5C7.08366 17.5 4.91637 13.683 4.91637 13.683L2.50033 13.683C2.04009 13.683 1.66699 13.3099 1.66699 12.8496L1.66699 7.08783C1.66699 6.62758 2.04009 6.2545 2.50033 6.2545L4.91637 6.2545C4.91637 6.2545 7.08366 2.5 10.0003 2.5L10.0003 17.5Z" fill-rule="nonzero" stroke="rgb(94.8712,100.341,107.92)" stroke-linejoin="round" stroke-width="1.5" />
	<path id="path" d="M0 0L8.48528 0" stroke="rgb(94.8712,100.341,107.92)" stroke-linecap="round" stroke-linejoin="round" stroke-width="1.5" transform="matrix(0.707107,0.707107,-0.707107,0.707107,13,7)" />
	<path id="path" d="M0 0L8.48528 0" stroke="rgb(94.8712,100.341,107.92)" stroke-linecap="round" stroke-linejoin="round" stroke-width="1.5" transform="matrix(0.707107,-0.707107,0.707107,0.707107,13,13)" />
</svg>
