<svg viewBox="0 0 20 20" xmlns="http://www.w3.org/2000/svg" xmlns:xlink="http://www.w3.org/1999/xlink" width="20.000000" height="20.000000" fill="none">
	<rect id="声音-大 1" width="20.000000" height="20.000000" x="0.000000" y="0.000000" />
	<path id="矢量 220" d="M10.0003 17.5C7.08366 17.5 4.91637 13.683 4.91637 13.683L2.50033 13.683C2.04009 13.683 1.66699 13.3099 1.66699 12.8496L1.66699 7.08783C1.66699 6.62758 2.04009 6.2545 2.50033 6.2545L4.91637 6.2545C4.91637 6.2545 7.08366 2.5 10.0003 2.5L10.0003 17.5Z" fill-rule="nonzero" stroke="rgb(94.8712,100.341,107.92)" stroke-linejoin="round" stroke-width="1.5" />
	<path id="矢量 221" d="M13.333 6.25C13.5927 6.48188 13.828 6.74154 14.0347 7.0245C14.6408 7.85433 14.9997 8.88429 14.9997 10C14.9997 11.106 14.647 12.1278 14.0504 12.9539C13.84 13.2452 13.5993 13.5122 13.333 13.75" fill-rule="nonzero" stroke="rgb(94.8712,100.341,107.92)" stroke-linecap="round" stroke-linejoin="round" stroke-width="1.5" />
	<path id="矢量 222" d="M14.2646 17.161C16.7012 15.7066 18.333 13.044 18.333 10.0003C18.333 7.0038 16.7515 4.37672 14.3776 2.9082" fill-rule="nonzero" stroke="rgb(94.8712,100.341,107.92)" stroke-linecap="round" stroke-width="1.5" />
</svg>
