<svg width="36.000000" height="36.000000" viewBox="0 0 36 36" fill="none" xmlns="http://www.w3.org/2000/svg" xmlns:xlink="http://www.w3.org/1999/xlink">
	<desc>
			Created with Pixso.
	</desc>
	<defs>
		<clipPath id="clip241_2018">
			<rect id="sticky-note-line" width="24.000000" height="24.000000" transform="translate(6.000000 6.000000)" fill="white" fill-opacity="0"/>
		</clipPath>
	</defs>
	<rect id="矩形 118" rx="18.000000" width="36.000000" height="36.000000" fill="#3491FA" fill-opacity="0.100000"/>
	<rect id="sticky-note-line" width="24.000000" height="24.000000" transform="translate(6.000000 6.000000)" fill="#FFFFFF" fill-opacity="0"/>
	<g clip-path="url(#clip241_2018)">
		<path id="矢量 185" d="M27 21L21 26.99L10 27C9.73 27 9.48 26.89 9.29 26.71C9.1 26.52 9 26.27 9 26L9 9.99C9 9.44 9.44 9 9.99 9L26 9C26.55 9 27 9.45 27 10L27 21L27 21ZM25 11L11 11L11 25L19 25L19 20C19 19.75 19.09 19.51 19.25 19.33C19.41 19.15 19.63 19.03 19.88 19L20 19L25 18.99L25 11ZM24.17 20.99L21 21L21 24.16L24.17 20.99Z" fill="#3491FA" fill-opacity="1.000000" fill-rule="evenodd"/>
	</g>
</svg>
