<svg viewBox="0 0 20 20" xmlns="http://www.w3.org/2000/svg" xmlns:xlink="http://www.w3.org/1999/xlink" width="20.000000" height="20.000000" fill="none" customFrame="url(#clipPath_0)">
	<defs>
		<linearGradient id="paint_linear_0" x1="10" x2="10" y1="0" y2="20" gradientUnits="userSpaceOnUse">
			<stop stop-color="rgb(52,145,250)" offset="0" stop-opacity="0.600000024" />
			<stop stop-color="rgb(52,145,250)" offset="1" stop-opacity="1" />
		</linearGradient>
		<clipPath id="clipPath_0">
			<rect width="20.000000" height="20.000000" x="0.000000" y="0.000000" rx="4.000000" fill="rgb(255,255,255)" />
		</clipPath>
	</defs>
	<rect id="容器 399" width="20.000000" height="20.000000" x="0.000000" y="0.000000" rx="4.000000" fill="url(#paint_linear_0)" />
	<path id="" d="M8.28906 15.0176C9.40625 14.4863 10.416 13.873 11.3184 13.1777C10.9941 12.1426 10.7832 10.8887 10.6855 9.41602L7.63281 9.41602L7.63281 11.3555C8.40625 11.2188 9.20703 11.0723 10.0352 10.916C10.0508 11.2676 10.0625 11.5762 10.0703 11.8418C9.25 11.998 8.4375 12.1543 7.63281 12.3105L7.63281 15.0645C7.63281 15.9551 7.20703 16.4043 6.35547 16.4121C5.83203 16.4199 5.30859 16.4082 4.78516 16.377C4.74609 16.0254 4.67969 15.6934 4.58594 15.3809C5.15625 15.459 5.66797 15.498 6.12109 15.498C6.48828 15.5059 6.67188 15.3184 6.67188 14.9355L6.67188 12.498C5.89844 12.6504 5.13281 12.8027 4.375 12.9551L4.14062 11.9473C4.94922 11.8184 5.79297 11.6777 6.67188 11.5254L6.67188 9.41602L4.15234 9.41602L4.15234 8.54883L6.67188 8.54883L6.67188 6.7793C6.05469 6.86133 5.39062 6.94336 4.67969 7.02539C4.625 6.72852 4.53906 6.41602 4.42188 6.08789C6.34375 5.9082 7.99609 5.67383 9.37891 5.38477L9.66016 6.32227C9.07031 6.42773 8.39453 6.53711 7.63281 6.65039L7.63281 8.54883L10.6328 8.54883C10.5781 7.5918 10.5195 6.43555 10.457 5.08008L11.4414 5.08008C11.4688 6.33008 11.5098 7.48633 11.5645 8.54883L15.8477 8.54883L15.8477 9.41602L11.6172 9.41602C11.707 10.623 11.8672 11.6621 12.0977 12.5332C12.9609 11.7676 13.707 10.916 14.3359 9.97852L15.1797 10.541C14.3633 11.6465 13.4414 12.6289 12.4141 13.4883C12.6328 14.043 12.8945 14.498 13.1992 14.8535C13.5977 15.3223 13.9453 15.5566 14.2422 15.5566C14.4062 15.5566 14.5234 15.4277 14.5938 15.1699C14.7031 14.7637 14.8164 14.1035 14.9336 13.1895C15.2617 13.3379 15.5625 13.4512 15.8359 13.5293C15.6953 14.4043 15.5547 15.084 15.4141 15.5684C15.2344 16.1934 14.8516 16.5098 14.2656 16.5176C13.5938 16.5098 12.957 16.1074 12.3555 15.3105C12.0898 14.9629 11.8555 14.5547 11.6523 14.0859C10.7969 14.7188 9.875 15.2754 8.88672 15.7559C8.68359 15.4512 8.48438 15.2051 8.28906 15.0176ZM12.3789 6.12305L12.9883 5.50195C13.6758 6.02539 14.3789 6.60742 15.0977 7.24805L14.3828 7.97461C13.7422 7.32617 13.0742 6.70898 12.3789 6.12305Z" fill="rgb(255,255,255)" fill-rule="nonzero" />
</svg>
