<svg viewBox="0 0 20 20" xmlns="http://www.w3.org/2000/svg" xmlns:xlink="http://www.w3.org/1999/xlink" width="20.000000" height="20.000000" fill="none" clip-path="url(#clipPath_0)" customFrame="url(#clipPath_0)">
	<defs>
		<clipPath id="clipPath_0">
			<rect width="20.000000" height="20.000000" x="0.000000" y="0.000000" rx="10.000000" fill="rgb(255,255,255)" />
		</clipPath>
	</defs>
	<rect id="校验 1" width="20.000000" height="20.000000" x="0.000000" y="0.000000" rx="10.000000" />
	<path id="矢量 208" d="M10.0003 18.3337C12.3015 18.3337 14.3848 17.4009 15.8929 15.8929C17.4009 14.3848 18.3337 12.3015 18.3337 10.0003C18.3337 7.69916 17.4009 5.61583 15.8929 4.10777C14.3848 2.59973 12.3015 1.66699 10.0003 1.66699C7.69916 1.66699 5.61583 2.59973 4.10777 4.10777C2.59973 5.61583 1.66699 7.69916 1.66699 10.0003C1.66699 12.3015 2.59973 14.3848 4.10777 15.8929C5.61583 17.4009 7.69916 18.3337 10.0003 18.3337Z" fill="rgb(109,212,1)" fill-rule="nonzero" />
	<path id="矢量 208" d="M18.738 18.738C20.5477 16.9284 21.667 14.4284 21.667 11.667C21.667 8.90559 20.5477 6.40559 18.738 4.59592C16.9284 2.78628 14.4284 1.66699 11.667 1.66699C8.90559 1.66699 6.40559 2.78628 4.59592 4.59592C2.78628 6.40559 1.66699 8.90559 1.66699 11.667C1.66699 14.4284 2.78628 16.9284 4.59592 18.738C6.40559 20.5477 8.90559 21.667 11.667 21.667C14.4284 21.667 16.9284 20.5477 18.738 18.738Z" fill-rule="nonzero" stroke="rgb(109,212,1)" stroke-opacity="0" stroke-linejoin="round" stroke-width="1.500000" />
	<path id="矢量 209" d="M6.66699 10.5L9.66699 13.5L15.667 7.5" fill-rule="nonzero" stroke="rgb(255,255,255)" stroke-linecap="round" stroke-linejoin="round" stroke-width="1.500000" />
</svg>
