<svg viewBox="0 0 18 18" xmlns="http://www.w3.org/2000/svg" xmlns:xlink="http://www.w3.org/1999/xlink" width="18.000000" height="18.000000" fill="none">
	<rect id="重新 1" width="18.000000" height="18.000000" x="0.000000" y="0.000000" />
	<path id="矢量 384" d="M15.8203 13.554L15.8254 13.5469L15.8305 13.5398L15.658 13.4332C15.6338 13.4804 15.6038 13.5243 15.5687 13.5641C14.7322 14.7684 13.5809 15.7196 12.2406 16.3138C10.9003 16.9079 9.42247 17.1222 7.96863 16.9333C6.5148 16.7443 5.14083 16.1594 3.99682 15.2423C2.85281 14.3252 1.98276 13.1113 1.4817 11.7332C0.980644 10.3551 0.867851 8.86571 1.15565 7.4278C1.17304 7.3538 1.20405 7.28368 1.24708 7.22102C1.29012 7.15836 1.34443 7.10426 1.40725 7.06147C1.49395 7.00102 1.59501 6.96441 1.7003 6.95529C1.8056 6.94616 1.91144 6.96485 2.00725 7.00949C2.10306 7.05412 2.18547 7.12314 2.24624 7.20963L4.26613 10.0956L4.27323 10.1048C4.33327 10.192 4.36929 10.2936 4.37765 10.3992C4.38601 10.5048 4.36642 10.6108 4.32086 10.7065C4.2753 10.8021 4.20537 10.8841 4.11809 10.9441C4.03082 11.0041 3.92928 11.0401 3.82368 11.0485C3.71809 11.0568 3.61216 11.0372 3.51655 10.9916C3.42094 10.946 3.33901 10.876 3.27901 10.7887L2.41972 9.56085L2.2361 9.62782C2.36554 11.0223 2.92259 12.3427 3.83102 13.4084C4.73945 14.474 5.95488 15.2329 7.31101 15.5811C8.66714 15.9293 10.0977 15.8499 11.407 15.3537C12.7163 14.8575 13.8403 13.9688 14.6253 12.8091C14.6823 12.7328 14.7564 12.6708 14.8417 12.6282C14.9269 12.5855 15.021 12.5634 15.1163 12.5636C15.2201 12.5634 15.3222 12.59 15.4127 12.6409C15.5031 12.6918 15.579 12.7652 15.6327 12.854C15.6865 12.9428 15.7165 13.044 15.7196 13.1478C15.7228 13.2516 15.6992 13.3545 15.6509 13.4464L15.656 13.4363L15.8203 13.554L15.8203 13.554ZM2.60436 5.2014C2.51995 5.13763 2.45381 5.05275 2.41258 4.95531C2.37136 4.85787 2.3565 4.75129 2.36951 4.64628C2.38251 4.54127 2.42293 4.44154 2.48668 4.35711C3.33227 3.17052 4.48575 2.23743 5.82266 1.65853C7.15957 1.07962 8.62915 0.87689 10.0728 1.0722C11.5165 1.26752 12.8794 1.85346 14.0145 2.7668C15.1497 3.68015 16.0139 4.88622 16.514 6.25486C17.014 7.6235 17.1309 9.10276 16.8521 10.533C16.8378 10.6139 16.8075 10.6912 16.7629 10.7602C16.7183 10.8292 16.6603 10.8886 16.5924 10.9348L16.5498 11.0191C16.3195 11.1266 15.9441 11.0597 15.7534 10.7877L13.7325 7.9017L13.7264 7.89155C13.6664 7.80427 13.6305 7.70274 13.6222 7.59716C13.614 7.49159 13.6336 7.38569 13.6792 7.29012C13.7248 7.19455 13.7948 7.11267 13.882 7.05272C13.9693 6.99277 14.0708 6.95686 14.1764 6.9486C14.2819 6.94034 14.3878 6.96002 14.4833 7.00566C14.5789 7.0513 14.6607 7.1213 14.7206 7.20861L15.5799 8.43648L15.7635 8.36951C15.6347 6.98301 15.0831 5.66957 14.1834 4.60697C13.2838 3.54436 12.0794 2.78389 10.7334 2.42848C9.3874 2.07307 7.96473 2.13988 6.65793 2.61987C5.35114 3.09986 4.22332 3.96985 3.42713 5.1121C3.36087 5.18921 3.27624 5.24837 3.18107 5.2841C3.0859 5.31983 2.98325 5.33099 2.88263 5.31653C2.78201 5.30207 2.68665 5.26248 2.60538 5.2014L2.60436 5.2014Z" fill="rgb(54,98,255)" fill-rule="nonzero" />
</svg>
