<svg viewBox="0 0 20 20" xmlns="http://www.w3.org/2000/svg" xmlns:xlink="http://www.w3.org/1999/xlink" width="20.000000" height="20.000000" fill="none">
	<rect id="注意 1" width="20.000000" height="20.000000" x="0.000000" y="0.000000" />
	<path id="矢量 198" d="M10.0003 18.3337C12.3015 18.3337 14.3848 17.4009 15.8929 15.8929C17.4009 14.3848 18.3337 12.3015 18.3337 10.0003C18.3337 7.69916 17.4009 5.61583 15.8929 4.10777C14.3848 2.59973 12.3015 1.66699 10.0003 1.66699C7.69916 1.66699 5.61583 2.59973 4.10777 4.10777C2.59973 5.61583 1.66699 7.69916 1.66699 10.0003C1.66699 12.3015 2.59973 14.3848 4.10777 15.8929C5.61583 17.4009 7.69916 18.3337 10.0003 18.3337Z" fill="rgb(247,181,1)" fill-rule="nonzero" />
	<path id="矢量 198" d="M15.8929 15.8929C17.4009 14.3848 18.3337 12.3015 18.3337 10.0003C18.3337 7.69916 17.4009 5.61583 15.8929 4.10777C14.3848 2.59973 12.3015 1.66699 10.0003 1.66699C7.69916 1.66699 5.61583 2.59973 4.10777 4.10777C2.59973 5.61583 1.66699 7.69916 1.66699 10.0003C1.66699 12.3015 2.59973 14.3848 4.10777 15.8929C5.61583 17.4009 7.69916 18.3337 10.0003 18.3337C12.3015 18.3337 14.3848 17.4009 15.8929 15.8929Z" fill-rule="nonzero" stroke="rgb(247,181,1)" stroke-linejoin="round" stroke-width="1.500000" />
	<path id="矢量 199" d="M9.99967 15.4163C10.575 15.4163 11.0413 14.95 11.0413 14.3747C11.0413 13.7994 10.575 13.333 9.99967 13.333C9.42438 13.333 8.95801 13.7994 8.95801 14.3747C8.95801 14.95 9.42438 15.4163 9.99967 15.4163Z" fill="rgb(255,254.745,255)" fill-rule="evenodd" />
	<path id="矢量 200" d="M10 5L10 11.6667" stroke="rgb(255,254.745,255)" stroke-linecap="round" stroke-linejoin="round" stroke-width="1.500000" />
</svg>
