<svg viewBox="0 0 20 20" xmlns="http://www.w3.org/2000/svg" xmlns:xlink="http://www.w3.org/1999/xlink" width="20.000000" height="20.000000" fill="none">
	<rect id="注意 1" width="20.000000" height="20.000000" x="0.000000" y="0.000000" />
	<path id="矢量 198" d="M9.99984 18.3346C12.301 18.3346 14.3843 17.4019 15.8924 15.8938C17.4004 14.3858 18.3332 12.3025 18.3332 10.0013C18.3332 7.70014 17.4004 5.6168 15.8924 4.10874C14.3843 2.60071 12.301 1.66797 9.99984 1.66797C7.69867 1.66797 5.61534 2.60071 4.10728 4.10874C2.59925 5.6168 1.6665 7.70014 1.6665 10.0013C1.6665 12.3025 2.59925 14.3858 4.10728 15.8938C5.61534 17.4019 7.69867 18.3346 9.99984 18.3346Z" fill="rgb(247,181,1)" fill-rule="nonzero" />
	<path id="矢量 198" d="M15.8924 15.8938C17.4004 14.3858 18.3332 12.3025 18.3332 10.0013C18.3332 7.70014 17.4004 5.6168 15.8924 4.10874C14.3843 2.60071 12.301 1.66797 9.99984 1.66797C7.69867 1.66797 5.61534 2.60071 4.10728 4.10874C2.59925 5.6168 1.6665 7.70014 1.6665 10.0013C1.6665 12.3025 2.59925 14.3858 4.10728 15.8938C5.61534 17.4019 7.69867 18.3346 9.99984 18.3346C12.301 18.3346 14.3843 17.4019 15.8924 15.8938Z" fill-rule="nonzero" stroke="rgb(247,181,1)" stroke-linejoin="round" stroke-width="1.500000" />
	<path id="矢量 199" d="M10.0002 15.4154C10.5755 15.4154 11.0418 14.949 11.0418 14.3737C11.0418 13.7984 10.5755 13.332 10.0002 13.332C9.42487 13.332 8.9585 13.7984 8.9585 14.3737C8.9585 14.949 9.42487 15.4154 10.0002 15.4154Z" fill="rgb(255,254.745,255)" fill-rule="evenodd" />
	<path id="矢量 200" d="M10 5L10 11.6667" stroke="rgb(255,254.745,255)" stroke-linecap="round" stroke-linejoin="round" stroke-width="1.500000" />
</svg>
