<svg viewBox="0 0 18 18" xmlns="http://www.w3.org/2000/svg" xmlns:xlink="http://www.w3.org/1999/xlink" width="18.000000" height="18.000000" fill="none">
	<rect id="预览 1" width="18.000000" height="18.000000" x="0.000000" y="0.000000" />
	<path id="矢量 363" d="M8.94088 5.12426C6.76625 5.12426 5.00338 6.88713 5.00338 9.06176C5.00338 11.2364 6.76625 12.9993 8.94088 12.9993C11.1155 12.9993 12.8784 11.2364 12.8784 9.06176C12.8784 6.88713 11.1155 5.12426 8.94088 5.12426ZM8.94088 11.8743C7.38725 11.8743 6.12838 10.6154 6.12838 9.06176C6.12838 7.50813 7.38725 6.24926 8.94088 6.24926C10.4945 6.24926 11.7534 7.50813 11.7534 9.06176C11.7534 10.6154 10.4945 11.8743 8.94088 11.8743ZM16.7405 7.08288C14.8359 4.50776 12.0481 2.87988 8.93525 2.87988C5.82238 2.87988 3.03575 4.50776 1.13113 7.08288C0.289625 8.22026 0.289625 9.91001 1.13113 11.0463C3.03575 13.6214 5.8235 15.2493 8.93638 15.2493C12.0493 15.2493 14.8359 13.6214 16.7416 11.0463C17.582 9.91001 17.582 8.22026 16.7405 7.08288ZM15.8945 10.1136C14.1283 12.6629 11.5846 14.1265 8.91613 14.1265C6.24988 14.1265 3.70625 12.6629 1.93888 10.1148C1.51813 9.50726 1.51813 8.62526 1.93888 8.01776C3.70625 5.46738 6.24988 4.00601 8.91613 4.00601C11.5846 4.00601 14.1283 5.46851 15.8945 8.01776C16.3153 8.62413 16.3153 9.50726 15.8945 10.1136Z" fill="rgb(54,98,255)" fill-rule="nonzero" />
</svg>
