<svg viewBox="0 0 20 20" xmlns="http://www.w3.org/2000/svg" xmlns:xlink="http://www.w3.org/1999/xlink" width="20.000000" height="20.000000" fill="none">
	<rect id="暂停 1" width="20.000000" height="20.000000" x="0.000000" y="0.000000" />
	<path id="矢量 203" d="M10.0003 18.3337C14.6027 18.3337 18.3337 14.6027 18.3337 10.0003C18.3337 5.39795 14.6027 1.66699 10.0003 1.66699C5.39795 1.66699 1.66699 5.39795 1.66699 10.0003C1.66699 14.6027 5.39795 18.3337 10.0003 18.3337Z" fill="rgb(54,98,255)" fill-rule="nonzero" />
	<path id="矢量 203" d="M18.3337 10.0003C18.3337 5.39795 14.6027 1.66699 10.0003 1.66699C5.39795 1.66699 1.66699 5.39795 1.66699 10.0003C1.66699 14.6027 5.39795 18.3337 10.0003 18.3337C14.6027 18.3337 18.3337 14.6027 18.3337 10.0003Z" fill-rule="nonzero" stroke="rgb(54,98,255)" stroke-linejoin="round" stroke-width="1.500000" />
	<path id="矢量 204" d="M7.91699 7.5L7.91699 12.5" stroke="rgb(255,255,255)" stroke-linecap="round" stroke-linejoin="round" stroke-width="1.500000" />
	<path id="矢量 205" d="M12.083 7.5L12.083 12.5" stroke="rgb(255,255,255)" stroke-linecap="round" stroke-linejoin="round" stroke-width="1.500000" />
</svg>
