<svg viewBox="0 0 60 60" xmlns="http://www.w3.org/2000/svg" xmlns:xlink="http://www.w3.org/1999/xlink" width="60.000000" height="60.000000" fill="none" customFrame="#000000">
	<rect id="图片" width="60.000000" height="60.000000" x="0.000488" y="0.000000" />
	<path id="Shape" d="M54.546 54.544L5.45508 54.544L5.45508 5.45312L54.546 5.45312L54.546 54.544ZM51.8187 51.8168L8.18235 51.8168L8.18235 8.1804L51.8187 8.1804L51.8187 51.8168ZM46.3642 20.4531C46.3642 22.7113 44.5342 24.544 42.2733 24.544C40.0124 24.544 38.1824 22.7113 38.1824 20.4531C38.1824 18.1949 40.0124 16.3622 42.2733 16.3622C44.5342 16.3622 46.3642 18.1949 46.3642 20.4531ZM42.0003 31.9082C41.4548 31.09 40.0912 31.09 39.5457 31.9082L35.4548 38.9991L25.6366 21.2719C25.0912 20.4537 23.7275 20.4537 23.1821 21.2719L10.9094 43.6355L49.0912 43.6355L42.0003 31.9082Z" fill="rgb(201,205,212)" fill-rule="evenodd" />
</svg>
