<svg width="22.000000" height="22.000000" viewBox="0 0 22 22" fill="none" xmlns="http://www.w3.org/2000/svg" xmlns:xlink="http://www.w3.org/1999/xlink">
  <desc>
    Created with Pixso.
  </desc>
  <defs>
    <clipPath id="clip68_1664">
      <rect id="文档添加" width="18.000000" height="18.000000" transform="translate(2.000000 2.000000)" fill="white" fill-opacity="0"/>
    </clipPath>
    <clipPath id="clip68_1665">
      <rect id="画板 56" width="22.000000" height="22.000000" fill="white" fill-opacity="0"/>
    </clipPath>
  </defs>
  <rect id="画板 56" width="22.000000" height="22.000000" fill="#FFFFFF" fill-opacity="0"/>
  <g clip-path="url(#clip68_1665)">
    <g clip-path="url(#clip68_1664)">
      <path id="path" d="M16.25 3.5L5.75 3.5C5.33 3.5 5 3.83 5 4.25L5 17.75C5 18.16 5.33 18.5 5.75 18.5L16.25 18.5C16.66 18.5 17 18.16 17 17.75L17 4.25C17 3.83 16.66 3.5 16.25 3.5Z" fill="#000000" fill-opacity="0" fill-rule="nonzero"/>
      <path id="path" d="M5.75 3.5C5.33 3.5 5 3.83 5 4.25L5 17.75C5 18.16 5.33 18.5 5.75 18.5L16.25 18.5C16.66 18.5 17 18.16 17 17.75L17 4.25C17 3.83 16.66 3.5 16.25 3.5L5.75 3.5Z" stroke="currentColor" stroke-opacity="1.000000" stroke-width="1.125000" stroke-linejoin="round"/>
      <path id="path" d="M8.39 13.79L8.37 13.81C8.06 13.81 7.81 13.56 7.81 13.25C7.81 12.93 8.06 12.68 8.37 12.68L8.39 12.7L8.39 13.79ZM13.6 12.7L13.62 12.68C13.93 12.68 14.18 12.93 14.18 13.25C14.18 13.56 13.93 13.81 13.62 13.81L13.6 13.79L13.6 12.7Z" fill="#000000" fill-opacity="0" fill-rule="nonzero"/>
      <path id="path" d="M8.37 13.25L13.62 13.25" stroke="currentColor" stroke-opacity="1.000000" stroke-width="1.125000" stroke-linejoin="round" stroke-linecap="round"/>
      <path id="path" d="M8.39 16.04L8.37 16.06C8.06 16.06 7.81 15.81 7.81 15.5C7.81 15.18 8.06 14.93 8.37 14.93L8.39 14.95L8.39 16.04ZM10.98 14.95L11 14.93C11.31 14.93 11.56 15.18 11.56 15.5C11.56 15.81 11.31 16.06 11 16.06L10.98 16.04L10.98 14.95Z" fill="#000000" fill-opacity="0" fill-rule="nonzero"/>
      <path id="path" d="M8.37 15.5L11 15.5" stroke="currentColor" stroke-opacity="1.000000" stroke-width="1.125000" stroke-linejoin="round" stroke-linecap="round"/>
      <path id="path" d="M9.14 8.91L9.12 8.93C8.81 8.93 8.56 8.68 8.56 8.37C8.56 8.06 8.81 7.81 9.12 7.81L9.14 7.83L9.14 8.91ZM12.85 7.83L12.87 7.81C13.18 7.81 13.43 8.06 13.43 8.37C13.43 8.68 13.18 8.93 12.87 8.93L12.85 8.91L12.85 7.83Z" fill="#000000" fill-opacity="0" fill-rule="nonzero"/>
      <path id="path" d="M9.12 8.37L12.87 8.37" stroke="currentColor" stroke-opacity="1.000000" stroke-width="1.125000" stroke-linejoin="round" stroke-linecap="round"/>
      <path id="path" d="M10.45 6.52L10.43 6.5C10.43 6.18 10.68 5.93 11 5.93C11.31 5.93 11.56 6.18 11.56 6.5L11.54 6.52L10.45 6.52ZM11.54 10.22L11.56 10.25C11.56 10.56 11.31 10.81 11 10.81C10.68 10.81 10.43 10.56 10.43 10.25L10.45 10.22L11.54 10.22Z" fill="#000000" fill-opacity="0" fill-rule="nonzero"/>
      <path id="path" d="M11 6.5L11 10.25" stroke="currentColor" stroke-opacity="1.000000" stroke-width="1.125000" stroke-linejoin="round" stroke-linecap="round"/>
    </g>
  </g>
</svg>
