<svg width="18" height="18" viewBox="0 0 18 18" fill="none" xmlns="http://www.w3.org/2000/svg">
<path d="M9 4.5C9.82841 4.5 10.5 3.82841 10.5 3C10.5 2.17157 9.82841 1.5 9 1.5C8.17159 1.5 7.5 2.17157 7.5 3C7.5 3.82841 8.17159 4.5 9 4.5Z" stroke="#3662FF" stroke-width="1.33333" stroke-linejoin="round"/>
<path d="M9 16.5C9.82841 16.5 10.5 15.8284 10.5 15C10.5 14.1716 9.82841 13.5 9 13.5C8.17159 13.5 7.5 14.1716 7.5 15C7.5 15.8284 8.17159 16.5 9 16.5Z" stroke="#3662FF" stroke-width="1.33333" stroke-linejoin="round"/>
<path d="M3 10.5C3.82841 10.5 4.5 9.82841 4.5 9C4.5 8.17159 3.82841 7.5 3 7.5C2.17157 7.5 1.5 8.17159 1.5 9C1.5 9.82841 2.17157 10.5 3 10.5Z" stroke="#3662FF" stroke-width="1.33333" stroke-linejoin="round"/>
<path d="M15 10.5C15.8284 10.5 16.5 9.82841 16.5 9C16.5 8.17159 15.8284 7.5 15 7.5C14.1716 7.5 13.5 8.17159 13.5 9C13.5 9.82841 14.1716 10.5 15 10.5Z" stroke="#3662FF" stroke-width="1.33333" stroke-linejoin="round"/>
<path d="M4.5 9H13.5" stroke="#3662FF" stroke-width="1.33333" stroke-linecap="round" stroke-linejoin="round"/>
<path d="M9 4.5V13.5" stroke="#3662FF" stroke-width="1.33333" stroke-linecap="round" stroke-linejoin="round"/>
<path d="M13.9895 5.66663C13.7705 5.33944 13.5201 5.03498 13.2427 4.75759C12.9653 4.48017 12.6608 4.22978 12.3336 4.01074M5.66645 4.01074C5.33926 4.22978 5.0348 4.48017 4.75741 4.75759C4.47998 5.03498 4.2296 5.33944 4.01056 5.66663L5.66645 4.01074ZM4.01056 12.3338C4.2296 12.661 4.47998 12.9654 4.75741 13.2429C5.0348 13.5203 5.33926 13.7706 5.66645 13.9897L4.01056 12.3338ZM12.3336 13.9897C12.6608 13.7706 12.9653 13.5203 13.2427 13.2429C13.5201 12.9654 13.7705 12.661 13.9895 12.3338L12.3336 13.9897Z" stroke="#3662FF" stroke-width="1.33333" stroke-linecap="round" stroke-linejoin="round"/>
</svg>
