<svg width="20.000000" height="20.000000" viewBox="0 0 20 20" fill="none" xmlns="http://www.w3.org/2000/svg" xmlns:xlink="http://www.w3.org/1999/xlink">
	<desc>
			Created with Pixso.
	</desc>
	<defs>
		<clipPath id="clip30_650">
			<rect id="加" width="20.000000" height="20.000000" fill="white" fill-opacity="0"/>
		</clipPath>
	</defs>
	<g clip-path="url(#clip30_650)">
		<path id="path" d="M10.73 15.81L10.75 15.83C10.75 16.25 10.42 16.58 10 16.58C9.58 16.58 9.25 16.25 9.25 15.83L9.27 15.81L10.73 15.81ZM9.29 4.18L9.27 4.16C9.27 3.74 9.6 3.41 10.02 3.41C10.44 3.41 10.77 3.74 10.77 4.16L10.75 4.18L9.29 4.18Z" fill="#000000" fill-opacity="0" fill-rule="nonzero"/>
		<path id="path" d="M10 15.83L10.02 4.16" stroke="currentColor" stroke-opacity="1.000000" stroke-width="1.500000" stroke-linejoin="round" stroke-linecap="round"/>
		<path id="path" d="M4.18 10.73L4.16 10.75C3.74 10.75 3.41 10.41 3.41 10C3.41 9.58 3.74 9.25 4.16 9.25L4.18 9.27L4.18 10.73ZM15.81 9.27L15.83 9.25C16.25 9.25 16.58 9.58 16.58 10C16.58 10.41 16.25 10.75 15.83 10.75L15.81 10.73L15.81 9.27Z" fill="#000000" fill-opacity="0" fill-rule="nonzero"/>
		<path id="path" d="M4.16 10L15.83 10" stroke="currentColor" stroke-opacity="1.000000" stroke-width="1.500000" stroke-linejoin="round" stroke-linecap="round"/>
	</g>
</svg>
