<svg viewBox="0 0 32 32" xmlns="http://www.w3.org/2000/svg" xmlns:xlink="http://www.w3.org/1999/xlink" width="32" height="32" fill="none">
	<defs>
		<g id="pixso_custom_effect_0">
			<effect visibility="visible" effectType="gaussianBlur" stdDeviation="1.5" />
		</g>
		<filter id="filter_0" width="27.5" height="24.5" x="2.25" y="4.25" filterUnits="userSpaceOnUse" customEffect="url(#pixso_custom_effect_0)" color-interpolation-filters="sRGB">
			<feFlood flood-opacity="0" result="BackgroundImageFix" />
			<feBlend result="shape" in="SourceGraphic" in2="BackgroundImageFix" mode="normal" />
			<feGaussianBlur stdDeviation="0.5" result="effect_layerBlur_1" />
		</filter>
		<linearGradient id="paint_linear_0" x1="16" x2="16" y1="6" y2="27" gradientUnits="userSpaceOnUse">
			<stop stop-color="rgb(87,69,255)" offset="0" stop-opacity="1" />
			<stop stop-color="rgb(149,104,253)" offset="0.996585846" stop-opacity="1" />
		</linearGradient>
		<linearGradient id="paint_linear_1" x1="16" x2="16" y1="6" y2="27" gradientUnits="userSpaceOnUse">
			<stop stop-color="rgb(109,84,253)" offset="0.0132797388" stop-opacity="1" />
			<stop stop-color="rgb(112,173,255)" offset="1" stop-opacity="1" />
		</linearGradient>
		<linearGradient id="paint_linear_2" x1="16" x2="16" y1="5" y2="28" gradientUnits="userSpaceOnUse">
			<stop stop-color="rgb(73,55,249)" offset="0.00421940908" stop-opacity="1" />
			<stop stop-color="rgb(198,59,255)" offset="0.996585846" stop-opacity="1" />
		</linearGradient>
		<linearGradient id="paint_linear_3" x1="16" x2="16" y1="5" y2="28" gradientUnits="userSpaceOnUse">
			<stop stop-color="rgb(56,22,254)" offset="0.0132797388" stop-opacity="1" />
			<stop stop-color="rgb(162,86,252)" offset="1" stop-opacity="1" />
		</linearGradient>
		<linearGradient id="paint_linear_4" x1="25.0625" x2="16.0000038" y1="26" y2="15.9999971" gradientUnits="userSpaceOnUse">
			<stop stop-color="rgb(210,30,255)" offset="0" stop-opacity="1" />
			<stop stop-color="rgb(57,37,255)" offset="0.55907172" stop-opacity="1" />
			<stop stop-color="rgb(106,190,255)" offset="0.974683523" stop-opacity="1" />
		</linearGradient>
		<linearGradient id="paint_linear_5" x1="21" x2="21" y1="16" y2="26" gradientUnits="userSpaceOnUse">
			<stop stop-color="rgb(237,247,255)" offset="0" stop-opacity="1" />
			<stop stop-color="rgb(255,255,255)" offset="0.530040681" stop-opacity="1" />
			<stop stop-color="rgb(255,255,255)" offset="0.902415037" stop-opacity="1" />
			<stop stop-color="rgb(238,234,255)" offset="0.996308446" stop-opacity="1" />
		</linearGradient>
		<clipPath id="clipPath_0">
			<rect width="10" height="10" x="16" y="16" rx="4.8499999" fill="rgb(255,255,255)" />
		</clipPath>
		<linearGradient id="paint_linear_6" x1="21" x2="21" y1="18" y2="24" gradientUnits="userSpaceOnUse">
			<stop stop-color="rgb(245.264,248.227,255)" offset="0" stop-opacity="1" />
			<stop stop-color="rgb(255,255,255)" offset="1" stop-opacity="1" />
		</linearGradient>
	</defs>
	<rect id="默认知识库" width="32" height="32" x="0" y="0" />
	<g id="组合 323">
		<rect id="矩形 224" width="23" height="19" x="4" y="6" rx="2" fill="rgb(250,242,255)" />
		<rect id="矩形 224" width="22.7000008" height="18.7000008" x="4.1500001" y="6.1500001" rx="2" stroke="rgb(238,233,252)" stroke-width="0.300000012" />
		<g filter="url(#filter_0)">
			<path id="path" d="M4 7.16667C4 6.52233 4.56553 6 5.26316 6L10.4851 6C11.9856 6 13.4159 6.63591 14.4211 7.75C15.4262 8.86409 16.8565 9.5 18.357 9.5L26.7368 9.5C27.4345 9.5 28 10.0223 28 10.6667L28 25.8333C28 26.4777 27.4345 27 26.7368 27L5.26316 27C4.56553 27 4 26.4777 4 25.8333L4 7.16667Z" fill="url(#paint_linear_0)" fill-rule="nonzero" />
			<path id="path" d="M5.26316 6L10.4851 6C11.9856 6 13.4159 6.63591 14.4211 7.75C15.4262 8.86409 16.8565 9.5 18.357 9.5L26.7368 9.5C27.4345 9.5 28 10.0223 28 10.6667L28 25.8333C28 26.4777 27.4345 27 26.7368 27L5.26316 27C4.56553 27 4 26.4777 4 25.8333L4 7.16667C4 6.52233 4.56553 6 5.26316 6Z" fill-rule="nonzero" stroke="url(#paint_linear_1)" stroke-linejoin="round" stroke-width="0.5" />
		</g>
		<path id="path" d="M3 6.27778C3 5.57208 3.61266 5 4.36842 5L11.9071 5C12.3346 5 12.7417 5.18234 13.0263 5.50123L15.8509 8.66626C15.9458 8.77255 16.0815 8.83333 16.2239 8.83333L27.6316 8.83333C28.3874 8.83333 29 9.40539 29 10.1111L29 26.7222C29 27.4279 28.3874 28 27.6316 28L4.36842 28C3.61266 28 3 27.4279 3 26.7222L3 6.27778Z" opacity="0.540000021" fill="url(#paint_linear_2)" fill-rule="nonzero" />
		<path id="path" d="M4.36842 5L11.9071 5C12.3346 5 12.7417 5.18234 13.0263 5.50123L15.8509 8.66626C15.9458 8.77255 16.0815 8.83333 16.2239 8.83333L27.6316 8.83333C28.3874 8.83333 29 9.40539 29 10.1111L29 26.7222C29 27.4279 28.3874 28 27.6316 28L4.36842 28C3.61266 28 3 27.4279 3 26.7222L3 6.27778C3 5.57208 3.61266 5 4.36842 5Z" opacity="0.540000021" fill-rule="nonzero" stroke="url(#paint_linear_3)" stroke-linejoin="round" stroke-width="0.5" />
		<g id="实例 3" customFrame="url(#clipPath_0)">
			<rect id="实例 3" width="10" height="10" x="16" y="16" rx="4.8499999" fill="url(#paint_linear_4)" />
			<rect id="实例 3" width="9.69999981" height="9.69999981" x="16.1499996" y="16.1499996" rx="4.8499999" stroke="url(#paint_linear_5)" stroke-opacity="0.360000014" stroke-width="0.300000012" />
			<path id="矢量 210" d="M23.5051 21C23.5363 20.9629 23.5665 20.9258 23.5951 20.8885C24.0083 20.3524 24.1093 19.8593 23.8794 19.5C23.6495 19.1407 23.1258 18.9731 22.4045 19.0278C22.3545 19.0316 22.3037 19.0366 22.2525 19.0425C22.2326 18.9995 22.212 18.9574 22.1906 18.9164C21.8826 18.3254 21.4598 18 21 18C20.5402 18 20.1174 18.3254 19.8094 18.9164C19.788 18.9574 19.7674 18.9995 19.7475 19.0425C19.6963 19.0366 19.6455 19.0317 19.5954 19.0278C18.8743 18.973 18.3505 19.1407 18.1206 19.5C17.8907 19.8593 17.9917 20.3524 18.4048 20.8885C18.4335 20.9258 18.4637 20.9629 18.4949 21C18.4637 21.0371 18.4335 21.0742 18.4048 21.1115C17.9917 21.6476 17.8907 22.1407 18.1206 22.5C18.3219 22.8146 18.7487 22.9823 19.336 22.9823C19.4193 22.9823 19.5059 22.9789 19.5954 22.9722C19.6455 22.9683 19.6963 22.9634 19.7475 22.9575C19.7674 23.0004 19.788 23.0426 19.8094 23.0836C20.1174 23.6746 20.5402 24 21 24C21.4598 24 21.8826 23.6746 22.1906 23.0836C22.212 23.0426 22.2326 23.0004 22.2526 22.9575C22.3037 22.9634 22.3545 22.9683 22.4045 22.9722C22.4942 22.979 22.5807 22.9823 22.664 22.9823C23.2513 22.9823 23.6781 22.8146 23.8794 22.5C24.1093 22.1407 24.0083 21.6476 23.5952 21.1115C23.5665 21.0742 23.5363 21.0371 23.5051 21ZM22.4295 19.2948C23.0208 19.2498 23.4556 19.3734 23.6223 19.6339C23.789 19.8944 23.6902 20.296 23.3514 20.7356C23.3383 20.7527 23.3247 20.7698 23.3109 20.7869C23.1034 20.5754 22.8572 20.3695 22.5812 20.1763C22.5337 19.864 22.4593 19.5687 22.36 19.3008C22.3833 19.2985 22.4065 19.2965 22.4295 19.2948ZM21.6727 22.0513C21.45 22.1673 21.2244 22.2696 21 22.3571C20.7756 22.2696 20.55 22.1673 20.3273 22.0513C20.1046 21.9353 19.8936 21.8102 19.6974 21.6786C19.6692 21.4595 19.6546 21.232 19.6546 21C19.6546 20.768 19.6692 20.5405 19.6974 20.3214C19.8936 20.1898 20.1046 20.0647 20.3273 19.9487C20.55 19.8327 20.7756 19.7303 21 19.6429C21.2244 19.7303 21.45 19.8327 21.6727 19.9487C21.8954 20.0647 22.1064 20.1898 22.3026 20.3214C22.3308 20.5405 22.3454 20.768 22.3454 21C22.3454 21.232 22.3308 21.4595 22.3026 21.6786C22.1064 21.8102 21.8954 21.9353 21.6727 22.0513ZM22.2406 22.0464C22.195 22.2637 22.1351 22.4694 22.0617 22.6592C21.8428 22.6217 21.6154 22.5656 21.3841 22.4926C21.5304 22.4285 21.6764 22.3586 21.8211 22.2832C21.9658 22.2079 22.1058 22.1287 22.2406 22.0464ZM20.6159 22.4926C20.3846 22.5656 20.1572 22.6217 19.9383 22.6592C19.8649 22.4694 19.805 22.2637 19.7594 22.0464C19.8942 22.1287 20.0342 22.2079 20.1789 22.2832C20.3235 22.3586 20.4696 22.4285 20.6159 22.4926ZM19.3754 21.4462C19.1896 21.3019 19.0221 21.1523 18.8767 21C19.0221 20.8477 19.1896 20.698 19.3754 20.5538C19.3637 20.7002 19.3578 20.8493 19.3578 21C19.3578 21.1507 19.3637 21.2997 19.3754 21.4462ZM19.7594 19.9536C19.805 19.7363 19.8649 19.5305 19.9383 19.3408C20.1572 19.3783 20.3846 19.4344 20.6159 19.5074C20.4696 19.5715 20.3235 19.6414 20.1789 19.7167C20.0342 19.7921 19.8942 19.8713 19.7594 19.9536ZM21.3841 19.5074C21.6154 19.4344 21.8428 19.3783 22.0617 19.3408C22.1351 19.5305 22.195 19.7363 22.2406 19.9536C22.1058 19.8713 21.9658 19.7921 21.8211 19.7167C21.6765 19.6414 21.5304 19.5715 21.3841 19.5074ZM22.6246 20.5538C22.8104 20.698 22.9779 20.8477 23.1233 21C22.9779 21.1522 22.8104 21.3019 22.6246 21.4462C22.6363 21.2997 22.6422 21.1507 22.6422 21C22.6422 20.8493 22.6363 20.7002 22.6246 20.5538ZM20.078 19.0304C20.3306 18.5458 20.6666 18.2679 21 18.2679C21.3333 18.2679 21.6694 18.5458 21.922 19.0304C21.9318 19.0492 21.9414 19.0684 21.9509 19.0876C21.6441 19.144 21.3234 19.2335 21 19.3526C20.6765 19.2335 20.3559 19.144 20.0491 19.0876C20.0586 19.0683 20.0682 19.0492 20.078 19.0304ZM18.6486 20.7356C18.3097 20.296 18.211 19.8944 18.3777 19.6339C18.5219 19.4086 18.8666 19.2857 19.3398 19.2857C19.4137 19.2857 19.4907 19.2887 19.5705 19.2947C19.5935 19.2965 19.6167 19.2985 19.64 19.3008C19.5407 19.5687 19.4663 19.864 19.4188 20.1763C19.1428 20.3695 18.8966 20.5753 18.6891 20.7869C18.6753 20.7698 18.6617 20.7527 18.6486 20.7356ZM19.5705 22.7052C18.9792 22.7502 18.5444 22.6265 18.3777 22.3661C18.211 22.1056 18.3097 21.704 18.6486 21.2644C18.6617 21.2473 18.6753 21.2302 18.6891 21.2131C18.8966 21.4246 19.1428 21.6305 19.4188 21.8237C19.4663 22.136 19.5407 22.4313 19.64 22.6992C19.6167 22.7014 19.5935 22.7035 19.5705 22.7052ZM21.922 22.9696C21.6694 23.4542 21.3333 23.7321 21 23.7321C20.6667 23.7321 20.3306 23.4542 20.078 22.9696C20.0682 22.9508 20.0586 22.9316 20.0491 22.9123C20.3559 22.856 20.6765 22.7664 21 22.6474C21.3235 22.7664 21.6441 22.8559 21.9509 22.9123C21.9414 22.9316 21.9318 22.9508 21.922 22.9696ZM23.6223 22.3661C23.4556 22.6265 23.0208 22.7502 22.4295 22.7052C22.4065 22.7035 22.3833 22.7014 22.36 22.6992C22.4593 22.4313 22.5337 22.136 22.5812 21.8237C22.8572 21.6305 23.1034 21.4246 23.3109 21.2131C23.3247 21.2302 23.3382 21.2473 23.3514 21.2644C23.6902 21.704 23.789 22.1056 23.6223 22.3661Z" fill="url(#paint_linear_6)" fill-rule="nonzero" />
		</g>
	</g>
</svg>
