<svg width="32.000000" height="32.000000" viewBox="0 0 32 32" fill="none" xmlns="http://www.w3.org/2000/svg" xmlns:xlink="http://www.w3.org/1999/xlink">
	<desc>
			Created with Pixso.
	</desc>
	<defs>
		<clipPath id="clip676_16763">
			<rect id="代码文件夹" width="32.000000" height="32.000000" fill="white" fill-opacity="0"/>
		</clipPath>
		<linearGradient x1="15.999675" y1="4.000000" x2="15.999675" y2="28.000000" id="paint_linear_657_14098_0" gradientUnits="userSpaceOnUse">
			<stop stop-color="#FFDAA2"/>
			<stop offset="0.992366" stop-color="#FDA354"/>
		</linearGradient>
		<linearGradient x1="15.999675" y1="4.000000" x2="15.999675" y2="28.000000" id="paint_linear_657_14098_1" gradientUnits="userSpaceOnUse">
			<stop offset="0.009060" stop-color="#FFB776"/>
			<stop offset="1.000000" stop-color="#FFCE8F"/>
		</linearGradient>
	</defs>
	<g clip-path="url(#clip676_16763)">
		<path id="path" d="M3.33 5.33C3.33 4.59 3.92 4 4.66 4L12.66 4L16 8L27.33 8C28.06 8 28.66 8.59 28.66 9.33L28.66 26.66C28.66 27.4 28.06 28 27.33 28L4.66 28C3.92 28 3.33 27.4 3.33 26.66L3.33 5.33Z" fill="url(#paint_linear_657_14098_0)" fill-opacity="1.000000" fill-rule="nonzero"/>
		<path id="path" d="M4.66 4L12.66 4L16 8L27.33 8C28.06 8 28.66 8.59 28.66 9.33L28.66 26.66C28.66 27.4 28.06 28 27.33 28L4.66 28C3.92 28 3.33 27.4 3.33 26.66L3.33 5.33C3.33 4.59 3.92 4 4.66 4Z" stroke="url(#paint_linear_657_14098_1)" stroke-opacity="1.000000" stroke-width="0.500000" stroke-linejoin="round"/>
	</g>
</svg>
