<svg viewBox="0 0 32 32" xmlns="http://www.w3.org/2000/svg" xmlns:xlink="http://www.w3.org/1999/xlink" width="32.000000" height="32.000000" fill="none">
	<defs>
		<g id="pixso_custom_effect_2">
			<effect visibility="visible" effectType="gaussianBlur" stdDeviation="1.5" />
		</g>
		<filter id="filter_2" width="27.500000" height="24.500000" x="2.250000" y="4.250000" filterUnits="userSpaceOnUse" customEffect="url(#pixso_custom_effect_2)" color-interpolation-filters="sRGB">
			<feFlood flood-opacity="0" result="BackgroundImageFix" />
			<feBlend result="shape" in="SourceGraphic" in2="BackgroundImageFix" mode="normal" />
			<feGaussianBlur stdDeviation="0.5" result="effect_layerBlur_1" />
		</filter>
		<linearGradient id="paint_linear_14" x1="16" x2="16" y1="6" y2="27" gradientUnits="userSpaceOnUse">
			<stop stop-color="rgb(224,245,253)" offset="0" stop-opacity="1" />
			<stop stop-color="rgb(17,143,255)" offset="0.996585846" stop-opacity="1" />
		</linearGradient>
		<linearGradient id="paint_linear_15" x1="16" x2="16" y1="6" y2="27" gradientUnits="userSpaceOnUse">
			<stop stop-color="rgb(73,186,255)" offset="0.0126582272" stop-opacity="1" />
			<stop stop-color="rgb(123,197,255)" offset="1" stop-opacity="1" />
		</linearGradient>
		<linearGradient id="paint_linear_16" x1="16" x2="16" y1="5" y2="28" gradientUnits="userSpaceOnUse">
			<stop stop-color="rgb(173,239,255)" offset="0" stop-opacity="1" />
			<stop stop-color="rgb(154,223,255)" offset="0.996585846" stop-opacity="1" />
		</linearGradient>
		<linearGradient id="paint_linear_17" x1="16" x2="16" y1="5" y2="28" gradientUnits="userSpaceOnUse">
			<stop stop-color="rgb(73,186,255)" offset="0.0126582272" stop-opacity="1" />
			<stop stop-color="rgb(123,197,255)" offset="1" stop-opacity="1" />
		</linearGradient>
	</defs>
	<rect id="自己/他人创建-公开" width="32.000000" height="32.000000" x="0.000000" y="0.000000" />
	<g id="组合 323">
		<rect id="矩形 224" width="23.000000" height="19.000000" x="4.000000" y="6.000000" rx="2.000000" fill="rgb(237,249,255)" />
		<rect id="矩形 224" width="22.700001" height="18.700001" x="4.150000" y="6.150000" rx="1.850000" stroke="rgb(233,242,252)" stroke-width="0.300000" />
		<g filter="url(#filter_2)">
			<path id="path" d="M4 7.16667C4 6.52233 4.56553 6 5.26316 6L10.4851 6C11.9856 6 13.4159 6.63591 14.4211 7.75C15.4262 8.86409 16.8565 9.5 18.357 9.5L26.7368 9.5C27.4345 9.5 28 10.0223 28 10.6667L28 25.8333C28 26.4777 27.4345 27 26.7368 27L5.26316 27C4.56553 27 4 26.4777 4 25.8333L4 7.16667Z" fill="url(#paint_linear_14)" fill-rule="nonzero" />
			<path id="path" d="M5.26316 6L10.4851 6C11.9856 6 13.4159 6.63591 14.4211 7.75C15.4262 8.86409 16.8565 9.5 18.357 9.5L26.7368 9.5C27.4345 9.5 28 10.0223 28 10.6667L28 25.8333C28 26.4777 27.4345 27 26.7368 27L5.26316 27C4.56553 27 4 26.4777 4 25.8333L4 7.16667C4 6.52233 4.56553 6 5.26316 6Z" fill-rule="nonzero" stroke="url(#paint_linear_15)" stroke-linejoin="round" stroke-width="0.500000" />
		</g>
		<path id="path" d="M3 6.27778C3 5.57208 3.61266 5 4.36842 5L11.9071 5C12.3346 5 12.7417 5.18234 13.0263 5.50123L15.8509 8.66626C15.9458 8.77255 16.0815 8.83333 16.2239 8.83333L27.6316 8.83333C28.3874 8.83333 29 9.40539 29 10.1111L29 26.7222C29 27.4279 28.3874 28 27.6316 28L4.36842 28C3.61266 28 3 27.4279 3 26.7222L3 6.27778Z" opacity="0.540000021" fill="url(#paint_linear_16)" fill-rule="nonzero" />
		<path id="path" d="M4.36842 5L11.9071 5C12.3346 5 12.7417 5.18234 13.0263 5.50123L15.8509 8.66626C15.9458 8.77255 16.0815 8.83333 16.2239 8.83333L27.6316 8.83333C28.3874 8.83333 29 9.40539 29 10.1111L29 26.7222C29 27.4279 28.3874 28 27.6316 28L4.36842 28C3.61266 28 3 27.4279 3 26.7222L3 6.27778C3 5.57208 3.61266 5 4.36842 5Z" opacity="0.540000021" fill-rule="nonzero" stroke="url(#paint_linear_17)" stroke-linejoin="round" stroke-width="0.500000" />
	</g>
</svg>
