<svg width="12.000000" height="12.000000" viewBox="0 0 12 12" fill="none" xmlns="http://www.w3.org/2000/svg" xmlns:xlink="http://www.w3.org/1999/xlink">
	<desc>
			Created with Pixso.
	</desc>
	<defs>
		<clipPath id="clip186_1135">
			<rect id="删除" width="12.000000" height="12.000000" fill="white" fill-opacity="0"/>
		</clipPath>
	</defs>
	<g clip-path="url(#clip186_1135)">
		<path id="path" d="M2.25 2.5L2.25 11L9.75 11L9.75 2.5L2.25 2.5Z" fill="#000000" fill-opacity="0" fill-rule="nonzero"/>
		<path id="path" d="M2.25 11L9.75 11L9.75 2.5L2.25 2.5L2.25 11Z" stroke="#FF5656" stroke-opacity="1.000000" stroke-width="1.000000" stroke-linejoin="round"/>
		<path id="path" d="M4.52 5.02L4.5 5C4.5 4.71 4.71 4.5 5 4.5C5.28 4.5 5.5 4.71 5.5 5L5.47 5.02L4.52 5.02ZM5.47 8.22L5.5 8.25C5.5 8.53 5.28 8.75 5 8.75C4.71 8.75 4.5 8.53 4.5 8.25L4.52 8.22L5.47 8.22Z" fill="#000000" fill-opacity="0" fill-rule="nonzero"/>
		<path id="path" d="M5 5L5 8.25" stroke="#FF5656" stroke-opacity="1.000000" stroke-width="1.000000" stroke-linejoin="round" stroke-linecap="round"/>
		<path id="path" d="M6.52 5.02L6.5 5C6.5 4.71 6.71 4.5 7 4.5C7.28 4.5 7.5 4.71 7.5 5L7.47 5.02L6.52 5.02ZM7.47 8.22L7.5 8.25C7.5 8.53 7.28 8.75 7 8.75C6.71 8.75 6.5 8.53 6.5 8.25L6.52 8.22L7.47 8.22Z" fill="#000000" fill-opacity="0" fill-rule="nonzero"/>
		<path id="path" d="M7 5L7 8.25" stroke="#FF5656" stroke-opacity="1.000000" stroke-width="1.000000" stroke-linejoin="round" stroke-linecap="round"/>
		<path id="path" d="M1.02 2.97L1 3C0.71 3 0.5 2.78 0.5 2.5C0.5 2.21 0.71 2 1 2L1.02 2.02L1.02 2.97ZM10.98 2.02L11 2C11.28 2 11.5 2.21 11.5 2.5C11.5 2.78 11.28 3 11 3L10.98 2.97L10.98 2.02Z" fill="#000000" fill-opacity="0" fill-rule="nonzero"/>
		<path id="path" d="M1 2.5L11 2.5" stroke="#FF5656" stroke-opacity="1.000000" stroke-width="1.000000" stroke-linejoin="round" stroke-linecap="round"/>
		<path id="path" d="M4 2.5L4.82 1L7.19 1L8 2.5L4 2.5Z" fill="#000000" fill-opacity="0" fill-rule="nonzero"/>
		<path id="path" d="M4.82 1L7.19 1L8 2.5L4 2.5L4.82 1Z" stroke="#FF5656" stroke-opacity="1.000000" stroke-width="1.000000" stroke-linejoin="round"/>
	</g>
</svg>
