<svg width="22.000000" height="22.000000" viewBox="0 0 22 22" fill="none" xmlns="http://www.w3.org/2000/svg" xmlns:xlink="http://www.w3.org/1999/xlink">
  <desc>
    Created with Pixso.
  </desc>
  <defs>
    <clipPath id="clip187_339">
      <rect id="首页" width="22.000000" height="22.000000" fill="white" fill-opacity="0"/>
    </clipPath>
  </defs>
  <g clip-path="url(#clip187_339)">
    <path id="path" d="M4.12 7.33L4.12 18.33L17.87 18.33L17.87 7.33L11 3.66L4.12 7.33Z" fill="#000000" fill-opacity="0" fill-rule="nonzero"/>
    <path id="path" d="M4.12 18.33L17.87 18.33L17.87 7.33L11 3.66L4.12 7.33L4.12 18.33Z" stroke="currentColor" stroke-opacity="1.000000" stroke-width="1.130000" stroke-linejoin="round"/>
    <path id="path" d="M8.7 12.37L8.7 18.33L13.29 18.33L13.29 12.37L8.7 12.37Z" fill="#000000" fill-opacity="0" fill-rule="nonzero"/>
    <path id="path" d="M8.7 18.33L13.29 18.33L13.29 12.37L8.7 12.37L8.7 18.33Z" stroke="currentColor" stroke-opacity="1.000000" stroke-width="1.130000" stroke-linejoin="round"/>
    <path id="path" d="M4.14 18.87L4.12 18.89C3.8 18.89 3.56 18.64 3.56 18.33C3.56 18.01 3.8 17.76 4.12 17.76L4.14 17.78L4.14 18.87ZM17.85 17.78L17.87 17.76C18.19 17.76 18.43 18.01 18.43 18.33C18.43 18.64 18.19 18.89 17.87 18.89L17.85 18.87L17.85 17.78Z" fill="#000000" fill-opacity="0" fill-rule="nonzero"/>
    <path id="path" d="M4.12 18.33L17.87 18.33" stroke="currentColor" stroke-opacity="1.000000" stroke-width="1.130000" stroke-linecap="round"/>
  </g>
</svg>
