<svg width="22.000000" height="22.000000" viewBox="0 0 22 22" fill="none" xmlns="http://www.w3.org/2000/svg" xmlns:xlink="http://www.w3.org/1999/xlink">
  <desc>
    Created with Pixso.
  </desc>
  <defs>
    <clipPath id="clip68_1655">
      <rect id="销售" width="18.000000" height="18.000000" transform="translate(2.000000 2.000000)" fill="white" fill-opacity="0"/>
    </clipPath>
    <clipPath id="clip68_1656">
      <rect id="画板 55" width="22.000000" height="22.000000" fill="white" fill-opacity="0"/>
    </clipPath>
  </defs>
  <rect id="画板 55" width="22.000000" height="22.000000" fill="#FFFFFF" fill-opacity="0"/>
  <g clip-path="url(#clip68_1656)">
    <g clip-path="url(#clip68_1655)">
      <path id="path" d="M17.37 7.25L11 3.5L4.62 7.25L4.62 14.75L11 18.5L17.37 14.75L17.37 7.25Z" fill="#000000" fill-opacity="0" fill-rule="nonzero"/>
      <path id="path" d="M11 3.5L4.62 7.25L4.62 14.75L11 18.5L17.37 14.75L17.37 7.25L11 3.5Z" stroke="currentColor" stroke-opacity="1.000000" stroke-width="1.125000" stroke-linejoin="round"/>
      <path id="path" d="M10.45 10.27L10.43 10.25C10.43 9.93 10.68 9.68 11 9.68C11.31 9.68 11.56 9.93 11.56 10.25L11.54 10.27L10.45 10.27ZM11.54 13.23L11.56 13.25C11.56 13.56 11.31 13.81 11 13.81C10.68 13.81 10.43 13.56 10.43 13.25L10.45 13.23L11.54 13.23Z" fill="#000000" fill-opacity="0" fill-rule="nonzero"/>
      <path id="path" d="M11 10.25L11 13.25" stroke="currentColor" stroke-opacity="1.000000" stroke-width="1.125000" stroke-linejoin="round" stroke-linecap="round"/>
      <path id="path" d="M13.45 8.77L13.43 8.75C13.43 8.43 13.68 8.18 14 8.18C14.31 8.18 14.56 8.43 14.56 8.75L14.54 8.77L13.45 8.77ZM14.54 13.23L14.56 13.25C14.56 13.56 14.31 13.81 14 13.81C13.68 13.81 13.43 13.56 13.43 13.25L13.45 13.23L14.54 13.23Z" fill="#000000" fill-opacity="0" fill-rule="nonzero"/>
      <path id="path" d="M14 8.75L14 13.25" stroke="currentColor" stroke-opacity="1.000000" stroke-width="1.125000" stroke-linejoin="round" stroke-linecap="round"/>
      <path id="path" d="M7.45 11.77L7.43 11.75C7.43 11.43 7.68 11.18 8 11.18C8.31 11.18 8.56 11.43 8.56 11.75L8.54 11.77L7.45 11.77ZM8.54 13.23L8.56 13.25C8.56 13.56 8.31 13.81 8 13.81C7.68 13.81 7.43 13.56 7.43 13.25L7.45 13.23L8.54 13.23Z" fill="#000000" fill-opacity="0" fill-rule="nonzero"/>
      <path id="path" d="M8 11.75L8 13.25" stroke="currentColor" stroke-opacity="1.000000" stroke-width="1.125000" stroke-linejoin="round" stroke-linecap="round"/>
    </g>
  </g>
</svg>
