<svg width="22.000000" height="22.000000" viewBox="0 0 22 22" fill="none" xmlns="http://www.w3.org/2000/svg" xmlns:xlink="http://www.w3.org/1999/xlink">
  <desc>
    Created with Pixso.
  </desc>
  <defs>
    <clipPath id="clip68_1682">
      <rect id="检测" width="18.000000" height="18.000000" transform="translate(2.000000 2.000000)" fill="white" fill-opacity="0"/>
    </clipPath>
    <clipPath id="clip68_1683">
      <rect id="画板 58" width="22.000000" height="22.000000" fill="white" fill-opacity="0"/>
    </clipPath>
  </defs>
  <rect id="画板 58" width="22.000000" height="22.000000" fill="#FFFFFF" fill-opacity="0"/>
  <g clip-path="url(#clip68_1683)">
    <g clip-path="url(#clip68_1682)">
      <path id="path" d="M4.41 15.06L5.91 13.81L6.1 11.61L9.09 9.1L12.39 6.33L13.58 5.33C14.74 4.36 16.46 4.51 17.44 5.67C18.41 6.82 18.26 8.55 17.1 9.52L15.9 10.52L12.61 13.29L9.62 15.8L7.42 15.6L5.92 16.86C5.43 17.28 4.69 17.21 4.27 16.71C3.85 16.22 3.92 15.48 4.41 15.06Z" fill="#000000" fill-opacity="0" fill-rule="evenodd"/>
      <path id="path" d="M5.91 13.81L6.1 11.61L9.09 9.1L12.39 6.33L13.58 5.33C14.74 4.36 16.46 4.51 17.44 5.67C18.41 6.82 18.26 8.55 17.1 9.52L15.9 10.52L12.61 13.29L9.62 15.8L7.42 15.6L5.92 16.86C5.43 17.28 4.69 17.21 4.27 16.71C3.85 16.22 3.92 15.48 4.41 15.06L5.91 13.81Z" stroke="currentColor" stroke-opacity="1.000000" stroke-width="1.125000" stroke-linejoin="round"/>
      <path id="path" d="M10.38 6L10.35 6C10.15 5.76 10.18 5.41 10.42 5.21C10.66 5.01 11.01 5.04 11.21 5.28L11.21 5.31L10.38 6ZM16.73 11.88L16.75 11.88C16.96 12.12 16.93 12.47 16.68 12.67C16.44 12.87 16.09 12.84 15.89 12.6L15.89 12.57L16.73 11.88Z" fill="#000000" fill-opacity="0" fill-rule="nonzero"/>
      <path id="path" d="M10.78 5.64L16.32 12.24" stroke="currentColor" stroke-opacity="1.000000" stroke-width="1.125000" stroke-linecap="round"/>
      <path id="path" d="M9.33 13.27L9.33 13.29C9.09 13.5 8.74 13.48 8.54 13.24C8.33 13 8.35 12.65 8.59 12.45L8.62 12.45L9.33 13.27ZM10.74 10.6L10.74 10.57C10.98 10.36 11.32 10.39 11.53 10.62C11.74 10.86 11.72 11.21 11.48 11.42L11.45 11.42L10.74 10.6Z" fill="#000000" fill-opacity="0" fill-rule="nonzero"/>
      <path id="path" d="M8.96 12.87L11.11 11" stroke="currentColor" stroke-opacity="1.000000" stroke-width="1.125000" stroke-linecap="round"/>
    </g>
  </g>
</svg>
