<svg width="22.000000" height="22.000000" viewBox="0 0 22 22" fill="none" xmlns="http://www.w3.org/2000/svg" xmlns:xlink="http://www.w3.org/1999/xlink">
  <desc>
    Created with Pixso.
  </desc>
  <defs>
    <clipPath id="clip68_1675">
      <rect id="核磁共振" width="18.000000" height="18.000000" transform="translate(2.000000 2.000000)" fill="white" fill-opacity="0"/>
    </clipPath>
    <clipPath id="clip68_1676">
      <rect id="画板 57" width="22.000000" height="22.000000" fill="white" fill-opacity="0"/>
    </clipPath>
  </defs>
  <rect id="画板 57" width="22.000000" height="22.000000" fill="#FFFFFF" fill-opacity="0"/>
  <g clip-path="url(#clip68_1676)">
    <g clip-path="url(#clip68_1675)">
      <path id="path" d="M11 18.5C15.14 18.5 18.5 15.14 18.5 11C18.5 6.85 15.14 3.5 11 3.5C6.85 3.5 3.5 6.85 3.5 11C3.5 15.14 6.85 18.5 11 18.5Z" fill="#000000" fill-opacity="0" fill-rule="nonzero"/>
      <path id="path" d="M18.5 11C18.5 6.85 15.14 3.5 11 3.5C6.85 3.5 3.5 6.85 3.5 11C3.5 15.14 6.85 18.5 11 18.5C15.14 18.5 18.5 15.14 18.5 11Z" stroke="currentColor" stroke-opacity="1.000000" stroke-width="1.125000"/>
      <path id="path" d="M14.55 7.42L14.57 7.42C14.8 7.64 14.8 7.99 14.57 8.21C14.35 8.43 14 8.43 13.78 8.21L13.78 8.18L14.55 7.42ZM8.21 8.18L8.21 8.21C7.99 8.43 7.64 8.43 7.41 8.21C7.19 7.99 7.19 7.64 7.41 7.42L7.44 7.42L8.21 8.18Z" fill="#000000" fill-opacity="0" fill-rule="nonzero"/>
      <path id="path" d="M14.18 7.81C13.36 7 12.24 6.5 11 6.5C9.75 6.5 8.63 7 7.81 7.81" stroke="currentColor" stroke-opacity="1.000000" stroke-width="1.125000" stroke-linecap="round"/>
      <path id="path" d="M14.75 11L7.25 11L7.25 14L14.75 14L14.75 11Z" fill="#000000" fill-opacity="0" fill-rule="nonzero"/>
      <path id="path" d="M7.25 11L7.25 14L14.75 14L14.75 11L7.25 11Z" stroke="currentColor" stroke-opacity="1.000000" stroke-width="1.125000" stroke-linejoin="round"/>
      <path id="path" d="M8.91 18L8.93 18.02C8.93 18.33 8.68 18.58 8.37 18.58C8.05 18.57 7.81 18.33 7.81 18.01L7.83 17.99L8.91 18ZM7.84 14.01L7.82 13.99C7.83 13.68 8.07 13.43 8.39 13.43C8.7 13.43 8.95 13.68 8.95 14L8.93 14.02L7.84 14.01Z" fill="#000000" fill-opacity="0" fill-rule="nonzero"/>
      <path id="path" d="M8.37 18.01L8.39 14" stroke="currentColor" stroke-opacity="1.000000" stroke-width="1.125000" stroke-linecap="round"/>
      <path id="path" d="M14.16 18L14.18 18.02C14.18 18.33 13.93 18.58 13.62 18.58C13.3 18.57 13.06 18.33 13.06 18.01L13.08 17.99L14.16 18ZM13.09 14.01L13.07 13.99C13.08 13.68 13.32 13.43 13.64 13.43C13.95 13.43 14.2 13.68 14.2 14L14.18 14.02L13.09 14.01Z" fill="#000000" fill-opacity="0" fill-rule="nonzero"/>
      <path id="path" d="M13.62 18.01L13.64 14" stroke="currentColor" stroke-opacity="1.000000" stroke-width="1.125000" stroke-linecap="round"/>
    </g>
  </g>
</svg>
