<svg width="18.000000" height="18.000000" viewBox="0 0 18 18" fill="none" xmlns="http://www.w3.org/2000/svg" xmlns:xlink="http://www.w3.org/1999/xlink">
  <desc>
    Created with Pixso.
  </desc>
  <defs>
    <clipPath id="clip68_1638">
      <rect id="成份" width="18.000000" height="18.000000" fill="white" fill-opacity="0"/>
    </clipPath>
  </defs>
  <g clip-path="url(#clip68_1638)">
    <path id="path" d="" fill="#000000" fill-opacity="0" fill-rule="nonzero"/>
    <path id="path" d="M14.53 7.79L14.53 7.77C14.76 7.54 15.11 7.54 15.33 7.77C15.55 7.99 15.55 8.34 15.33 8.56L15.3 8.56L14.53 7.79ZM9.76 3.02L9.76 2.99C9.98 2.77 10.33 2.77 10.56 2.99C10.78 3.22 10.78 3.57 10.56 3.79L10.53 3.79L9.76 3.02Z" fill="#000000" fill-opacity="0" fill-rule="nonzero"/>
    <path id="path" d="M14.93 8.16L8.23 14.86C6.95 16.14 4.85 16.11 3.53 14.79C2.21 13.48 2.18 11.37 3.46 10.09L10.16 3.39" stroke="currentColor" stroke-opacity="1.000000" stroke-width="1.125000" stroke-linecap="round"/>
    <path id="path" d="M3.3 10.82L3.29 10.84C2.97 10.85 2.72 10.61 2.71 10.29C2.7 9.98 2.94 9.72 3.26 9.72L3.28 9.74L3.3 10.82ZM13.04 9.48L13.06 9.46C13.37 9.45 13.63 9.69 13.64 10.01C13.65 10.32 13.4 10.58 13.09 10.58L13.07 10.56L13.04 9.48Z" fill="#000000" fill-opacity="0" fill-rule="nonzero"/>
    <path id="path" d="M3.27 10.28L13.07 10.02" stroke="currentColor" stroke-opacity="1.000000" stroke-width="1.125000" stroke-linecap="round"/>
    <path id="path" d="M11.02 7.83C11.31 7.54 11.31 7.07 11.02 6.77C10.72 6.48 10.25 6.48 9.96 6.77C9.66 7.07 9.66 7.54 9.96 7.83C10.25 8.13 10.72 8.13 11.02 7.83Z" fill="currentColor" fill-opacity="1.000000" fill-rule="nonzero"/>
    <path id="path" d="M8.9 8.9C9.19 8.6 9.19 8.13 8.9 7.84C8.6 7.54 8.13 7.54 7.84 7.84C7.54 8.13 7.54 8.6 7.84 8.9C8.13 9.19 8.6 9.19 8.9 8.9Z" fill="currentColor" fill-opacity="1.000000" fill-rule="nonzero"/>
    <path id="path" d="M8.46 2.46L8.43 2.46C8.21 2.24 8.21 1.89 8.43 1.67C8.66 1.45 9.01 1.45 9.23 1.67L9.23 1.7L8.46 2.46ZM16.63 9.09L16.65 9.09C16.88 9.32 16.88 9.67 16.65 9.89C16.43 10.11 16.08 10.11 15.86 9.89L15.86 9.86L16.63 9.09Z" fill="#000000" fill-opacity="0" fill-rule="nonzero"/>
    <path id="path" d="M8.83 2.07L16.26 9.49" stroke="currentColor" stroke-opacity="1.000000" stroke-width="1.125000" stroke-linecap="round"/>
  </g>
</svg>
