<svg viewBox="0 0 22 22" xmlns="http://www.w3.org/2000/svg" xmlns:xlink="http://www.w3.org/1999/xlink" width="22.000000" height="22.000000" fill="none">
	<rect id="home 1" width="22.000000" height="22.000000" x="0.000000" y="0.000000" />
	<path id="矢量 366" d="M19.4246 9.78918L12.5984 2.68461C12.1749 2.24453 11.6072 2 11 2C10.3927 2 9.82504 2.24214 9.40164 2.68461L2.57765 9.78918C1.87271 10.5227 1.96344 11.156 2.07974 11.4215C2.16351 11.6102 2.44268 12.1248 3.25002 12.1248L4.2505 12.1248L4.2505 17.59C4.2505 18.831 5.14154 20 6.40714 20L9.31313 20L9.31313 14.2158C9.31313 13.5964 9.22006 13.2494 9.85299 13.2494L12.1493 13.2494C12.7821 13.2494 12.689 13.594 12.689 14.2158L12.689 20L15.5927 20C16.8583 20 17.7494 18.8311 17.7494 17.59L17.7494 12.1248L18.7499 12.1248C19.5572 12.1248 19.8364 11.6078 19.9201 11.4215C20.0365 11.156 20.1272 10.5227 19.4246 9.78918L19.4246 9.78918ZM18.7499 11.0001L16.6234 11.0001L16.6234 17.59C16.6234 18.2093 16.2232 18.873 15.5904 18.873L13.8105 18.873L13.8105 14.2158C13.8105 12.9746 13.4126 12.1248 12.1469 12.1248L9.85066 12.1248C8.58496 12.1248 8.18707 12.9746 8.18707 14.2158L8.18707 18.8753L6.40712 18.8753C5.77432 18.8753 5.37415 18.2117 5.37415 17.5923L5.37415 11.0024L3.24769 11.0024C3.22677 11.0024 3.21047 10.9255 3.1942 10.9232C3.2337 10.8556 3.3012 10.6834 3.41285 10.5669L10.239 3.46705C10.4415 3.2528 10.73 3.12474 11.0093 3.12708C11.2884 3.12476 11.5583 3.25517 11.763 3.46705L18.5869 10.5646C18.6986 10.681 18.7661 10.8533 18.8033 10.9209C18.7893 10.9232 18.7708 11 18.7498 11L18.7499 11.0001L18.7499 11.0001Z" fill="rgb(29,33,41)" fill-rule="nonzero" />
</svg>
