<svg viewBox="0 0 22 22" xmlns="http://www.w3.org/2000/svg" xmlns:xlink="http://www.w3.org/1999/xlink" width="22.000000" height="22.000000" fill="none">
	<rect id="系统 1" width="22.000000" height="22.000000" x="0.000000" y="0.000000" />
	<path id="矢量 378" d="M10.9365 8.59772C12.1489 8.59772 13.1355 9.62509 13.1355 10.8875C13.1355 12.15 12.1489 13.1774 10.9365 13.1774C9.72404 13.1774 8.73739 12.15 8.73739 10.8875C8.73739 9.62509 9.72404 8.59772 10.9365 8.59772ZM10.9365 7.58002C9.18209 7.58002 7.76002 9.06078 7.76002 10.8875C7.76002 12.7143 9.18209 14.1951 10.9365 14.1951C12.6909 14.1951 14.1129 12.7143 14.1129 10.8875C14.1129 9.06078 12.6908 7.58002 10.9365 7.58002ZM18.7892 12.9069C18.9288 12.2867 19 11.6481 19 11C19 10.3519 18.9288 9.71328 18.7892 9.09312C18.7275 8.81938 18.4644 8.64952 18.2015 8.71371C17.9386 8.77791 17.7755 9.05186 17.8372 9.32559C17.9597 9.86967 18.0222 10.4302 18.0222 11C18.0222 11.5698 17.9597 12.1303 17.8372 12.6744C17.7755 12.9481 17.9386 13.2221 18.2015 13.2863C18.4644 13.3505 18.7275 13.1806 18.7892 12.9069ZM18.2115 13.2977C18.2424 13.2977 18.2683 13.2982 18.2919 13.2993C18.5617 13.3115 18.7899 13.0937 18.8016 12.8128C18.8134 12.5319 18.6042 12.2942 18.3344 12.282C18.2953 12.2803 18.2557 12.2795 18.2115 12.2795C17.9415 12.2795 17.7226 12.5074 17.7226 12.7886C17.7226 13.0698 17.9415 13.2977 18.2115 13.2977ZM16.6152 16.3603C16.4156 16.0411 16.3078 15.6691 16.3078 15.2799C16.3078 14.1852 17.1601 13.2977 18.2115 13.2977C18.4815 13.2977 18.7004 13.0698 18.7004 12.7886C18.7004 12.5074 18.4815 12.2795 18.2115 12.2795C16.6201 12.2795 15.33 13.6228 15.33 15.2799C15.33 15.868 15.4936 16.4326 15.7957 16.9158C15.9431 17.1514 16.2459 17.2181 16.4722 17.0647C16.6985 16.9113 16.7625 16.5959 16.6152 16.3603ZM13.3065 18.9784C14.5231 18.5979 15.6315 17.9193 16.5444 17.005C16.739 16.81 16.745 16.4878 16.5578 16.2851C16.3706 16.0825 16.0611 16.0762 15.8665 16.2712C15.0649 17.074 14.0922 17.6695 13.0252 18.0032C12.7666 18.0841 12.6199 18.3679 12.6976 18.6372C12.7753 18.9065 13.0479 19.0592 13.3065 18.9784ZM9.27703 18.7075C9.58863 18.0179 10.2552 17.5685 11 17.5685C11.745 17.5685 12.4119 18.0181 12.7235 18.7075C12.8384 18.9619 13.1297 19.0711 13.374 18.9514C13.6183 18.8317 13.7232 18.5284 13.6082 18.274C13.1369 17.2309 12.1272 16.5503 11 16.5503C9.87283 16.5503 8.86365 17.2308 8.39224 18.274C8.27729 18.5284 8.38215 18.8317 8.62648 18.9514C8.87081 19.0711 9.16207 18.9619 9.27703 18.7075ZM5.47753 17.0267C6.38648 17.9299 7.48694 18.6005 8.69387 18.9783C8.95246 19.0593 9.22511 18.9066 9.30285 18.6373C9.38059 18.3681 9.23399 18.0842 8.9754 18.0032C7.91665 17.6718 6.95081 17.0832 6.15258 16.2901C5.95723 16.096 5.64775 16.1035 5.46134 16.307C5.27493 16.5104 5.28218 16.8326 5.47753 17.0267ZM3.82171 13.2977C4.87309 13.2977 5.72539 14.1852 5.72539 15.2799C5.72539 15.6759 5.6139 16.054 5.40793 16.3765C5.25842 16.6106 5.31949 16.9267 5.54434 17.0823C5.76919 17.238 6.07267 17.1744 6.22218 16.9403C6.53399 16.452 6.70323 15.8781 6.70323 15.2799C6.70323 13.6228 5.41313 12.2795 3.82171 12.2795C3.55169 12.2795 3.33279 12.5074 3.33279 12.7886C3.3328 13.0698 3.55169 13.2977 3.82171 13.2977ZM3.71415 13.3005C3.74711 13.2986 3.78273 13.2977 3.82171 13.2977C4.09173 13.2977 4.31063 13.0698 4.31063 12.7886C4.31063 12.5074 4.09173 12.2795 3.82171 12.2795C3.76567 12.2795 3.71237 12.2809 3.6605 12.2838C3.39088 12.2993 3.18433 12.5394 3.19914 12.8201C3.21396 13.1008 3.44453 13.3159 3.71415 13.3005ZM3.2113 9.09169C3.07141 9.71337 3 10.3524 3 11C3 11.6476 3.07141 12.2866 3.2113 12.9083C3.2729 13.1821 3.53596 13.352 3.79886 13.2878C4.06176 13.2237 4.22494 12.9498 4.16335 12.676C4.04053 12.1302 3.97783 11.5692 3.97783 11C3.97783 10.4308 4.04053 9.86976 4.16335 9.32397C4.22495 9.05022 4.06176 8.7763 3.79886 8.71216C3.53596 8.64802 3.2729 8.81795 3.2113 9.09169ZM3.82171 8.7023C3.78272 8.7023 3.7471 8.70139 3.71415 8.69951C3.44453 8.68408 3.21396 8.89916 3.19914 9.1799C3.18433 9.46064 3.39089 9.70073 3.6605 9.71615C3.71236 9.71912 3.76567 9.72048 3.82171 9.72048C4.09173 9.72048 4.31063 9.49255 4.31063 9.21139C4.31063 8.93023 4.09173 8.7023 3.82171 8.7023ZM5.40793 5.62348C5.61393 5.94606 5.72539 6.32415 5.72539 6.72057C5.72539 7.81521 4.87321 8.7023 3.82171 8.7023C3.55169 8.7023 3.33279 8.93023 3.33279 9.21139C3.33279 9.49256 3.55169 9.72048 3.82171 9.72048C5.4132 9.72048 6.70323 8.3776 6.70323 6.72058C6.70323 6.12196 6.53403 5.54804 6.22218 5.05971C6.07267 4.82558 5.76919 4.76198 5.54434 4.91767C5.31949 5.07335 5.25842 5.38935 5.40793 5.62348ZM8.69387 3.02169C7.48694 3.39951 6.38648 4.07014 5.47753 4.97328C5.28218 5.16738 5.27493 5.48963 5.46134 5.69305C5.64775 5.89646 5.95723 5.904 6.15258 5.7099C6.95081 4.91678 7.91665 4.32819 8.9754 3.99676C9.23399 3.91581 9.38059 3.63191 9.30285 3.36265C9.22511 3.0934 8.95246 2.94074 8.69387 3.02169ZM12.7235 3.29248C12.4119 3.98187 11.745 4.43153 11.0005 4.43153C10.2552 4.43153 9.58865 3.98211 9.27703 3.29248C9.16207 3.03807 8.87081 2.92887 8.62649 3.04858C8.38216 3.16828 8.27729 3.47156 8.39225 3.72597C8.86369 4.76927 9.87292 5.44971 11.0005 5.44971C12.1273 5.44971 13.1369 4.76903 13.6082 3.72597C13.7232 3.47156 13.6183 3.16828 13.374 3.04858C13.1297 2.92887 12.8384 3.03807 12.7235 3.29248ZM16.5443 4.99494C15.6315 4.08117 14.5231 3.40266 13.3067 3.02171C13.0481 2.94073 12.7754 3.09335 12.6977 3.3626C12.6199 3.63184 12.7665 3.91576 13.025 3.99674C14.0921 4.33092 15.065 4.92647 15.8666 5.72895C16.0613 5.92381 16.3708 5.91745 16.5579 5.71476C16.7451 5.51207 16.739 5.1898 16.5443 4.99494ZM18.2115 8.7023C17.16 8.7023 16.3078 7.81521 16.3078 6.72057C16.3078 6.33091 16.4156 5.95898 16.6152 5.63971C16.7625 5.40408 16.6985 5.08871 16.4722 4.93531C16.2459 4.7819 15.9431 4.84856 15.7957 5.08419C15.4936 5.56746 15.33 6.13209 15.33 6.72058C15.33 8.3776 16.62 9.72049 18.2115 9.72049C18.4815 9.72049 18.7004 9.49256 18.7004 9.21139C18.7004 8.93023 18.4815 8.7023 18.2115 8.7023ZM18.2919 8.70075C18.2683 8.70182 18.2424 8.7023 18.2115 8.7023C17.9415 8.7023 17.7226 8.93023 17.7226 9.2114C17.7226 9.49256 17.9415 9.72049 18.2115 9.72049C18.2557 9.72049 18.2953 9.71974 18.3344 9.71797C18.6042 9.70576 18.8133 9.46815 18.8016 9.18725C18.7899 8.90635 18.5617 8.68854 18.2919 8.70075Z" fill="rgb(39,38,53)" fill-rule="nonzero" />
</svg>
