<svg viewBox="0 0 22 22" xmlns="http://www.w3.org/2000/svg" xmlns:xlink="http://www.w3.org/1999/xlink" width="22.000000" height="22.000000" fill="none">
	<rect id="样本检测 1" width="22.000000" height="22.000000" x="0.000000" y="0.000000" />
	<path id="矢量 364" d="M14.1637 7.21902L15.3805 4.88806C15.4306 4.79303 15.4539 4.68636 15.448 4.5793C15.442 4.47223 15.407 4.36875 15.3467 4.27975C15.2864 4.19076 15.203 4.11957 15.1052 4.07367L14.9466 3.99501L15.5964 2.74914C15.6456 2.65403 15.6684 2.54761 15.6623 2.44086C15.6562 2.33412 15.6214 2.23093 15.5617 2.14195C15.5019 2.05297 15.4192 1.98144 15.3222 1.93475L13.5641 1.06599C13.4908 1.03003 13.4112 1.00829 13.3297 1.00195C13.2482 0.995607 13.1662 1.00478 13.0881 1.02897C13.0107 1.05341 12.9388 1.09263 12.8766 1.14441C12.8144 1.19619 12.763 1.25955 12.7253 1.3309L12.0743 2.57793L11.7791 2.43217C11.7058 2.39619 11.6261 2.37462 11.5445 2.36867C11.463 2.36272 11.381 2.3725 11.3031 2.39747C11.2259 2.42168 11.1543 2.46069 11.0922 2.51229C11.0302 2.56388 10.979 2.62706 10.9415 2.69824L7.87203 8.5771C7.82299 8.67225 7.80039 8.77863 7.80656 8.88531C7.81273 8.99199 7.84744 9.09511 7.90714 9.18408C7.96683 9.27304 8.04934 9.34463 8.14619 9.39149L11.4735 11.0318C11.5469 11.0675 11.6265 11.0889 11.7081 11.0949C11.7896 11.1008 11.8716 11.0912 11.9494 11.0665C12.0269 11.0425 12.0988 11.0035 12.161 10.9519C12.2233 10.9003 12.2747 10.8371 12.3123 10.7658L13.5956 8.30872C15.2277 9.34984 16.0455 11.2794 15.6547 13.165C15.4562 14.0391 15.0154 14.841 14.3819 15.48C13.7484 16.119 12.9474 16.5698 12.0694 16.7815C11.1913 16.9932 10.271 16.9575 9.41231 16.6783C8.55362 16.3991 7.79068 15.8876 7.20953 15.2014C6.62838 14.5152 6.25214 13.6817 6.12323 12.7948L9.86232 14.7267C9.95875 14.7778 10.067 14.803 10.1763 14.7997C10.2856 14.7964 10.3922 14.7648 10.4853 14.7079C10.5784 14.651 10.6548 14.5709 10.707 14.4756C10.7589 14.3817 10.7843 14.2757 10.7806 14.1687C10.7768 14.0617 10.7441 13.9577 10.6858 13.8675C10.6274 13.7774 10.5457 13.7046 10.4491 13.6566L4.91692 10.7993C4.82039 10.7494 4.71252 10.7251 4.60372 10.7286C4.49492 10.732 4.38886 10.7633 4.29577 10.8192C4.20268 10.8752 4.12571 10.954 4.07228 11.048C4.02108 11.1425 3.99629 11.2488 4.00045 11.3559C4.00461 11.4631 4.03759 11.5672 4.09596 11.6575C4.15433 11.7477 4.23597 11.8209 4.33244 11.8694L4.85976 12.1412C4.8465 12.191 4.83984 12.2424 4.83993 12.2939C4.86242 13.3328 5.15986 14.3477 5.70246 15.2367C6.24506 16.1258 7.01375 16.8578 7.93153 17.3595L7.08921 20.2284C7.06288 20.3187 7.05846 20.4138 7.0763 20.5061C7.09415 20.5984 7.13375 20.6852 7.19188 20.7594C7.31087 20.9121 7.4952 21.0011 7.69003 21L14.4729 21C14.5688 21.0003 14.6636 20.9789 14.7499 20.9374C14.8363 20.8959 14.9119 20.8354 14.971 20.7605C15.0877 20.6101 15.1262 20.4123 15.0725 20.2284L14.1999 17.2392C14.1952 17.2254 14.1898 17.2119 14.1836 17.1987C15.0457 16.6756 15.7576 15.9414 16.2509 15.0666C16.7441 14.1918 17.0021 13.2058 17 12.2036C16.9979 11.2014 16.7358 10.2165 16.2388 9.34378C15.7419 8.47103 15.0269 7.73972 14.1626 7.22017L14.1626 7.21902L14.1637 7.21902ZM13.5547 2.42061L14.2011 2.74451L13.8686 3.37844L13.2223 3.06032L13.5547 2.42061ZM11.4816 9.67606L9.265 8.58404L11.7698 3.78794L13.9841 4.87996L11.4816 9.67606ZM13.6469 19.7865L8.51602 19.7865L9.08067 17.8523C9.72574 18.0524 10.3996 18.1457 11.0753 18.1286C11.751 18.1115 12.4192 17.9841 13.0531 17.7517L13.6457 19.7853L13.6469 19.7865Z" fill="rgb(29,33,41)" fill-rule="nonzero" />
</svg>
