<svg viewBox="0 0 22 22" xmlns="http://www.w3.org/2000/svg" xmlns:xlink="http://www.w3.org/1999/xlink" width="22.000000" height="22.000000" fill="none">
	<rect id="产业链图谱 1" width="22.000000" height="22.000000" x="0.000000" y="0.000000" />
	<path id="矢量 378" d="M16.7825 14.5682C16.3856 14.5676 15.9959 14.6741 15.6544 14.8764L13.7953 13.0172C14.0861 12.6151 14.2872 12.1552 14.3849 11.6687C14.4826 11.1822 14.4747 10.6804 14.3618 10.1972C14.2488 9.71399 14.0334 9.26068 13.7301 8.86794L15.5487 7.04918C15.9033 7.28607 16.3189 7.41525 16.7452 7.42112C17.1716 7.42699 17.5906 7.30931 17.9516 7.08228C18.3125 6.85525 18.6001 6.52857 18.7795 6.14169C18.9589 5.75482 19.0225 5.32428 18.9626 4.90205C18.9027 4.47982 18.7218 4.08396 18.4419 3.76226C18.162 3.44056 17.7949 3.20676 17.3851 3.08911C16.9752 2.97145 16.54 2.97496 16.1321 3.09921C15.7242 3.22346 15.3609 3.46315 15.0862 3.78932C14.8115 4.1155 14.6371 4.51422 14.584 4.93736C14.531 5.3605 14.6015 5.78996 14.7871 6.17389L12.8806 8.08057C12.31 7.70441 11.6407 7.5058 10.9573 7.50985C10.2739 7.51389 9.60697 7.7204 9.04085 8.10329L7.17483 6.24601C7.37393 5.86747 7.45917 5.43939 7.42027 5.01345C7.38138 4.58752 7.22 4.18196 6.95563 3.84576C6.69126 3.50955 6.33522 3.25709 5.9305 3.11886C5.52578 2.98063 5.08969 2.96255 4.67492 3.0668C4.26014 3.17105 3.88442 3.39316 3.59313 3.70633C3.30184 4.01949 3.10745 4.4103 3.03343 4.83155C2.9594 5.2528 3.00892 5.68647 3.176 6.08019C3.34307 6.47391 3.62056 6.81083 3.97495 7.05026C4.32933 7.28968 4.74545 7.42137 5.17305 7.42942C5.60064 7.43747 6.02143 7.32153 6.38457 7.09562L8.20119 8.90449C7.90866 9.29315 7.70124 9.73905 7.59245 10.2132C7.48365 10.6873 7.47591 11.1791 7.56973 11.6564C7.66355 12.1337 7.85683 12.5859 8.13698 12.9836L6.27985 14.8409C5.90524 14.6352 5.47909 14.5424 5.05289 14.5738C4.62669 14.6051 4.21868 14.7592 3.87815 15.0174C3.53762 15.2756 3.27915 15.6269 3.13395 16.0289C2.98875 16.4308 2.96304 16.8662 3.05994 17.2825C3.15683 17.6987 3.37217 18.078 3.67995 18.3745C3.98773 18.671 4.37478 18.872 4.79433 18.9533C5.21388 19.0346 5.64798 18.9926 6.0442 18.8324C6.44041 18.6723 6.78177 18.4008 7.02705 18.0509C7.27233 17.7009 7.41103 17.2874 7.42638 16.8603C7.44174 16.4332 7.3331 16.0107 7.11359 15.644L8.95096 13.8055C9.53534 14.2273 10.2367 14.4563 10.9574 14.4606C11.6781 14.4648 12.3821 14.2441 12.9715 13.8292L14.8483 15.7063C14.6385 16.0833 14.5433 16.5133 14.5743 16.9436C14.6054 17.374 14.7614 17.7859 15.0232 18.1288C15.285 18.4717 15.6412 18.7308 16.0481 18.8741C16.4551 19.0175 16.895 19.0389 17.3139 18.9358C17.7328 18.8326 18.1125 18.6095 18.4064 18.2936C18.7003 17.9777 18.8956 17.5829 18.9683 17.1577C19.041 16.7324 18.988 16.2951 18.8158 15.8995C18.6436 15.5039 18.3596 15.1672 17.9988 14.9307C17.6379 14.6942 17.2159 14.5683 16.7845 14.5682L16.7825 14.5682ZM16.7825 4.15558C16.9918 4.15558 17.1964 4.21766 17.3704 4.33396C17.5444 4.45027 17.68 4.61557 17.7601 4.80896C17.8401 5.00236 17.861 5.21515 17.8201 5.42042C17.7792 5.62569 17.6783 5.81421 17.5303 5.96215C17.3822 6.11008 17.1936 6.21077 16.9883 6.25148C16.783 6.2922 16.5703 6.2711 16.377 6.19087C16.1837 6.11064 16.0185 5.97487 15.9024 5.80074C15.7862 5.62662 15.7244 5.42195 15.7245 5.21265C15.7247 5.02703 15.7737 4.84473 15.8666 4.68404C15.9595 4.52335 16.0931 4.38993 16.2538 4.29717C16.4146 4.20441 16.5969 4.15558 16.7825 4.15558ZM5.21299 6.27071C5.0037 6.2709 4.79906 6.20901 4.62495 6.09287C4.45083 5.97673 4.31508 5.81155 4.23485 5.61823C4.15462 5.42492 4.13353 5.21215 4.17424 5.00684C4.21495 4.80153 4.31564 4.61291 4.46356 4.46484C4.61148 4.31677 4.79999 4.2159 5.00524 4.17499C5.21049 4.13409 5.42327 4.15498 5.61664 4.23504C5.81002 4.31509 5.97531 4.4507 6.09161 4.62472C6.2079 4.79874 6.26998 5.00334 6.26998 5.21265C6.26998 5.39826 6.22115 5.58061 6.1284 5.74139C6.03565 5.90217 5.90224 6.03572 5.74156 6.12862C5.58088 6.22153 5.39859 6.27053 5.21299 6.27071ZM5.21299 17.8412C5.0037 17.8414 4.79906 17.7795 4.62495 17.6633C4.45083 17.5472 4.31508 17.382 4.23485 17.1887C4.15462 16.9954 4.13353 16.7826 4.17424 16.5773C4.21495 16.372 4.31564 16.1834 4.46356 16.0353C4.61148 15.8872 4.79999 15.7864 5.00524 15.7455C5.21049 15.7046 5.42327 15.7254 5.61664 15.8055C5.81002 15.8856 5.97531 16.0212 6.09161 16.1952C6.2079 16.3692 6.26998 16.5738 6.26998 16.7831C6.2698 16.9687 6.22088 17.1509 6.1281 17.3116C6.03533 17.4724 5.90196 17.6059 5.74135 17.6988C5.58075 17.7917 5.39854 17.8408 5.21299 17.8412ZM8.66251 10.988C8.66251 10.53 8.79831 10.0823 9.05274 9.70148C9.30717 9.32067 9.6688 9.02387 10.0919 8.8486C10.515 8.67333 10.9806 8.62747 11.4297 8.71682C11.8789 8.80618 12.2915 9.02672 12.6153 9.35057C12.9391 9.67443 13.1596 10.087 13.249 10.5362C13.3383 10.9854 13.2925 11.451 13.1172 11.8742C12.942 12.2973 12.6452 12.659 12.2644 12.9134C11.8836 13.1679 11.436 13.3037 10.978 13.3037C10.5717 13.3032 10.1727 13.1959 9.82088 12.9925C9.4691 12.7892 9.17692 12.497 8.97362 12.1452C8.77032 11.7934 8.66303 11.3943 8.66251 10.988L8.66251 10.988ZM16.7825 17.8412C16.5732 17.8414 16.3686 17.7795 16.1945 17.6633C16.0204 17.5472 15.8846 17.382 15.8044 17.1887C15.7242 16.9954 15.7031 16.7826 15.7438 16.5773C15.7845 16.372 15.8852 16.1834 16.0331 16.0353C16.181 15.8872 16.3695 15.7864 16.5748 15.7455C16.78 15.7046 16.9928 15.7254 17.1862 15.8055C17.3795 15.8856 17.5448 16.0212 17.6611 16.1952C17.7774 16.3692 17.8395 16.5738 17.8395 16.7831C17.8393 16.9687 17.7904 17.1509 17.6976 17.3116C17.6049 17.4724 17.4715 17.6059 17.3109 17.6988C17.1503 17.7917 16.9681 17.8408 16.7825 17.8412Z" fill="rgb(29,33,41)" fill-rule="nonzero" />
</svg>
