<svg viewBox="0 0 28 28" xmlns="http://www.w3.org/2000/svg" xmlns:xlink="http://www.w3.org/1999/xlink" width="28.000000" height="28.000000" fill="none" customFrame="url(#clipPath_24)">
	<defs>
		<clipPath id="clipPath_24">
			<rect width="27.500000" height="27.500000" x="0.250000" y="0.250000" rx="4.000000" fill="rgb(255,255,255)" />
		</clipPath>
	</defs>
	<rect id="Frame 2147228566" width="27.500000" height="27.500000" x="0.250000" y="0.250000" rx="4.000000" stroke="rgb(201,205,212)" stroke-width="0.5" />
	<path id="path" d="M13.988 7.1649L7.11819 14.0189C6.38225 14.8058 5.98161 15.8466 6.00065 16.9221C6.01969 17.9975 6.45694 19.0236 7.22028 19.7842C7.98362 20.5447 9.01345 20.9804 10.0928 20.9994C11.1722 21.0183 12.2168 20.6191 13.0066 19.8859L21.191 11.7312C21.7116 11.2088 22.0026 10.5018 22 9.76573C21.9974 9.02962 21.7014 8.32469 21.1771 7.80602C20.6529 7.28735 19.9433 6.99742 19.2045 7.00002C18.4657 7.00261 17.7582 7.29752 17.2377 7.81986L9.08098 15.9746C8.94454 16.1012 8.8351 16.254 8.75919 16.4237C8.68329 16.5935 8.64247 16.7767 8.63918 16.9625C8.63589 17.1483 8.6702 17.3328 8.74004 17.5051C8.80989 17.6774 8.91385 17.834 9.04573 17.9653C9.1776 18.0967 9.33469 18.2003 9.50762 18.2699C9.68054 18.3395 9.86576 18.3737 10.0522 18.3704C10.2387 18.3671 10.4226 18.3265 10.593 18.2508C10.7633 18.1752 10.9166 18.0662 11.0438 17.9302L17.9228 11.0854" fill-rule="nonzero" stroke="rgb(95,100,108)" stroke-linecap="round" stroke-linejoin="round" stroke-width="1.5" />
</svg>
