<svg viewBox="0 0 16 16" xmlns="http://www.w3.org/2000/svg" xmlns:xlink="http://www.w3.org/1999/xlink" width="16.000000" height="16.000000" fill="none" customFrame="#000000">
	<rect id="Earth (地球仪)" width="16.000000" height="16.000000" x="0.000000" y="0.000000" />
	<path id="Vector" d="M14.6663 8.00065C14.6663 4.31875 11.6816 1.33398 7.99967 1.33398C4.31777 1.33398 1.33301 4.31875 1.33301 8.00065C1.33301 11.6826 4.31777 14.6673 7.99967 14.6673C11.6816 14.6673 14.6663 11.6826 14.6663 8.00065Z" fill-rule="evenodd" stroke="currentColor" stroke-linecap="round" stroke-linejoin="round" stroke-width="1.33333337" />
	<path id="Vector" d="M1.33301 8L14.6663 8" stroke="currentColor" stroke-linecap="round" stroke-linejoin="round" stroke-width="1.33333337" />
	<path id="Vector" d="M10.6663 8.00065C10.6663 4.31875 9.47244 1.33398 7.99967 1.33398C6.52691 1.33398 5.33301 4.31875 5.33301 8.00065C5.33301 11.6826 6.52691 14.6673 7.99967 14.6673C9.47244 14.6673 10.6663 11.6826 10.6663 8.00065Z" fill-rule="evenodd" stroke="currentColor" stroke-linecap="round" stroke-linejoin="round" stroke-width="1.33333337" />
	<path id="Vector" d="M3.28613 3.38086C4.49256 4.58729 6.15923 5.33349 8.00016 5.33349C9.84113 5.33349 11.5078 4.58729 12.7142 3.38086" fill-rule="nonzero" stroke="currentColor" stroke-linecap="round" stroke-linejoin="round" stroke-width="1.33333337" />
	<path id="Vector" d="M12.7142 12.6186C11.5078 11.4122 9.84113 10.666 8.00016 10.666C6.15923 10.666 4.49256 11.4122 3.28613 12.6186" fill-rule="nonzero" stroke="currentColor" stroke-linecap="round" stroke-linejoin="round" stroke-width="1.33333337" />
</svg>
