<svg viewBox="0 0 18 18" xmlns="http://www.w3.org/2000/svg" xmlns:xlink="http://www.w3.org/1999/xlink" width="18.000000" height="18.000000" fill="none">
	<rect id="复制 2" width="18.000000" height="18.000000" x="0.000000" y="0.000000" />
	<path id="矢量 327" d="M4.875 4.66185L4.875 2.92969C4.875 2.3472 5.3472 1.875 5.92969 1.875L15.0703 1.875C15.6528 1.875 16.125 2.3472 16.125 2.92969L16.125 12.0703C16.125 12.6528 15.6528 13.125 15.0703 13.125L13.3186 13.125" fill-rule="nonzero" stroke="rgb(95,100,108)" stroke-linecap="round" stroke-linejoin="round" stroke-width="1.125" />
	<path id="矢量 328" d="M2.92969 4.875C2.3472 4.875 1.875 5.3472 1.875 5.92969L1.875 15.0703C1.875 15.6528 2.3472 16.125 2.92969 16.125L12.0703 16.125C12.6528 16.125 13.125 15.6528 13.125 15.0703L13.125 5.92969C13.125 5.3472 12.6528 4.875 12.0703 4.875L2.92969 4.875Z" fill-rule="nonzero" stroke="rgb(95,100,108)" stroke-linejoin="round" stroke-width="1.125" />
</svg>
