<svg width="22.000000" height="22.000000" viewBox="0 0 22 22" fill="none" xmlns="http://www.w3.org/2000/svg" xmlns:xlink="http://www.w3.org/1999/xlink">
  <desc>
    Created with Pixso.
  </desc>
  <defs>
    <clipPath id="clip68_1691">
      <rect id="处方" width="18.000000" height="18.000000" transform="translate(2.000000 2.000000)" fill="white" fill-opacity="0"/>
    </clipPath>
    <clipPath id="clip68_1692">
      <rect id="画板 59" width="22.000000" height="22.000000" fill="white" fill-opacity="0"/>
    </clipPath>
  </defs>
  <rect id="画板 59" width="22.000000" height="22.000000" fill="#FFFFFF" fill-opacity="0"/>
  <g clip-path="url(#clip68_1692)">
    <g clip-path="url(#clip68_1691)">
      <path id="path" d="M5 5C5 4.58 5.33 4.25 5.75 4.25L12.12 4.25L12.12 8.75L17 8.75L17 17C17 17.41 16.66 17.75 16.25 17.75L5.75 17.75C5.33 17.75 5 17.41 5 17L5 5Z" fill="#000000" fill-opacity="0" fill-rule="evenodd"/>
      <path id="path" d="M5.75 4.25L12.12 4.25L12.12 8.75L17 8.75L17 17C17 17.41 16.66 17.75 16.25 17.75L5.75 17.75C5.33 17.75 5 17.41 5 17L5 5C5 4.58 5.33 4.25 5.75 4.25Z" stroke="currentColor" stroke-opacity="1.000000" stroke-width="1.125000" stroke-linejoin="round"/>
      <path id="path" d="M11.77 4.66L11.74 4.66C11.51 4.44 11.49 4.1 11.71 3.86C11.92 3.63 12.27 3.62 12.5 3.83L12.5 3.86L11.77 4.66ZM17.35 8.33L17.38 8.33C17.61 8.55 17.62 8.89 17.41 9.13C17.19 9.36 16.85 9.37 16.61 9.16L16.61 9.13L17.35 8.33Z" fill="#000000" fill-opacity="0" fill-rule="nonzero"/>
      <path id="path" d="M12.12 4.25L17 8.75" stroke="currentColor" stroke-opacity="1.000000" stroke-width="1.125000" stroke-linejoin="round" stroke-linecap="round"/>
      <path id="path" d="M11.59 4.27L11.57 4.25C11.57 3.93 11.81 3.68 12.13 3.68C12.44 3.68 12.69 3.93 12.69 4.25L12.67 4.27L11.59 4.27ZM16.98 8.23L17 8.21C17.31 8.21 17.56 8.46 17.56 8.78C17.56 9.09 17.31 9.34 17 9.34L16.98 9.32L16.98 8.23Z" fill="#000000" fill-opacity="0" fill-rule="nonzero"/>
      <path id="path" d="M12.13 4.25L12.13 8.78L17 8.78" stroke="currentColor" stroke-opacity="1.000000" stroke-width="1.125000" stroke-linejoin="round" stroke-linecap="round"/>
      <path id="path" d="M7.27 13.79L7.25 13.81C6.93 13.81 6.68 13.56 6.68 13.25C6.68 12.93 6.93 12.68 7.25 12.68L7.27 12.7L7.27 13.79ZM11.73 12.7L11.75 12.68C12.06 12.68 12.31 12.93 12.31 13.25C12.31 13.56 12.06 13.81 11.75 13.81L11.73 13.79L11.73 12.7Z" fill="#000000" fill-opacity="0" fill-rule="nonzero"/>
      <path id="path" d="M7.25 13.25L11.75 13.25" stroke="currentColor" stroke-opacity="1.000000" stroke-width="1.125000" stroke-linecap="round"/>
      <path id="path" d="M8.95 11.02L8.93 11C8.93 10.68 9.18 10.43 9.5 10.43C9.81 10.43 10.06 10.68 10.06 11L10.04 11.02L8.95 11.02ZM10.04 15.48L10.06 15.5C10.06 15.81 9.81 16.06 9.5 16.06C9.18 16.06 8.93 15.81 8.93 15.5L8.95 15.48L10.04 15.48Z" fill="#000000" fill-opacity="0" fill-rule="nonzero"/>
      <path id="path" d="M9.5 11L9.5 15.5" stroke="currentColor" stroke-opacity="1.000000" stroke-width="1.125000" stroke-linecap="round"/>
    </g>
  </g>
</svg>
