<svg viewBox="0 0 28 28" xmlns="http://www.w3.org/2000/svg" xmlns:xlink="http://www.w3.org/1999/xlink" width="28.000000" height="28.000000" fill="none">
	<rect id="播放 1" width="28.000000" height="28.000000" x="0.000000" y="0.000000" />
	<path id="矢量 201" d="M13.9997 25.6673C20.443 25.6673 25.6663 20.444 25.6663 14.0006C25.6663 7.55733 20.443 2.33398 13.9997 2.33398C7.55635 2.33398 2.33301 7.55733 2.33301 14.0006C2.33301 20.444 7.55635 25.6673 13.9997 25.6673Z" fill="rgb(54,98,255)" fill-rule="nonzero" />
	<path id="矢量 201" d="M25.6663 14.0006C25.6663 7.55733 20.443 2.33398 13.9997 2.33398C7.55635 2.33398 2.33301 7.55733 2.33301 14.0006C2.33301 20.444 7.55635 25.6673 13.9997 25.6673C20.443 25.6673 25.6663 20.444 25.6663 14.0006Z" fill-rule="nonzero" stroke="rgb(54,98,255)" stroke-linejoin="round" stroke-width="1.5" />
	<path id="矢量 202" d="M11.667 14.0004L11.667 9.95898L15.167 11.9797L18.667 14.0004L15.167 16.0212L11.667 18.0419L11.667 14.0004Z" fill="rgb(255,255,255)" fill-rule="nonzero" />
	<path id="矢量 202" d="M11.667 9.95898L15.167 11.9797L18.667 14.0004L15.167 16.0212L11.667 18.0419L11.667 14.0004L11.667 9.95898Z" fill-rule="nonzero" stroke="rgb(255,255,255)" stroke-linejoin="round" stroke-width="1.5" />
</svg>
