<svg width="48.000000" height="48.000000" viewBox="0 0 48 48" fill="none" xmlns="http://www.w3.org/2000/svg" xmlns:xlink="http://www.w3.org/1999/xlink">
  <desc>
    Created with Pixso.
  </desc>
  <defs>
    <clipPath id="clip204_1489">
      <rect id="加" width="48.000000" height="48.000000" fill="white" fill-opacity="0"/>
    </clipPath>
  </defs>
  <g clip-path="url(#clip204_1489)">
    <path id="path" d="M25.5 37.98L25.52 38C25.52 38.84 24.86 39.5 24.02 39.5C23.18 39.49 22.52 38.83 22.52 37.99L22.54 37.97L25.5 37.98ZM22.58 10.01L22.56 9.99C22.56 9.15 23.22 8.49 24.06 8.5C24.9 8.5 25.56 9.16 25.56 10L25.54 10.02L22.58 10.01Z" fill="#000000" fill-opacity="0" fill-rule="nonzero"/>
    <path id="path" d="M24.02 38L24.06 10" stroke="currentColor" stroke-opacity="1.000000" stroke-width="3.000000" stroke-linejoin="round" stroke-linecap="round"/>
    <path id="path" d="M10.02 25.48L10 25.5C9.15 25.5 8.5 24.84 8.5 24C8.5 23.15 9.15 22.5 10 22.5L10.02 22.52L10.02 25.48ZM37.98 22.52L38 22.5C38.84 22.5 39.5 23.15 39.5 24C39.5 24.84 38.84 25.5 38 25.5L37.98 25.48L37.98 22.52Z" fill="#000000" fill-opacity="0" fill-rule="nonzero"/>
    <path id="path" d="M10 24L38 24" stroke="currentColor" stroke-opacity="1.000000" stroke-width="3.000000" stroke-linejoin="round" stroke-linecap="round"/>
  </g>
</svg>
