<svg viewBox="0 0 32 32" xmlns="http://www.w3.org/2000/svg" xmlns:xlink="http://www.w3.org/1999/xlink" width="32" height="32" fill="none" customFrame="#000000">
	<rect id="属性 1=png" width="32" height="32" x="0" y="0" />
	<path id="减去顶层" d="M7 30L25 30C26.6569 30 28 28.6569 28 27L28 10.1098C28 9.39364 27.7438 8.70113 27.2778 8.1574L22.898 3.04763C22.328 2.38269 21.496 2 20.6202 2L7 2C5.34315 2 4 3.34315 4 5L4 27C4 28.6569 5.34315 30 7 30ZM25 20.4644C24.3726 20.8481 23.6016 21.04 22.6868 21.04C21.8777 21.04 21.2036 20.8493 20.6645 20.4678C20.6218 20.4376 20.5799 20.4062 20.5389 20.3736C20.4433 20.2976 20.3522 20.215 20.2658 20.126C20.1464 20.0029 20.039 19.8708 19.9437 19.7295C19.567 19.1709 19.3786 18.4696 19.3786 17.6255C19.3786 16.9025 19.5266 16.2704 19.8225 15.7292C19.9654 15.4678 20.1429 15.2275 20.3549 15.0085C20.5064 14.852 20.6691 14.7137 20.843 14.5937C21.4161 14.1979 22.1109 14 22.9272 14C23.6126 14 24.211 14.1025 24.7222 14.3076L24.7222 15.6831C24.2248 15.3755 23.6168 15.2217 22.8982 15.2217C22.4852 15.2217 22.1245 15.3169 21.8161 15.5072C21.6621 15.6022 21.5212 15.7209 21.3934 15.8633C21.3145 15.9511 21.2437 16.0447 21.181 16.144C20.9384 16.5284 20.8171 16.9987 20.8171 17.5552C20.8171 18.2357 20.9756 18.773 21.2926 19.1671C21.3072 19.1853 21.3221 19.2032 21.3374 19.2207C21.4279 19.3247 21.5271 19.4151 21.6348 19.492C21.9399 19.7096 22.3141 19.8184 22.7573 19.8184C23.1138 19.8184 23.4053 19.7598 23.632 19.6426L23.632 18.2451L22.3344 18.2451L22.3344 17.0806L25 17.0806L25 20.4644ZM8.36803 18.5483L8.36803 20.9214L7 20.9214L7 14.1143L9.20958 14.1143C10.0933 14.1143 10.7326 14.3339 11.1274 14.7733C11.1478 14.796 11.1676 14.8193 11.1867 14.8432C11.4661 15.1925 11.6057 15.6673 11.6057 16.2676C11.6057 16.6658 11.5271 17.0189 11.3698 17.3268C11.2516 17.558 11.0891 17.7638 10.8823 17.9441C10.7829 18.0307 10.6784 18.1081 10.5687 18.1761C10.1463 18.4382 9.64763 18.5623 9.07278 18.5483L8.36803 18.5483ZM16.8871 20.9214L18.2883 20.9214L18.2883 14.1143L16.9908 14.1143L16.9908 17.9946C16.9908 18.4575 17.0046 18.771 17.0322 18.9351L17.0115 18.9351C16.9728 18.8589 16.8664 18.6787 16.6923 18.3945L14.0723 14.1143L12.5799 14.1143L12.5799 20.9214L13.8775 20.9214L13.8775 17.0498C13.8775 16.5605 13.865 16.1987 13.8402 15.9644L13.8609 15.9644C13.9245 16.105 14.0267 16.2896 14.1677 16.5181L16.8871 20.9214ZM8.36803 15.2393L8.36803 17.4365L8.96085 17.4365C9.39571 17.4365 9.71301 17.3282 9.91273 17.1115C9.92337 17.0999 9.93367 17.0881 9.94364 17.0759C10.0927 16.8942 10.1672 16.6438 10.1672 16.3247C10.1672 16.018 10.0957 15.7763 9.95276 15.5996C9.94307 15.5877 9.93306 15.576 9.92272 15.5646C9.72553 15.3477 9.40905 15.2393 8.97328 15.2393L8.36803 15.2393Z" fill="rgb(54,98,255)" fill-rule="evenodd" />
</svg>
