<svg width="18.000000" height="18.000000" viewBox="0 0 18 18" fill="none" xmlns="http://www.w3.org/2000/svg" xmlns:xlink="http://www.w3.org/1999/xlink">
  <desc>
    Created with Pixso.
  </desc>
  <defs>
    <clipPath id="clip187_9">
      <rect id="书籍" width="18.000000" height="18.000000" fill="white" fill-opacity="0"/>
    </clipPath>
  </defs>
  <g clip-path="url(#clip187_9)">f
    <path id="path" d="M1.87 2.25L14.62 2.25C14.62 2.25 16.12 3 16.12 4.87C16.12 6.75 14.62 7.5 14.62 7.5L1.87 7.5C1.87 7.5 3.37 6.75 3.37 4.87C3.37 3 1.87 2.25 1.87 2.25Z" fill="#000000" fill-opacity="0" fill-rule="nonzero"/>
    <path id="path" d="M14.62 2.25C14.62 2.25 16.12 3 16.12 4.87C16.12 6.75 14.62 7.5 14.62 7.5L1.87 7.5C1.87 7.5 3.37 6.75 3.37 4.87C3.37 3 1.87 2.25 1.87 2.25L14.62 2.25Z" stroke="currentColor" stroke-opacity="1.000000" stroke-width="1.130000" stroke-linejoin="round"/>
    <path id="path" d="M16.12 10.5L3.37 10.5C3.37 10.5 1.87 11.25 1.87 13.12C1.87 15 3.37 15.75 3.37 15.75L16.12 15.75C16.12 15.75 14.62 15 14.62 13.12C14.62 11.25 16.12 10.5 16.12 10.5Z" fill="#000000" fill-opacity="0" fill-rule="nonzero"/>
    <path id="path" d="M3.37 10.5C3.37 10.5 1.87 11.25 1.87 13.12C1.87 15 3.37 15.75 3.37 15.75L16.12 15.75C16.12 15.75 14.62 15 14.62 13.12C14.62 11.25 16.12 10.5 16.12 10.5L3.37 10.5Z" stroke="currentColor" stroke-opacity="1.000000" stroke-width="1.130000" stroke-linejoin="round"/>
  </g>
</svg>
