<svg viewBox="0 0 44 24" xmlns="http://www.w3.org/2000/svg" xmlns:xlink="http://www.w3.org/1999/xlink" width="44" height="24" fill="none" customFrame="#000000">
	<defs>
		<linearGradient id="paint_linear_0" x1="3.29998207" x2="41.9375" y1="2.52630615" y2="21.4736862" gradientUnits="userSpaceOnUse">
			<stop stop-color="rgb(155,204,255)" offset="0" stop-opacity="1" />
			<stop stop-color="rgb(208.517,166,255)" offset="0.445103854" stop-opacity="1" />
			<stop stop-color="rgb(151.377,152.706,255)" offset="1" stop-opacity="1" />
		</linearGradient>
	</defs>
	<path id="容器 102" d="M42 0C43.1046 0 44 0.89543 44 2L44 8C44 16.8366 36.8366 24 28 24L2 24C0.89543 24 0 23.1046 0 22L0 16C0 7.16344 7.16344 0 16 0L42 0Z" fill="url(#paint_linear_0)" fill-rule="evenodd" />
	<path id="" d="M10.9395 13.623L10.3516 17L8.01367 17L9.73633 7.04688L13.3115 7.05371C14.4189 7.05371 15.2905 7.36133 15.9263 7.97656C16.562 8.5918 16.8411 9.38932 16.7637 10.3691C16.709 11.0391 16.4948 11.6201 16.1211 12.1123C15.7474 12.6045 15.2541 12.9805 14.6411 13.2402C14.0282 13.5 13.3411 13.6299 12.5801 13.6299L10.9395 13.623ZM11.2607 11.7705L12.6689 11.7842C13.2614 11.7705 13.7148 11.578 14.0293 11.2065C14.3438 10.8351 14.4691 10.3783 14.4053 9.83594C14.3688 9.55794 14.2629 9.33805 14.0874 9.17627C13.9119 9.01449 13.6807 8.92448 13.3936 8.90625L11.7598 8.89941L11.2607 11.7705ZM21.1729 13.4863L19.874 13.4863L19.2588 17L16.9209 17L18.6436 7.04688L22.1572 7.05371C23.2829 7.05371 24.1499 7.31689 24.7583 7.84326C25.3667 8.36963 25.639 9.08854 25.5752 10C25.5251 10.7201 25.3177 11.3159 24.9531 11.7876C24.5885 12.2593 24.0781 12.6318 23.4219 12.9053L24.7617 16.8838L24.7617 17L22.2666 17L21.1729 13.4863ZM20.1885 11.6338L21.5557 11.6475C21.9294 11.6475 22.2541 11.5563 22.5298 11.374C22.8055 11.1917 23.0026 10.9422 23.1211 10.6255C23.2396 10.3088 23.2738 10.0023 23.2236 9.70605C23.1325 9.2002 22.8089 8.93359 22.2529 8.90625L20.667 8.89941L20.1885 11.6338ZM29.957 17.1367C28.9225 17.1139 28.0931 16.7721 27.4688 16.1113C26.8444 15.4505 26.4912 14.5664 26.4092 13.459C26.3636 12.9121 26.4069 12.2684 26.5391 11.5278C26.6712 10.7873 26.9059 10.1048 27.2432 9.48047C27.5804 8.85612 28.002 8.33659 28.5078 7.92188C29.3555 7.22461 30.3307 6.88737 31.4336 6.91016C32.1126 6.92383 32.7062 7.07992 33.2144 7.37842C33.7225 7.67692 34.1292 8.10645 34.4346 8.66699C34.7399 9.22754 34.9176 9.86556 34.9678 10.5811C35.0042 11.0869 34.9735 11.6623 34.8755 12.3071C34.7775 12.952 34.5975 13.5672 34.3354 14.1528C34.0734 14.7384 33.735 15.2546 33.3203 15.7012C32.9056 16.1478 32.4168 16.5021 31.854 16.7642C31.2912 17.0262 30.6589 17.1504 29.957 17.1367ZM32.623 10.5605C32.5775 9.42122 32.1354 8.82878 31.2969 8.7832C30.6497 8.7513 30.1143 9.00765 29.6904 9.55225C29.2666 10.0968 28.9863 10.9001 28.8496 11.9619C28.763 12.6182 28.7311 13.1263 28.7539 13.4863C28.7995 14.6439 29.2461 15.2386 30.0938 15.2705C30.6497 15.2979 31.1283 15.0985 31.5293 14.6724C31.9303 14.2463 32.2197 13.6265 32.3975 12.813C32.5752 11.9995 32.6504 11.2487 32.623 10.5605Z" fill="rgb(255,254.745,255)" fill-rule="nonzero" />
</svg>
