<svg viewBox="0 0 20 20" xmlns="http://www.w3.org/2000/svg" xmlns:xlink="http://www.w3.org/1999/xlink" width="20.000000" height="20.000000" fill="none">
	<rect id="暂停 1" width="20.000000" height="20.000000" x="0.000000" y="0.000000" />
	<path id="矢量 203" d="M9.99984 18.3327C14.6022 18.3327 18.3332 14.6017 18.3332 9.99935C18.3332 5.39697 14.6022 1.66602 9.99984 1.66602C5.39746 1.66602 1.6665 5.39697 1.6665 9.99935C1.6665 14.6017 5.39746 18.3327 9.99984 18.3327Z" fill="rgb(54,98,255)" fill-rule="nonzero" />
	<path id="矢量 203" d="M18.3332 9.99935C18.3332 5.39697 14.6022 1.66602 9.99984 1.66602C5.39746 1.66602 1.6665 5.39697 1.6665 9.99935C1.6665 14.6017 5.39746 18.3327 9.99984 18.3327C14.6022 18.3327 18.3332 14.6017 18.3332 9.99935Z" fill-rule="nonzero" stroke="rgb(54,98,255)" stroke-linejoin="round" stroke-width="1.500000" />
	<path id="矢量 204" d="M7.9165 7.5L7.9165 12.5" stroke="rgb(255,255,255)" stroke-linecap="round" stroke-linejoin="round" stroke-width="1.500000" />
	<path id="矢量 205" d="M12.0835 7.5L12.0835 12.5" stroke="rgb(255,255,255)" stroke-linecap="round" stroke-linejoin="round" stroke-width="1.500000" />
</svg>
