<svg width="48" height="48" viewBox="0 0 48 48" fill="none" xmlns="http://www.w3.org/2000/svg">
<g clip-path="url(#clip0_474_8251)">
<rect opacity="0.1" width="48" height="48" rx="8" fill="#3662FF"/>
<path d="M28.6396 8C29.1621 8.0001 29.6635 8.20503 30.0371 8.57031L36.4893 14.8779C36.8741 15.2542 37.0908 15.7704 37.0908 16.3086V38C37.0908 39.1046 36.1954 40 35.0908 40H12.9092C11.8046 40 10.9092 39.1046 10.9092 38V10C10.9092 8.89543 11.8046 8 12.9092 8H28.6396ZM16.2725 31.2725C15.7204 31.2726 15.2726 31.7204 15.2725 32.2725V32.4541C15.2725 33.0063 15.7203 33.454 16.2725 33.4541H31.7275C32.2797 33.454 32.7275 33.0063 32.7275 32.4541V32.2725C32.7274 31.7204 32.2796 31.2726 31.7275 31.2725H16.2725ZM16.2725 24C15.7203 24.0001 15.2725 24.4478 15.2725 25V25.1816C15.2725 25.7338 15.7203 26.1815 16.2725 26.1816H31.7275C32.2797 26.1815 32.7275 25.7338 32.7275 25.1816V25C32.7275 24.4478 32.2797 24.0001 31.7275 24H16.2725ZM27.7627 10.3076C27.4477 9.99295 26.9092 10.2168 26.9092 10.6621V17.6816C26.9092 17.9578 27.133 18.1816 27.4092 18.1816H34.4297C34.8748 18.1813 35.0979 17.643 34.7832 17.3281L27.7627 10.3076Z" fill="#3662FF"/>
</g>
<defs>
<clipPath id="clip0_474_8251">
<rect width="48" height="48" fill="white"/>
</clipPath>
</defs>
</svg>
