<svg width="18.000000" height="18.000000" viewBox="0 0 18 18" fill="none" xmlns="http://www.w3.org/2000/svg" xmlns:xlink="http://www.w3.org/1999/xlink">
  <desc>
    Created with Pixso.
  </desc>
  <defs>
    <clipPath id="clip218_3135">
      <rect id="添加" width="18.000000" height="18.000000" fill="white" fill-opacity="0"/>
    </clipPath>
  </defs>
  <g clip-path="url(#clip218_3135)">
    <rect id="rect" x="2.250000" y="2.250000" rx="3.000000" width="13.500000" height="13.500000" fill="#000000" fill-opacity="0"/>
    <rect id="rect" x="2.250000" y="2.250000" rx="3.000000" width="13.500000" height="13.500000" stroke="currentColor" stroke-opacity="1.000000" stroke-width="1.000000" stroke-linejoin="round"/>
    <path id="path" d="M8.52 6.02L8.5 6C8.5 5.72 8.72 5.5 9 5.5C9.27 5.5 9.5 5.72 9.5 6L9.47 6.02L8.52 6.02ZM9.47 11.98L9.5 12C9.5 12.27 9.27 12.5 9 12.5C8.72 12.5 8.5 12.27 8.5 12L8.52 11.98L9.47 11.98Z" fill="#000000" fill-opacity="0" fill-rule="nonzero"/>
    <path id="path" d="M9 6L9 12" stroke="currentColor" stroke-opacity="1.000000" stroke-width="1.000000" stroke-linejoin="round" stroke-linecap="round"/>
    <path id="path" d="M6.02 9.47L6 9.5C5.72 9.5 5.5 9.27 5.5 9C5.5 8.72 5.72 8.5 6 8.5L6.02 8.52L6.02 9.47ZM11.98 8.52L12 8.5C12.27 8.5 12.5 8.72 12.5 9C12.5 9.27 12.27 9.5 12 9.5L11.98 9.47L11.98 8.52Z" fill="#000000" fill-opacity="0" fill-rule="nonzero"/>
    <path id="path" d="M6 9L12 9" stroke="currentColor" stroke-opacity="1.000000" stroke-width="1.000000" stroke-linejoin="round" stroke-linecap="round"/>
  </g>
</svg>
