<svg width="32.000000" height="32.000000" viewBox="0 0 32 32" fill="none" xmlns="http://www.w3.org/2000/svg" xmlns:xlink="http://www.w3.org/1999/xlink">
  <desc>
    Created with Pixso.
  </desc>
  <defs>
    <clipPath id="clip193_1575">
      <rect id="重新" width="20.000000" height="20.000000" transform="translate(6.000000 6.000000)" fill="white" fill-opacity="0"/>
    </clipPath>
    <clipPath id="clip49_1016">
      <rect id="画板 75" rx="8.000000" width="32.000000" height="32.000000" fill="white" fill-opacity="0"/>
    </clipPath>
  </defs>
  <rect id="画板 75" rx="8.000000" width="32.000000" height="32.000000" fill="#FFFFFF" fill-opacity="0"/>
  <g clip-path="url(#clip49_1016)">
    <g clip-path="url(#clip193_1575)">
      <path id="path" d="M20.77 20.8L20.77 20.77C21.06 20.47 21.53 20.47 21.83 20.77C22.13 21.06 22.13 21.53 21.83 21.83L21.8 21.83L20.77 20.8ZM24.03 12.58L24.06 12.58C24.33 12.89 24.31 13.36 23.99 13.64C23.68 13.92 23.21 13.89 22.93 13.58L22.94 13.55L24.03 12.58Z" fill="#000000" fill-opacity="0" fill-rule="nonzero"/>
      <path id="path" d="M21.3 21.3C19.94 22.66 18.07 23.5 16 23.5C11.85 23.5 8.5 20.14 8.5 16C8.5 11.85 11.85 8.5 16 8.5C18.07 8.5 19.94 9.33 21.3 10.69C21.99 11.38 23.5 13.08 23.5 13.08" stroke="currentColor" stroke-opacity="1.000000" stroke-width="1.500000" stroke-linejoin="round" stroke-linecap="round"/>
      <path id="path" d="M22.77 9.35L22.75 9.33C22.75 8.91 23.08 8.58 23.5 8.58C23.92 8.58 24.25 8.91 24.25 9.33L24.23 9.35L22.77 9.35ZM19.77 13.81L19.75 13.83C19.33 13.83 19 13.5 19 13.08C19 12.66 19.33 12.33 19.75 12.33L19.77 12.35L19.77 13.81Z" fill="#000000" fill-opacity="0" fill-rule="nonzero"/>
      <path id="path" d="M23.5 9.33L23.5 13.08L19.75 13.08" stroke="currentColor" stroke-opacity="1.000000" stroke-width="1.500000" stroke-linejoin="round" stroke-linecap="round"/>
    </g>
  </g>
</svg>
