<svg viewBox="0 0 16 16" xmlns="http://www.w3.org/2000/svg" xmlns:xlink="http://www.w3.org/1999/xlink" width="16.000000" height="16.000000" fill="none">
	<rect id="参数配置 1" width="16.000000" height="16.000000" x="0.000000" y="0.000000" />
	<path id="矢量 199" d="M11.726 14C10.7501 14 9.9516 13.2285 9.9516 12.2858C9.9516 11.4917 10.5205 10.825 11.2823 10.6325L11.2823 2.4289C11.2823 2.17175 11.4597 2 11.726 2C11.9919 2 12.1693 2.17175 12.1693 2.4289L12.1693 10.6325C12.9311 10.825 13.5 11.4917 13.5 12.2858C13.5 13.2285 12.7019 14 11.726 14ZM11.726 11.4284C11.1938 11.4284 10.839 11.7715 10.839 12.2858C10.839 12.8001 11.1938 13.1427 11.726 13.1427C12.2582 13.1427 12.613 12.8001 12.613 12.2858C12.613 11.7715 12.2582 11.4284 11.726 11.4284ZM8.62089 9.22438L8.62089 13.5716C8.62089 13.8287 8.44349 14 8.17717 14C7.9113 14 7.7339 13.8287 7.7339 13.5716L7.7339 9.22438C6.97206 9.03232 6.4032 8.36565 6.4032 7.57156C6.4032 6.77378 6.9771 6.10388 7.74445 5.91551C7.7417 5.8952 7.7339 5.87858 7.7339 5.85734L7.7339 2.4289C7.7339 2.17175 7.9113 2 8.17717 2C8.44349 2 8.62089 2.17175 8.62089 2.4289L8.62089 5.85734C8.62089 5.87858 8.61264 5.8952 8.61035 5.91551C9.37769 6.10434 9.9516 6.77378 9.9516 7.57156C9.9516 8.36565 9.38273 9.03186 8.62089 9.22438ZM8.17717 6.71468C7.64498 6.71468 7.29018 7.05725 7.29018 7.57156C7.29018 8.08587 7.64498 8.42844 8.17717 8.42844C8.70936 8.42844 9.06415 8.08587 9.06415 7.57156C9.06415 7.05725 8.70936 6.71468 8.17717 6.71468ZM4.71769 5.3675L4.71769 13.5716C4.71769 13.8287 4.53984 14 4.27397 14C4.00765 14 3.83025 13.8287 3.83025 13.5716L3.83025 5.3675C3.06886 5.17498 2.5 4.50831 2.5 3.71468C2.5 2.77147 3.29806 2 4.27397 2C5.24943 2 6.0484 2.77147 6.0484 3.71468C6.0484 4.50831 5.47908 5.17498 4.71769 5.3675ZM4.27397 2.85734C3.74132 2.85734 3.38653 3.19991 3.38653 3.71468C3.38653 4.22899 3.74132 4.57156 4.27397 4.57156C4.80616 4.57156 5.16096 4.22899 5.16096 3.71468C5.16096 3.19991 4.80616 2.85734 4.27397 2.85734L4.27397 2.85734Z" fill="rgb(29,33,41)" fill-rule="nonzero" />
</svg>
