<svg width="24.000000" height="24.000000" viewBox="0 0 24 24" fill="none" xmlns="http://www.w3.org/2000/svg" xmlns:xlink="http://www.w3.org/1999/xlink">
  <desc>
    Created with Pixso.
  </desc>
  <defs>
    <clipPath id="clip960_18006">
      <rect id="展开" width="24.000000" height="24.000000" fill="white" fill-opacity="0"/>
    </clipPath>
  </defs>
  <g clip-path="url(#clip960_18006)">
    <rect id="rect" x="3.000000" y="3.000000" rx="3.000000" width="18.000000" height="18.000000" fill="#000000" fill-opacity="0"/>
    <rect id="rect" x="3.000000" y="3.000000" rx="3.000000" width="18.000000" height="18.000000" stroke="currentColor" stroke-opacity="1.000000" stroke-width="1.500000" stroke-linejoin="round"/>
    <path id="path" d="M9.76 3.02L9.75 3C9.75 2.57 10.08 2.25 10.5 2.25C10.91 2.25 11.25 2.57 11.25 3L11.23 3.02L9.76 3.02ZM11.23 20.98L11.25 21C11.25 21.42 10.91 21.75 10.5 21.75C10.08 21.75 9.75 21.42 9.75 21L9.76 20.98L11.23 20.98ZM5.01 8.22L5 8.25C4.58 8.25 4.25 7.92 4.25 7.5C4.25 7.07 4.58 6.75 5 6.75L5.01 6.77L5.01 8.22ZM8.48 6.77L8.5 6.75C8.91 6.75 9.25 7.07 9.25 7.5C9.25 7.92 8.91 8.25 8.5 8.25L8.48 8.22L8.48 6.77ZM5.01 11.23L5 11.25C4.58 11.25 4.25 10.92 4.25 10.5C4.25 10.08 4.58 9.75 5 9.75L5.01 9.77L5.01 11.23ZM8.48 9.77L8.5 9.75C8.91 9.75 9.25 10.08 9.25 10.5C9.25 10.92 8.91 11.25 8.5 11.25L8.48 11.23L8.48 9.77ZM5.01 14.23L5 14.25C4.58 14.25 4.25 13.92 4.25 13.5C4.25 13.08 4.58 12.75 5 12.75L5.01 12.77L5.01 14.23ZM8.48 12.77L8.5 12.75C8.91 12.75 9.25 13.08 9.25 13.5C9.25 13.92 8.91 14.25 8.5 14.25L8.48 14.23L8.48 12.77Z" fill="#000000" fill-opacity="0" fill-rule="nonzero"/>
    <path id="path" d="M10.5 3L10.5 21M5 7.5L8.5 7.5M5 10.5L8.5 10.5M5 13.5L8.5 13.5" stroke="currentColor" stroke-opacity="1.000000" stroke-width="1.500000" stroke-linejoin="round" stroke-linecap="round"/>
    <path id="path" d="M6.51 21.73L6.5 21.75C6.08 21.75 5.75 21.42 5.75 21C5.75 20.58 6.08 20.25 6.5 20.25L6.51 20.27L6.51 21.73ZM9.48 20.27L9.5 20.25C9.91 20.25 10.25 20.58 10.25 21C10.25 21.42 9.91 21.75 9.5 21.75L9.48 21.73L9.48 20.27Z" fill="#000000" fill-opacity="0" fill-rule="nonzero"/>
    <path id="path" d="M6.5 21L9.5 21" stroke="currentColor" stroke-opacity="1.000000" stroke-width="1.500000" stroke-linejoin="round" stroke-linecap="round"/>
    <path id="path" d="M6.51 3.72L6.5 3.75C6.08 3.75 5.75 3.42 5.75 3C5.75 2.57 6.08 2.25 6.5 2.25L6.51 2.27L6.51 3.72ZM9.48 2.27L9.5 2.25C9.91 2.25 10.25 2.57 10.25 3C10.25 3.42 9.91 3.75 9.5 3.75L9.48 3.72L9.48 2.27Z" fill="#000000" fill-opacity="0" fill-rule="nonzero"/>
    <path id="path" d="M6.5 3L9.5 3" stroke="currentColor" stroke-opacity="1.000000" stroke-width="1.500000" stroke-linejoin="round" stroke-linecap="round"/>
    <path id="矢量 1" d="M13.5 9.06L17.04 12.15C16.98 12.1 16.95 12.04 16.95 11.96C16.95 11.88 16.99 11.81 17.05 11.77L13.54 14.4L14.45 15.6L17.95 12.97C18.11 12.85 18.23 12.71 18.32 12.53C18.4 12.37 18.44 12.2 18.45 12.01C18.46 11.83 18.43 11.65 18.35 11.48C18.28 11.3 18.17 11.15 18.02 11.02L14.49 7.93L13.5 9.06ZM14.49 7.96L14.49 7.93C14.17 7.65 13.71 7.69 13.43 8C13.15 8.32 13.19 8.78 13.5 9.06L13.53 9.06L14.49 7.96ZM13.57 14.4L13.54 14.4C13.21 14.65 13.14 15.11 13.4 15.45C13.65 15.78 14.11 15.85 14.45 15.6L14.45 15.57L13.57 14.4Z" fill="currentColor" fill-opacity="1.000000" fill-rule="evenodd"/>
  </g>
</svg>
