<svg viewBox="0 0 16 16" xmlns="http://www.w3.org/2000/svg" xmlns:xlink="http://www.w3.org/1999/xlink" width="16.000000" height="16.000000" fill="none" customFrame="#000000">
	<mask id="mask_0" width="16.000000" height="16.000000" x="0.000000" y="0.000000" maskUnits="userSpaceOnUse">
		<g filter="url(#pixso_custom_mask_type_outline)">
			<rect id="SVG" width="16.000000" height="16.000000" x="0.000000" y="0.000000" fill="rgb(255,255,255)" />
			<rect id="SVG" width="16.000000" height="16.000000" x="0.000000" y="0.000000" stroke="rgb(255,255,255)" stroke-width="0" />
		</g>
	</mask>
	<defs>
		<linearGradient id="paint_linear_0" x1="8" x2="8" y1="7.10542736e-15" y2="16.097971" gradientUnits="userSpaceOnUse">
			<stop stop-color="rgb(192,170,253)" offset="0" stop-opacity="1" />
			<stop stop-color="rgb(104,137,255)" offset="1" stop-opacity="1" />
		</linearGradient>
		<clipPath id="clipPath_0">
			<rect width="16.000000" height="16.000000" x="0.000000" y="0.000000" fill="rgb(255,255,255)" />
		</clipPath>
		<linearGradient id="paint_linear_1" x1="8" x2="8" y1="7.10542736e-15" y2="16.097971" gradientUnits="userSpaceOnUse">
			<stop stop-color="rgb(192,170,253)" offset="0" stop-opacity="1" />
			<stop stop-color="rgb(104,137,255)" offset="1" stop-opacity="1" />
		</linearGradient>
		<linearGradient id="paint_linear_2" x1="8" x2="8" y1="7.10542736e-15" y2="16.097971" gradientUnits="userSpaceOnUse">
			<stop stop-color="rgb(192,170,253)" offset="0" stop-opacity="1" />
			<stop stop-color="rgb(104,137,255)" offset="1" stop-opacity="1" />
		</linearGradient>
		<filter id="pixso_custom_mask_type_outline">
			<feColorMatrix type="matrix" values="0 0 0 0 1 0 0 0 0 1 0 0 0 0 1 0 0 0 1 0 " />
		</filter>
		<linearGradient id="paint_linear_3" x1="4.25" x2="4.25" y1="1.5" y2="7.03367758" gradientUnits="userSpaceOnUse">
			<stop stop-color="rgb(192,170,253)" offset="0" stop-opacity="1" />
			<stop stop-color="rgb(104,137,255)" offset="1" stop-opacity="1" />
		</linearGradient>
		<linearGradient id="paint_linear_4" x1="4.25" x2="4.25" y1="9" y2="14.5336781" gradientUnits="userSpaceOnUse">
			<stop stop-color="rgb(192,170,253)" offset="0" stop-opacity="1" />
			<stop stop-color="rgb(104,137,255)" offset="1" stop-opacity="1" />
		</linearGradient>
		<linearGradient id="paint_linear_5" x1="11.75" x2="11.75" y1="9" y2="14.5336781" gradientUnits="userSpaceOnUse">
			<stop stop-color="rgb(192,170,253)" offset="0" stop-opacity="1" />
			<stop stop-color="rgb(104,137,255)" offset="1" stop-opacity="1" />
		</linearGradient>
		<linearGradient id="paint_linear_6" x1="11.9998045" x2="11.9998045" y1="0.80078125" y2="7.23996973" gradientUnits="userSpaceOnUse">
			<stop stop-color="rgb(192,170,253)" offset="0" stop-opacity="1" />
			<stop stop-color="rgb(104,137,255)" offset="1" stop-opacity="1" />
		</linearGradient>
		<linearGradient id="paint_linear_7" x1="11.9998045" x2="11.9998045" y1="0.80078125" y2="7.23996973" gradientUnits="userSpaceOnUse">
			<stop stop-color="rgb(192,170,253)" offset="0" stop-opacity="1" />
			<stop stop-color="rgb(104,137,255)" offset="1" stop-opacity="1" />
		</linearGradient>
	</defs>
	<rect id="Group 427319026" width="16.000000" height="16.000000" x="0.000000" y="0.000000" />
	<g id="SVG" clip-path="url(#clipPath_0)" customFrame="url(#clipPath_0)">
		<rect id="SVG" width="16.000000" height="16.000000" x="0.000000" y="0.000000" fill="rgb(255,255,255)" fill-opacity="0" />
		<rect id="SVG" width="16.000000" height="16.000000" x="0.000000" y="0.000000" stroke="url(#paint_linear_0)" stroke-linejoin="bevel" stroke-width="0" />
		<rect id="SVG" width="16.000000" height="16.000000" x="0.000000" y="0.000000" fill="rgb(255,255,255)" fill-opacity="0" />
		<rect id="SVG" width="16.000000" height="16.000000" x="0.000000" y="0.000000" stroke="url(#paint_linear_1)" stroke-width="0" />
		<g mask="url(#mask_0)" />
		<rect id="h64" width="5.500000" height="5.500000" x="1.500000" y="1.500000" rx="0.781250" stroke="url(#paint_linear_3)" stroke-width="1.25" />
		<rect id="h65" width="5.500000" height="5.500000" x="9.000000" y="1.500000" rx="0.781250" opacity="0" stroke="rgb(54,98,255)" stroke-width="1.25" />
		<rect id="h66" width="5.500000" height="5.500000" x="1.500000" y="9.000000" rx="0.781250" stroke="url(#paint_linear_4)" stroke-width="1.25" />
		<rect id="h67" width="5.500000" height="5.500000" x="9.000000" y="9.000000" rx="0.781250" stroke="url(#paint_linear_5)" stroke-width="1.25" />
	</g>
	<rect id="SVG" width="16.000000" height="16.000000" x="0.000000" y="0.000000" stroke="url(#paint_linear_0)" stroke-linejoin="bevel" stroke-width="0" data-pixso-skip-parse="true" />
	<path id="Star 3" d="M12.8641 3.13649L15.1998 4.00078L12.8641 4.86507L11.9998 7.20078L11.1355 4.86507L8.7998 4.00078L11.1355 3.13649L11.9998 0.800781L12.8641 3.13649Z" fill="url(#paint_linear_6)" fill-rule="evenodd" />
	<path id="Star 3" d="M12.8641 3.13649L12.5329 2.24155L11.9998 0.800781L11.4667 2.24155L11.1355 3.13649L10.2406 3.46765L8.7998 4.00078L10.2406 4.53391L11.1355 4.86507L11.4667 5.76001L11.9998 7.20078L12.5329 5.76001L12.8641 4.86507L13.759 4.53391L15.1998 4.00078L13.759 3.46765L12.8641 3.13649ZM12.3183 4.00078L12.0858 3.91477L11.9998 3.68232L11.9138 3.91477L11.6813 4.00078L11.9138 4.08679L11.9998 4.31924L12.0858 4.08679L12.3183 4.00078Z" fill="url(#paint_linear_7)" fill-rule="evenodd" />
</svg>
