<svg width="16" height="17" viewBox="0 0 16 17" fill="none" xmlns="http://www.w3.org/2000/svg">
<g clip-path="url(#clip0_474_8245)">
<path d="M7.723 1.66598C7.82548 1.41959 8.17452 1.41959 8.277 1.66598L9.91341 5.60038C9.95661 5.70425 10.0543 5.77522 10.1664 5.78421L14.4139 6.12473C14.6799 6.14606 14.7878 6.47801 14.5851 6.65161L11.349 9.42373C11.2635 9.49691 11.2262 9.61174 11.2523 9.72117L12.241 13.866C12.3029 14.1256 12.0206 14.3307 11.7928 14.1917L8.15638 11.9705C8.06037 11.9119 7.93963 11.9119 7.84362 11.9705L4.20716 14.1917C3.97943 14.3307 3.69705 14.1256 3.75897 13.866L4.74767 9.72117C4.77377 9.61174 4.73646 9.49691 4.65102 9.42373L1.41486 6.65161C1.2122 6.47801 1.32006 6.14606 1.58606 6.12473L5.83357 5.78421C5.94571 5.77522 6.04339 5.70425 6.08659 5.60038L7.723 1.66598Z" stroke="#1D2129" stroke-width="1.33"/>
</g>
<defs>
<clipPath id="clip0_474_8245">
<rect width="16" height="16" fill="white" transform="translate(0 0.5)"/>
</clipPath>
</defs>
</svg>
