<svg width="22.000000" height="22.000000" viewBox="0 0 22 22" fill="none" xmlns="http://www.w3.org/2000/svg" xmlns:xlink="http://www.w3.org/1999/xlink">
  <desc>
    Created with Pixso.
  </desc>
  <defs>
    <clipPath id="clip68_1744">
      <rect id="设置" width="18.000000" height="18.000000" transform="translate(2.000000 2.000000)" fill="white" fill-opacity="0"/>
    </clipPath>
    <clipPath id="clip68_1745">
      <rect id="画板 61" width="22.000000" height="22.000000" fill="white" fill-opacity="0"/>
    </clipPath>
  </defs>
  <rect id="画板 61" width="22.000000" height="22.000000" fill="#FFFFFF" fill-opacity="0"/>
  <g clip-path="url(#clip68_1745)">
    <g clip-path="url(#clip68_1744)">
      <path id="path" d="M8.85 18.18C7.59 17.81 6.48 17.12 5.59 16.2C5.92 15.8 6.12 15.3 6.12 14.75C6.12 13.5 5.11 12.5 3.87 12.5C3.79 12.5 3.72 12.5 3.65 12.51C3.55 12.02 3.5 11.51 3.5 11C3.5 10.21 3.62 9.46 3.84 8.75C5.08 8.75 6.12 7.74 6.12 6.5C6.12 6.14 6.04 5.8 5.89 5.5C6.76 4.7 7.82 4.09 8.99 3.77C9.36 4.5 10.12 5 11 5C11.87 5 12.63 4.5 13 3.77C14.17 4.09 15.23 4.7 16.1 5.5C15.95 5.8 15.87 6.14 15.87 6.5C15.87 7.74 16.88 8.75 18.12 8.75C18.34 9.46 18.5 10.21 18.5 11C18.5 11.51 18.44 12.02 18.34 12.51C18.27 12.5 18.2 12.5 18.12 12.5C16.88 12.5 15.87 13.5 15.87 14.75C15.87 15.3 16.07 15.8 16.4 16.2C15.51 17.12 14.4 17.81 13.14 18.18C12.85 17.28 12 16.62 11 16.62C9.99 16.62 9.14 17.28 8.85 18.18Z" fill="#000000" fill-opacity="0" fill-rule="nonzero"/>
      <path id="path" d="M5.59 16.2C5.92 15.8 6.12 15.3 6.12 14.75C6.12 13.5 5.11 12.5 3.87 12.5C3.79 12.5 3.72 12.5 3.65 12.51C3.55 12.02 3.5 11.51 3.5 11C3.5 10.21 3.62 9.46 3.84 8.75C5.08 8.75 6.12 7.74 6.12 6.5C6.12 6.14 6.04 5.8 5.89 5.5C6.76 4.7 7.82 4.09 8.99 3.77C9.36 4.5 10.12 5 11 5C11.87 5 12.63 4.5 13 3.77C14.17 4.09 15.23 4.7 16.1 5.5C15.95 5.8 15.87 6.14 15.87 6.5C15.87 7.74 16.88 8.75 18.12 8.75C18.34 9.46 18.5 10.21 18.5 11C18.5 11.51 18.44 12.02 18.34 12.51C18.27 12.5 18.2 12.5 18.12 12.5C16.88 12.5 15.87 13.5 15.87 14.75C15.87 15.3 16.07 15.8 16.4 16.2C15.51 17.12 14.4 17.81 13.14 18.18C12.85 17.28 12 16.62 11 16.62C9.99 16.62 9.14 17.28 8.85 18.18C7.59 17.81 6.48 17.12 5.59 16.2Z" stroke="currentColor" stroke-opacity="1.000000" stroke-width="1.125000" stroke-linejoin="round"/>
      <path id="path" d="M11 13.62C12.44 13.62 13.62 12.44 13.62 11C13.62 9.55 12.44 8.37 11 8.37C9.55 8.37 8.37 9.55 8.37 11C8.37 12.44 9.55 13.62 11 13.62Z" fill="#000000" fill-opacity="0" fill-rule="nonzero"/>
      <path id="path" d="M13.62 11C13.62 9.55 12.44 8.37 11 8.37C9.55 8.37 8.37 9.55 8.37 11C8.37 12.44 9.55 13.62 11 13.62C12.44 13.62 13.62 12.44 13.62 11Z" stroke="currentColor" stroke-opacity="1.000000" stroke-width="1.125000" stroke-linejoin="round"/>
    </g>
  </g>
</svg>
