<svg viewBox="0 0 60 60" xmlns="http://www.w3.org/2000/svg" xmlns:xlink="http://www.w3.org/1999/xlink" width="60.000000" height="60.000000" fill="none" customFrame="#000000">
	<rect id="表格" width="60.000000" height="60.000000" x="0.000000" y="0.000000" />
	<path id="Shape" d="M5.42969 54.5614L54.5462 54.5611L54.5463 5.47266L5.4298 5.47292L5.42969 54.5614ZM31.3641 24.6507L51.8189 24.6504L51.8189 13.7386L31.3641 13.7389L31.3641 24.6507ZM28.6368 24.6507L8.15696 24.6507L8.15696 13.7389L28.6368 13.7389L28.6368 24.6507ZM31.3641 38.2843L51.8189 38.2841L51.8189 27.375L31.3641 27.3752L31.3641 38.2843ZM28.6368 38.2843L8.15696 38.2843L8.15696 27.3752L28.6368 27.3752L28.6368 38.2843ZM31.3641 51.8368L51.8189 51.8366L51.8189 40.9129L31.3641 40.9132L31.3641 51.8368ZM28.6368 51.8368L8.15696 51.8368L8.15696 40.9132L28.6368 40.9132L28.6368 51.8368Z" fill="rgb(201,205,212)" fill-rule="evenodd" />
</svg>
