<svg viewBox="0 0 32 32" xmlns="http://www.w3.org/2000/svg" xmlns:xlink="http://www.w3.org/1999/xlink" width="32" height="32" fill="none" customFrame="#000000">
	<rect id="属性 1=变体5" width="32" height="32" x="0" y="0" />
	<path id="减去顶层" d="M7 30L25 30C26.6569 30 28 28.6569 28 27L28 10.1098C28 9.39364 27.7438 8.70113 27.2778 8.1574L22.898 3.04763C22.328 2.38269 21.496 2 20.6202 2L7 2C5.34315 2 4 3.34315 4 5L4 27C4 28.6569 5.34315 30 7 30ZM9.93555 15.7549L12.0938 15.7549L12.0938 14.4365L6.16602 14.4365L6.16602 15.7549L8.31934 15.7549L8.31934 22L9.93555 22L9.93555 15.7549ZM17.2695 22L19.1836 22L16.8398 18.1865L19.125 14.4365L17.3232 14.4365L16.0781 16.7266C15.9805 16.9544 15.8975 17.1709 15.8291 17.376L15.8096 17.376C15.7445 17.1481 15.6663 16.9398 15.5752 16.751L14.4473 14.4365L12.4844 14.4365L14.7012 18.2158L12.2744 22L14.2031 22L15.5654 19.5049C15.6566 19.2835 15.7152 19.1143 15.7412 18.9971L15.7607 18.9971C15.8128 19.2347 15.8633 19.3991 15.9121 19.4902L17.2695 22ZM23.3779 15.7549L25.5361 15.7549L25.5361 14.4365L19.6084 14.4365L19.6084 15.7549L21.7617 15.7549L21.7617 22L23.3779 22L23.3779 15.7549Z" fill="rgb(54,98,255)" fill-rule="evenodd" />
</svg>
