<svg viewBox="0 0 32 32" xmlns="http://www.w3.org/2000/svg" xmlns:xlink="http://www.w3.org/1999/xlink" width="32.000000" height="32.000000" fill="none">
	<rect id="上传-1" width="32.000000" height="32.000000" x="0.000000" y="0.000000" />
	<path id="path" d="M4.30918 0C3.44055 0.0219062 2.74168 0.721906 2.71974 1.59169L2.71974 30.2608C2.71881 30.4714 2.75983 30.6735 2.84281 30.8671C2.92578 31.0607 3.04385 31.2298 3.19702 31.3744C3.34271 31.5256 3.512 31.6427 3.70491 31.7256C3.89781 31.8085 4.09925 31.8508 4.30921 31.8525L27.6322 31.8525C27.8427 31.8532 28.0446 31.8121 28.2379 31.729C28.4313 31.6459 28.6001 31.5278 28.7444 31.3746C28.8951 31.2282 29.0118 31.0585 29.0945 30.8655C29.1772 30.6724 29.2196 30.4708 29.2217 30.2608L29.2217 9.02237L20.21 0L4.30918 0Z" fill="rgb(149.244,154.78,161.424)" fill-rule="nonzero" />
	<path id="path" d="M29.2217 9.02241L21.8015 9.02241C20.9321 9.00159 20.2319 8.30128 20.21 7.43072L20.21 0L29.2217 9.02241Z" fill="rgb(232,239,255)" fill-rule="nonzero" />
	<path id="path" d="M11.0678 16.9624L13.8504 16.9624L13.8504 21.4736C13.8522 21.5435 13.8668 21.6105 13.8944 21.6748C13.922 21.7391 13.9605 21.7959 14.0099 21.8454C14.0593 21.8949 14.1161 21.9334 14.1803 21.9611C14.2446 21.9887 14.3116 22.0035 14.3815 22.0054L17.5606 22.0054C17.6305 22.0035 17.6976 21.9887 17.7618 21.9611C17.826 21.9334 17.8829 21.8949 17.9323 21.8454C17.9817 21.7959 18.0202 21.7391 18.0477 21.6748C18.0753 21.6105 18.09 21.5435 18.0918 21.4736L18.0918 16.9624L20.8742 16.9624C20.9278 16.9668 20.9769 16.9541 21.0216 16.9241C21.0662 16.8942 21.0967 16.8536 21.1129 16.8024C21.1313 16.7526 21.1357 16.7016 21.126 16.6495C21.1163 16.5973 21.094 16.5513 21.059 16.5115L16.3425 11.9961C16.2379 11.8982 16.1141 11.8449 15.9712 11.8361C15.9005 11.8342 15.8327 11.8472 15.7678 11.8752C15.7028 11.9031 15.6468 11.9434 15.5996 11.9961L10.8834 16.5073C10.8415 16.5435 10.8156 16.5889 10.8055 16.6433C10.7954 16.6977 10.8034 16.7493 10.8294 16.7982C10.8487 16.847 10.8802 16.886 10.9238 16.9153C10.9674 16.9445 11.0155 16.9588 11.068 16.9582L11.0678 16.9624ZM22.5966 23.8631L9.34554 23.8631C9.24686 23.857 9.15372 23.8769 9.06613 23.9228C8.97854 23.9686 8.90918 24.0339 8.85804 24.1185C8.80685 24.2032 8.78125 24.2951 8.78125 24.394C8.78125 24.493 8.80685 24.5849 8.85804 24.6696C8.90918 24.7542 8.97855 24.8194 9.06614 24.8653C9.15372 24.9112 9.24686 24.931 9.34554 24.9249L22.5966 24.9249C22.6641 24.9206 22.7284 24.904 22.7895 24.8752C22.8507 24.8464 22.9044 24.8073 22.9506 24.758C22.9969 24.7087 23.0324 24.6526 23.0573 24.5897C23.0821 24.5269 23.0945 24.4616 23.0945 24.394C23.0945 24.3264 23.0821 24.2612 23.0573 24.1983C23.0324 24.1354 22.9969 24.0793 22.9506 24.03C22.9044 23.9807 22.8507 23.9417 22.7895 23.9128C22.7284 23.884 22.6641 23.8674 22.5966 23.8631Z" fill="rgb(255,255,255)" fill-rule="nonzero" />
</svg>
