<svg viewBox="0 0 283 149" xmlns="http://www.w3.org/2000/svg" xmlns:xlink="http://www.w3.org/1999/xlink" width="283.000488" height="149.000000" fill="none" customFrame="#000000">
	<defs>
		<linearGradient id="paint_linear_0" x1="53.000061" x2="155.999985" y1="-32.5" y2="134.999969" gradientUnits="userSpaceOnUse">
			<stop stop-color="rgb(240,239,255)" offset="0" stop-opacity="1" />
			<stop stop-color="rgb(254,254,255)" offset="1" stop-opacity="0" />
		</linearGradient>
		<linearGradient id="paint_linear_1" x1="214.5" x2="87.5000305" y1="148.999985" y2="14.999939" gradientUnits="userSpaceOnUse">
			<stop stop-color="rgb(183,196,255)" offset="0.322167754" stop-opacity="1" />
			<stop stop-color="rgb(255,255,255)" offset="1" stop-opacity="0" />
		</linearGradient>
		<g id="pixso_custom_effect_0">
			<effect x="1.000000" y="1.500000" visibility="visible" fill="rgb(213,178,255)" fill-opacity="1" effectType="innerShadow" stdDeviation="2.5" radius="0" />
		</g>
		<filter id="filter_0" width="98.000000" height="88.000000" x="92.998535" y="28.000000" filterUnits="userSpaceOnUse" customEffect="url(#pixso_custom_effect_0)" color-interpolation-filters="sRGB">
			<feFlood flood-opacity="0" result="BackgroundImageFix" />
			<feBlend result="shape" in="SourceGraphic" in2="BackgroundImageFix" mode="normal" />
			<feOffset dx="1.000000" dy="1.500000" in="SourceAlpha" />
			<feGaussianBlur stdDeviation="0.833333313" />
			<feComposite k2="-1" k3="1" in2="SourceAlpha" operator="arithmetic" />
			<feColorMatrix type="matrix" values="0 0 0 0 0.835294 0 0 0 0 0.698039 0 0 0 0 1 0 0 0 1 0 " />
			<feBlend result="effect_innerShadow_1" in2="shape" mode="normal" />
		</filter>
		<linearGradient id="paint_linear_2" x1="93.1938553" x2="159.343857" y1="18.9066505" y2="115.999985" gradientUnits="userSpaceOnUse">
			<stop stop-color="rgb(246,231,255)" offset="0.0253164563" stop-opacity="1" />
			<stop stop-color="rgb(196,209,255)" offset="1" stop-opacity="1" />
		</linearGradient>
		<linearGradient id="paint_linear_3" x1="89.1220627" x2="-4.81218719" y1="36.8262939" y2="36.8262329" gradientUnits="userSpaceOnUse">
			<stop stop-color="rgb(229,235,255)" offset="0" stop-opacity="0" />
			<stop stop-color="rgb(235,230,255)" offset="1" stop-opacity="1" />
		</linearGradient>
		<linearGradient id="paint_linear_4" x1="-0.194831237" x2="87.8709106" y1="71.8263245" y2="71.8262939" gradientUnits="userSpaceOnUse">
			<stop stop-color="rgb(235,230,255)" offset="0" stop-opacity="1" />
			<stop stop-color="rgb(229,235,255)" offset="1" stop-opacity="0" />
		</linearGradient>
	</defs>
	<g id="组合 315">
		<ellipse id="椭圆 24" rx="74.500000" ry="74.499992" cx="140.498047" cy="74.4999924" fill="url(#paint_linear_0)" />
		<ellipse id="椭圆 24" rx="74.500000" ry="74.499992" cx="140.498047" cy="74.4999924" fill="url(#paint_linear_1)" fill-opacity="0.200000003" />
		<g filter="url(#filter_0)">
			<path id="矢量 206" d="M144.027 37.7778L186.098 37.7778C186.42 37.7778 186.738 37.8091 187.054 37.8717C187.37 37.9343 187.676 38.0271 187.973 38.1499C188.27 38.2728 188.553 38.4234 188.82 38.6017C189.088 38.78 189.335 38.9827 189.563 39.2097C189.79 39.4367 189.993 39.6836 190.172 39.9505C190.351 40.2175 190.502 40.4992 190.625 40.7958C190.748 41.0923 190.841 41.398 190.904 41.7129C190.967 42.0277 190.998 42.3457 190.998 42.6667L190.998 111.111C190.998 111.432 190.967 111.75 190.904 112.065C190.841 112.38 190.748 112.685 190.625 112.982C190.502 113.279 190.351 113.56 190.172 113.827C189.993 114.094 189.79 114.341 189.563 114.568C189.335 114.795 189.088 114.998 188.82 115.176C188.553 115.354 188.27 115.505 187.973 115.628C187.676 115.751 187.37 115.843 187.054 115.906C186.738 115.969 186.42 116 186.098 116L97.898 116C97.5763 116 97.2577 115.969 96.9421 115.906C96.6265 115.843 96.3201 115.751 96.0229 115.628C95.7256 115.505 95.4433 115.354 95.1758 115.176C94.9082 114.998 94.6607 114.795 94.4332 114.568C94.2057 114.341 94.0026 114.094 93.8238 113.827C93.6451 113.56 93.4942 113.279 93.371 112.982C93.2479 112.685 93.155 112.38 93.0922 112.065C93.0294 111.75 92.998 111.432 92.998 111.111L92.998 32.8889C92.998 32.5679 93.0294 32.25 93.0922 31.9351C93.155 31.6203 93.2479 31.3146 93.371 31.018C93.4942 30.7214 93.6451 30.4397 93.8238 30.1728C94.0026 29.9059 94.2057 29.6589 94.4332 29.4319C94.6607 29.2049 94.9082 29.0023 95.1758 28.8239C95.4433 28.6456 95.7256 28.495 96.0229 28.3721C96.3201 28.2493 96.6265 28.1566 96.9421 28.0939C97.2577 28.0313 97.5763 28 97.898 28L126.783 28C131.55 28 136.122 29.8908 139.496 33.2576L144.027 37.7778L144.027 37.7778ZM137.098 77.1333C136.688 77.0499 136.275 76.9875 135.859 76.9462C135.442 76.905 135.025 76.8851 134.607 76.8865C134.188 76.8879 133.771 76.9106 133.355 76.9547C132.939 76.9987 132.526 77.0639 132.117 77.1501C131.708 77.2363 131.304 77.3432 130.906 77.4707C130.507 77.5983 130.116 77.7458 129.733 77.9132C129.35 78.0807 128.976 78.2673 128.612 78.4729C128.248 78.6786 127.896 78.9023 127.555 79.144C127.214 79.3857 126.886 79.6441 126.571 79.9193C126.257 80.1945 125.957 80.4851 125.672 80.7909C125.388 81.0967 125.119 81.4163 124.867 81.7496C124.616 82.0828 124.381 82.4281 124.165 82.7853C123.948 83.1425 123.751 83.5098 123.572 83.8872C123.393 84.2646 123.235 84.6501 123.095 85.0438C122.956 85.4374 122.838 85.8371 122.74 86.2429C122.641 86.6487 122.564 87.0584 122.508 87.472C122.452 87.8857 122.418 88.3011 122.404 88.7183C122.391 89.1355 122.399 89.5523 122.428 89.9686C122.458 90.385 122.509 90.7988 122.58 91.21C122.652 91.6212 122.745 92.0276 122.859 92.4294C122.973 92.8311 123.106 93.2259 123.261 93.6139C123.415 94.0019 123.589 94.3811 123.782 94.7513C123.975 95.1216 124.186 95.4811 124.417 95.8297C124.647 96.1783 124.894 96.5143 125.158 96.8377C125.423 97.161 125.703 97.47 126 97.7647C126.296 98.0594 126.607 98.3382 126.932 98.6012C127.256 98.8641 127.594 99.1098 127.944 99.3382C128.294 99.5666 128.655 99.7766 129.027 99.9681C129.399 100.16 129.779 100.332 130.169 100.484C130.558 100.637 130.954 100.769 131.357 100.882C131.76 100.994 132.168 101.085 132.58 101.155C132.992 101.226 133.407 101.275 133.825 101.303C134.242 101.331 134.66 101.338 135.078 101.323C135.496 101.309 135.912 101.273 136.327 101.216C136.741 101.158 137.152 101.08 137.558 100.981C137.964 100.882 138.365 100.762 138.759 100.622C139.153 100.482 139.539 100.322 139.916 100.143C140.294 99.9633 140.662 99.765 141.019 99.5479C141.376 99.3308 141.722 99.0961 142.055 98.8437C142.388 98.5913 142.707 98.3226 143.013 98.0376C143.319 97.7525 143.609 97.4527 143.884 97.138C144.159 96.8233 144.417 96.4954 144.658 96.1543C144.899 95.8132 145.122 95.4608 145.327 95.0969C145.532 94.733 145.718 94.3596 145.884 93.9768C146.051 93.5939 146.198 93.2035 146.324 92.8057C146.451 92.4078 146.557 92.0046 146.642 91.5959C146.727 91.1872 146.791 90.7753 146.834 90.36C146.876 89.9448 146.898 89.5285 146.898 89.1111L146.898 71.1111C146.898 68.902 148.689 67.1111 150.898 67.1111L159.098 67.1111C160.479 67.1111 161.598 65.9918 161.598 64.6111L161.598 59.8333C161.598 58.4526 160.479 57.3333 159.098 57.3333L141.098 57.3333C138.889 57.3333 137.098 59.1242 137.098 61.3333L137.098 77.1333L137.098 77.1333Z" fill="url(#paint_linear_2)" fill-rule="nonzero" />
		</g>
		<path id="矢量 207" d="M8.96875 9.25L15.375 9.25L15.375 64.75L8.96875 64.75L8.96875 9.25ZM0 25.8711L6.40625 25.8711L6.40625 52.7539L0 52.7539L0 25.8711ZM17.9375 0L24.3438 0L24.3438 74L17.9375 74L17.9375 0ZM28.1875 25.4375L34.5938 25.4375L34.5938 48.5625L28.1875 48.5625L28.1875 25.4375ZM38.4375 18.5L44.8438 18.5L44.8438 55.5L38.4375 55.5L38.4375 18.5ZM48.6875 9.25L55.0938 9.25L55.0938 64.75L48.6875 64.75L48.6875 9.25ZM57.6562 27.75L64.0625 27.75L64.0625 46.25L57.6562 46.25L57.6562 27.75ZM66.625 18.5L73.0312 18.5L73.0312 55.5L66.625 55.5L66.625 18.5ZM75.5938 25.4375L82 25.4375L82 48.5625L75.5938 48.5625L75.5938 25.4375Z" fill="url(#paint_linear_3)" fill-rule="nonzero" transform="matrix(-1,0,0,1,283,35)" />
		<path id="矢量 207" d="M9.07812 44.25L15.5625 44.25L15.5625 99.75L9.07812 99.75L9.07812 44.25ZM0 60.8711L6.48438 60.8711L6.48438 87.7539L0 87.7539L0 60.8711ZM18.1562 35L24.6406 35L24.6406 109L18.1562 109L18.1562 35ZM28.5312 60.4375L35.0156 60.4375L35.0156 83.5625L28.5312 83.5625L28.5312 60.4375ZM38.9062 53.5L45.3906 53.5L45.3906 90.5L38.9062 90.5L38.9062 53.5ZM49.2812 44.25L55.7656 44.25L55.7656 99.75L49.2812 99.75L49.2812 44.25ZM58.3594 62.75L64.8438 62.75L64.8438 81.25L58.3594 81.25L58.3594 62.75ZM67.4375 53.5L73.9219 53.5L73.9219 90.5L67.4375 90.5L67.4375 53.5ZM76.5156 60.4375L83 60.4375L83 83.5625L76.5156 83.5625L76.5156 60.4375Z" fill="url(#paint_linear_4)" fill-rule="nonzero" />
	</g>
</svg>
