<svg viewBox="0 0 60 60" xmlns="http://www.w3.org/2000/svg" xmlns:xlink="http://www.w3.org/1999/xlink" width="60.000000" height="60.000000" fill="none">
	<defs>
		<g id="pixso_custom_effect_2">
			<effect x="0.500000" y="0.500000" visibility="visible" fill="rgb(151,232,255)" fill-opacity="1" effectType="innerShadow" stdDeviation="0.800000012" radius="0" />
		</g>
		<filter id="filter_2" width="52.500000" height="43.750000" x="3.750000" y="8.750000" filterUnits="userSpaceOnUse" customEffect="url(#pixso_custom_effect_2)" color-interpolation-filters="sRGB">
			<feFlood flood-opacity="0" result="BackgroundImageFix" />
			<feBlend result="shape" in="SourceGraphic" in2="BackgroundImageFix" mode="normal" />
			<feOffset dx="0.500000" dy="0.500000" in="SourceAlpha" />
			<feGaussianBlur stdDeviation="0.266666681" />
			<feComposite k2="-1" k3="1" in2="SourceAlpha" operator="arithmetic" />
			<feColorMatrix type="matrix" values="0 0 0 0 0.592157 0 0 0 0 0.909804 0 0 0 0 1 0 0 0 1 0 " />
			<feBlend result="effect_innerShadow_1" in2="shape" mode="normal" />
		</filter>
		<linearGradient id="paint_linear_2" x1="3.85489845" x2="39.2923965" y1="4.2291584" y2="52.5" gradientUnits="userSpaceOnUse">
			<stop stop-color="rgb(195,238,61)" offset="0.0253164563" stop-opacity="1" />
			<stop stop-color="rgb(67,216,227)" offset="1" stop-opacity="1" />
		</linearGradient>
	</defs>
	<rect id="容器 18" width="60.000000" height="60.000000" x="0.000000" y="0.000000" />
	<g filter="url(#filter_2)">
		<path id="矢量 206" d="M31.0867 13.6111L53.625 13.6111C53.7974 13.6111 53.9681 13.6267 54.1371 13.6578C54.3062 13.6889 54.4703 13.7351 54.6295 13.7961C54.7888 13.8572 54.9401 13.9321 55.0834 14.0207C55.2267 14.1094 55.3593 14.2102 55.4811 14.323C55.603 14.4359 55.7118 14.5586 55.8076 14.6913C55.9034 14.824 55.9842 14.9641 56.0502 15.1115C56.1161 15.259 56.1659 15.411 56.1996 15.5675C56.2332 15.724 56.25 15.8821 56.25 16.0417L56.25 50.0695C56.25 50.229 56.2332 50.3871 56.1996 50.5436C56.1659 50.7001 56.1161 50.8521 56.0502 50.9996C55.9842 51.147 55.9034 51.2871 55.8076 51.4198C55.7118 51.5525 55.603 51.6753 55.4812 51.7881C55.3593 51.901 55.2267 52.0017 55.0834 52.0904C54.9401 52.179 54.7888 52.2539 54.6295 52.315C54.4703 52.3761 54.3062 52.4222 54.1371 52.4533C53.9681 52.4844 53.7974 52.5 53.625 52.5L6.375 52.5C6.20264 52.5 6.03194 52.4844 5.86289 52.4533C5.69384 52.4222 5.5297 52.3761 5.37046 52.315C5.21122 52.2539 5.05994 52.179 4.91663 52.0904C4.77332 52.0017 4.64072 51.901 4.51885 51.7881C4.39697 51.6753 4.28815 51.5525 4.19239 51.4198C4.09663 51.2871 4.01578 51.147 3.94982 50.9996C3.88386 50.8521 3.83406 50.7001 3.80044 50.5436C3.76681 50.3871 3.75 50.229 3.75 50.0695L3.75 11.1806C3.75 11.021 3.76681 10.8629 3.80044 10.7064C3.83406 10.5499 3.88386 10.3979 3.94982 10.2504C4.01578 10.103 4.09663 9.96291 4.19239 9.83021C4.28815 9.69752 4.39697 9.57474 4.51884 9.46189C4.64072 9.34904 4.77332 9.24829 4.91663 9.15962C5.05994 9.07096 5.21122 8.99609 5.37046 8.93501C5.5297 8.87394 5.69384 8.82784 5.86289 8.7967C6.03194 8.76557 6.20264 8.75 6.375 8.75L23.8774 8.75C25.137 8.75 26.3502 9.22541 27.2744 10.0812L31.0867 13.6111L31.0867 13.6111ZM27.375 33.1771C27.1554 33.1356 26.9341 33.1046 26.7111 33.0841C26.4881 33.0636 26.2645 33.0537 26.0404 33.0544C25.8162 33.0551 25.5927 33.0664 25.3699 33.0883C25.147 33.1102 24.9259 33.1425 24.7067 33.1854C24.4874 33.2283 24.271 33.2814 24.0576 33.3448C23.8442 33.4082 23.6349 33.4816 23.4296 33.5648C23.2243 33.6481 23.0241 33.7408 22.8291 33.8431C22.6341 33.9453 22.4452 34.0565 22.2625 34.1767C22.0797 34.2969 21.9041 34.4253 21.7356 34.5622C21.5671 34.699 21.4066 34.8434 21.2541 34.9955C21.1016 35.1475 20.9578 35.3064 20.8229 35.4721C20.6879 35.6378 20.5625 35.8094 20.4465 35.987C20.3306 36.1646 20.2247 36.3472 20.129 36.5348C20.0333 36.7225 19.9481 36.9141 19.8736 37.1098C19.799 37.3055 19.7355 37.5042 19.6829 37.706C19.6304 37.9077 19.5891 38.1114 19.5591 38.3171C19.5291 38.5227 19.5105 38.7292 19.5033 38.9367C19.4962 39.1441 19.5005 39.3513 19.5163 39.5583C19.532 39.7653 19.5592 39.971 19.5977 40.1754C19.6363 40.3799 19.686 40.5819 19.7469 40.7816C19.8078 40.9813 19.8795 41.1777 19.9621 41.3706C20.0447 41.5635 20.1378 41.752 20.2412 41.936C20.3447 42.1201 20.4581 42.2988 20.5813 42.4722C20.7046 42.6455 20.8371 42.8125 20.9788 42.9733C21.1205 43.134 21.2707 43.2877 21.4295 43.4342C21.5882 43.5807 21.7546 43.7193 21.9287 43.85C22.1027 43.9807 22.2835 44.1029 22.4711 44.2164C22.6587 44.33 22.8521 44.4344 23.0512 44.5296C23.2503 44.6248 23.4542 44.7104 23.6628 44.7863C23.8714 44.8622 24.0836 44.928 24.2995 44.9837C24.5154 45.0395 24.7338 45.0849 24.9547 45.1199C25.1756 45.1549 25.3979 45.1794 25.6215 45.1934C25.8451 45.2073 26.0689 45.2106 26.2929 45.2034C26.5168 45.1961 26.7398 45.1782 26.9618 45.1498C27.1838 45.1213 27.4037 45.0825 27.6214 45.0332C27.8391 44.9839 28.0535 44.9244 28.2647 44.8548C28.4758 44.7851 28.6825 44.7057 28.8848 44.6164C29.0872 44.5272 29.2841 44.4286 29.4755 44.3207C29.6669 44.2128 29.8519 44.0961 30.0304 43.9706C30.2089 43.8451 30.38 43.7115 30.5438 43.5698C30.7075 43.4281 30.863 43.279 31.0102 43.1226C31.1574 42.9661 31.2957 42.8031 31.4249 42.6335C31.5541 42.464 31.6736 42.2887 31.7834 42.1078C31.8932 41.9269 31.9927 41.7413 32.082 41.551C32.1712 41.3606 32.2498 41.1665 32.3176 40.9687C32.3854 40.7709 32.4421 40.5704 32.4877 40.3673C32.5333 40.1641 32.5676 39.9593 32.5905 39.7529C32.6135 39.5464 32.625 39.3395 32.625 39.1319L32.625 28.9944C32.625 28.5526 32.9832 28.1944 33.425 28.1944L39.7 28.1944C40.1418 28.1944 40.5 27.8363 40.5 27.3944L40.5 24.1333C40.5 23.6915 40.1418 23.3333 39.7 23.3333L28.175 23.3333C27.7332 23.3333 27.375 23.6915 27.375 24.1333L27.375 33.1771L27.375 33.1771Z" fill="url(#paint_linear_2)" fill-rule="nonzero" />
	</g>
</svg>
