<svg viewBox="0 0 20 20" xmlns="http://www.w3.org/2000/svg" xmlns:xlink="http://www.w3.org/1999/xlink" width="20.000000" height="20.000000" fill="none">
	<rect id="暂停 1" width="20.000000" height="20.000000" x="0.000000" y="0.000000" />
	<path id="矢量 203" d="M10.0003 18.3346C14.6027 18.3346 18.3337 14.6037 18.3337 10.0013C18.3337 5.39893 14.6027 1.66797 10.0003 1.66797C5.39795 1.66797 1.66699 5.39893 1.66699 10.0013C1.66699 14.6037 5.39795 18.3346 10.0003 18.3346Z" fill="rgb(250,173,20)" fill-rule="nonzero" />
	<path id="矢量 203" d="M18.3337 10.0013C18.3337 5.39893 14.6027 1.66797 10.0003 1.66797C5.39795 1.66797 1.66699 5.39893 1.66699 10.0013C1.66699 14.6037 5.39795 18.3346 10.0003 18.3346C14.6027 18.3346 18.3337 14.6037 18.3337 10.0013Z" fill-rule="nonzero" stroke="rgb(250,173,20)" stroke-linejoin="round" stroke-width="1.5" />
	<path id="矢量 204" d="M10 5L10 10" stroke="rgb(255,255,255)" stroke-linecap="round" stroke-linejoin="round" stroke-width="1.5" />
	<path id="矢量 205" d="M0 0L0 4.24264" stroke="rgb(255,255,255)" stroke-linecap="round" stroke-linejoin="round" stroke-width="1.5" transform="matrix(0.707107,-0.707107,0.707107,0.707107,10,10)" />
</svg>
