<svg width="24.000000" height="24.000000" viewBox="0 0 24 24" fill="none" xmlns="http://www.w3.org/2000/svg" xmlns:xlink="http://www.w3.org/1999/xlink">
  <desc>
    Created with Pixso.
  </desc>
  <defs>
    <clipPath id="clip199_1365">
      <rect id="文件-word" width="16.000000" height="16.000000" transform="translate(4.000000 4.000000)" fill="white" fill-opacity="0"/>
    </clipPath>
  </defs>
  <rect id="画板 279" rx="3.500000" width="23.000000" height="23.000000" transform="translate(0.500000 0.500000)" fill="#E8EFFF" fill-opacity="1.000000"/>
  <g clip-path="url(#clip199_1365)">
    <path id="path" d="M7.33 5.33L14 5.33L17.33 8.66L17.33 18C17.33 18.36 17.03 18.66 16.66 18.66L7.33 18.66C6.96 18.66 6.66 18.36 6.66 18L6.66 6C6.66 5.63 6.96 5.33 7.33 5.33Z" fill="#000000" fill-opacity="0" fill-rule="nonzero"/>
    <path id="path" d="M14 5.33L17.33 8.66L17.33 18C17.33 18.36 17.03 18.66 16.66 18.66L7.33 18.66C6.96 18.66 6.66 18.36 6.66 18L6.66 6C6.66 5.63 6.96 5.33 7.33 5.33L14 5.33Z" stroke="#3662FF" stroke-opacity="1.000000" stroke-width="1.500000" stroke-linejoin="round"/>
    <path id="path" d="M8.62 10.83L8.6 10.82C8.51 10.41 8.76 10.02 9.17 9.93C9.58 9.84 9.98 10.09 10.06 10.5L10.05 10.53L8.62 10.83ZM13.95 10.53L13.93 10.5C14.02 10.09 14.41 9.84 14.82 9.93C15.23 10.02 15.49 10.41 15.4 10.82L15.37 10.83L13.95 10.53Z" fill="#000000" fill-opacity="0" fill-rule="nonzero"/>
    <path id="path" d="M9.33 10.66L10.33 15.33L12 12L13.66 15.33L14.66 10.66" stroke="#3662FF" stroke-opacity="1.000000" stroke-width="1.500000" stroke-linejoin="round" stroke-linecap="round"/>
  </g>
  <rect id="画板 279" rx="3.500000" width="23.000000" height="23.000000" transform="translate(0.500000 0.500000)" stroke="#3662FF" stroke-opacity="1.000000" stroke-width="1.000000"/>
</svg>
