<svg width="312.000000" height="242.000000" viewBox="0 0 312 242" fill="none" xmlns="http://www.w3.org/2000/svg" xmlns:xlink="http://www.w3.org/1999/xlink">
  <desc>
    Created with Pixso.
  </desc>
  <defs/>
  <path id="path" d="M263.43 136.48L255.63 134.93L242.05 130.07L228.21 122.32L221.92 115.91L218.9 109.27L213.61 102.42L207.83 97.55L201.29 93.57L194.24 90.25L182.92 87.15L179.14 87.15L169.58 88.92L163.29 89.14L152.47 88.26L147.94 87.37L135.61 82.07L8.8 146.44L5.28 148.87L1 154.62L0 161.48L2.76 168.11L8.8 173.2L135.11 237.79L140.9 240.01L146.69 241.55L152.72 242L158.76 241.55L164.55 240.01L170.34 237.79L305.2 168.78L308.47 165.68L310.74 162.14L312 157.94L311.74 154.18L309.98 151.08L307.47 148.43L299.41 143.56L292.12 141.13L276.77 137.81L263.43 136.48Z" fill="#F3F6FD" fill-opacity="1.000000" fill-rule="nonzero"/>
  <path id="path" d="M255.63 134.93L242.05 130.07L228.21 122.32L221.92 115.91L218.9 109.27L213.61 102.42L207.83 97.55L201.29 93.57L194.24 90.25L182.92 87.15L179.14 87.15L169.58 88.92L163.29 89.14L152.47 88.26L147.94 87.37L135.61 82.07L8.8 146.44L5.28 148.87L1 154.62L0 161.48L2.76 168.11L8.8 173.2L135.11 237.79L140.9 240.01L146.69 241.55L152.72 242L158.76 241.55L164.55 240.01L170.34 237.79L305.2 168.78L308.47 165.68L310.74 162.14L312 157.94L311.74 154.18L309.98 151.08L307.47 148.43L299.41 143.56L292.12 141.13L276.77 137.81L263.43 136.48L255.63 134.93Z" stroke="#000000" stroke-opacity="0" stroke-width="1.000000"/>
  <path id="path" d="M0.25 157.94L65.92 191.56L89.32 179.84L16.35 142.67L17.86 141.79L90.58 179.17L114.23 167.23L41.26 129.85L42.27 129.4L115.23 166.56L138.89 154.62L66.17 117.46L66.92 116.79L139.89 154.18L163.29 142.23L90.58 104.85L91.83 104.19L164.8 141.57L188.2 129.62L115.23 92.46L116.74 91.8L287.34 178.29L286.08 178.95L189.21 130.29L165.81 142.01L262.68 190.9L261.42 191.56L164.55 142.67L91.83 179.62L188.7 228.5L187.2 229.17L90.32 180.28L67.18 192.22L163.04 240.45L161.03 241.11L0 159.27L0.25 157.94Z" fill="#FDFEFF" fill-opacity="1.000000" fill-rule="nonzero"/>
  <path id="path" d="M65.92 191.56L89.32 179.84L16.35 142.67L17.86 141.79L90.58 179.17L114.23 167.23L41.26 129.85L42.27 129.4L115.23 166.56L138.89 154.62L66.17 117.46L66.92 116.79L139.89 154.18L163.29 142.23L90.58 104.85L91.83 104.19L164.8 141.57L188.2 129.62L115.23 92.46L116.74 91.8L287.34 178.29L286.08 178.95L189.21 130.29L165.81 142.01L262.68 190.9L261.42 191.56L164.55 142.67L91.83 179.62L188.7 228.5L187.2 229.17L90.32 180.28L67.18 192.22L163.04 240.45L161.03 241.11L0 159.27L0.25 157.94L65.92 191.56Z" stroke="#000000" stroke-opacity="0" stroke-width="1.000000"/>
  <path id="path" d="M234.39 84.97L226.53 89.34L223.71 90.28L221.82 89.97L140.79 43.11L142.67 43.42L145.5 42.48L153.35 38.11L234.39 84.97Z" fill="#DEE7F8" fill-opacity="1.000000" fill-rule="nonzero"/>
  <path id="path" d="M226.53 89.34L223.71 90.28L221.82 89.97L140.79 43.11L142.67 43.42L145.5 42.48L153.35 38.11L234.39 84.97L226.53 89.34Z" stroke="#000000" stroke-opacity="0" stroke-width="1.000000"/>
  <path id="path" d="M156.49 182.13L75.46 135.27L75.46 134.64L156.49 181.19L156.49 182.13Z" fill="#9EB5DF" fill-opacity="1.000000" fill-rule="nonzero"/>
  <path id="path" d="M75.46 135.27L75.46 134.64L156.49 181.19L156.49 182.13L75.46 135.27Z" stroke="#000000" stroke-opacity="0" stroke-width="1.000000"/>
  <path id="path" d="M221.2 90.59L140.16 43.73L138.9 42.17L137.96 5.62L136.08 1.56L217.11 48.42L218.37 49.67L219 52.48L219 85.91L219.62 89.03L221.2 90.59Z" fill="#DEE7F8" fill-opacity="1.000000" fill-rule="nonzero"/>
  <path id="path" d="M140.16 43.73L138.9 42.17L137.96 5.62L136.08 1.56L217.11 48.42L218.37 49.67L219 52.48L219 85.91L219.62 89.03L221.2 90.59L140.16 43.73Z" stroke="#000000" stroke-opacity="0" stroke-width="1.000000"/>
  <path id="path" d="M217.74 47.48L215.23 46.86L212.4 47.79L209.57 50.29L205.49 57.16L204.86 60.6L205.18 145.57L203.29 152.14L198.58 157.13L156.49 181.19L75.46 134.64L117.55 110.27L120.06 108.09L123.51 102.15L123.83 13.74L126.03 6.56L131.37 1.25L134.51 0L136.71 0.62L217.74 47.48Z" fill="#DEE7F8" fill-opacity="1.000000" fill-rule="nonzero"/>
  <path id="path" d="M215.23 46.86L212.4 47.79L209.57 50.29L205.49 57.16L204.86 60.6L205.18 145.57L203.29 152.14L198.58 157.13L156.49 181.19L75.46 134.64L117.55 110.27L120.06 108.09L123.51 102.15L123.83 13.74L126.03 6.56L131.37 1.25L134.51 0L136.71 0.62L217.74 47.48L215.23 46.86Z" stroke="#000000" stroke-opacity="0" stroke-width="1.000000"/>
  <path id="path" d="M131.68 19.05L131.68 22.18L136.39 25.3L136.39 40.29L139.85 42.17L139.85 26.86L144.87 29.99L144.87 26.55L131.68 19.05Z" fill="#1E72C6" fill-opacity="1.000000" fill-rule="nonzero"/>
  <path id="path" d="M131.68 22.18L136.39 25.3L136.39 40.29L139.85 42.17L139.85 26.86L144.87 29.99L144.87 26.55L131.68 19.05L131.68 22.18Z" stroke="#000000" stroke-opacity="0" stroke-width="1.000000"/>
  <path id="path" d="M212.4 47.79L215.23 46.86L217.43 47.48L219 49.04L219.63 52.17L220.25 88.41L223.71 90.28L234.39 84.97L234.39 85.59L223.39 91.22L221.2 90.59L219.63 89.03L218.37 49.67L214.91 47.79L212.4 48.73L207.69 53.73L205.49 60.29L205.81 145.26L203.61 152.45L198.58 157.76L156.49 182.13L156.49 181.19L198.58 157.13L201.09 154.95L204.55 148.7L204.86 60.6L207.06 53.42L212.4 47.79Z" fill="#83A1CC" fill-opacity="1.000000" fill-rule="nonzero"/>
  <path id="path" d="M215.23 46.86L217.43 47.48L219 49.04L219.63 52.17L220.25 88.41L223.71 90.28L234.39 84.97L234.39 85.59L223.39 91.22L221.2 90.59L219.63 89.03L218.37 49.67L214.91 47.79L212.4 48.73L207.69 53.73L205.49 60.29L205.81 145.26L203.61 152.45L198.58 157.76L156.49 182.13L156.49 181.19L198.58 157.13L201.09 154.95L204.55 148.7L204.86 60.6L207.06 53.42L212.4 47.79L215.23 46.86Z" stroke="#000000" stroke-opacity="0" stroke-width="1.000000"/>
  <path id="path" d="M192.93 135.27L196.07 140.58L195.44 140.89L192.93 136.83L190.42 138.08L187.59 133.7L185.08 135.27L182.25 130.58L179.74 132.14L176.91 127.46L174.4 129.02L171.57 124.33L168.74 125.89L166.23 121.21L163.4 122.77L162.78 121.83L166.23 119.96L168.74 124.33L171.57 123.08L174.4 127.46L176.91 125.89L179.74 130.58L182.25 129.02L185.08 133.7L187.59 132.14L190.42 136.83L192.93 135.27Z" fill="#1E72C6" fill-opacity="1.000000" fill-rule="nonzero"/>
  <path id="path" d="M196.07 140.58L195.44 140.89L192.93 136.83L190.42 138.08L187.59 133.7L185.08 135.27L182.25 130.58L179.74 132.14L176.91 127.46L174.4 129.02L171.57 124.33L168.74 125.89L166.23 121.21L163.4 122.77L162.78 121.83L166.23 119.96L168.74 124.33L171.57 123.08L174.4 127.46L176.91 125.89L179.74 130.58L182.25 129.02L185.08 133.7L187.59 132.14L190.42 136.83L192.93 135.27L196.07 140.58Z" stroke="#000000" stroke-opacity="0" stroke-width="1.000000"/>
  <path id="path" d="M146.76 114.65L146.76 116.52L130.42 107.15L130.42 105.27L146.76 114.65Z" fill="#9EB5DF" fill-opacity="1.000000" fill-rule="nonzero"/>
  <path id="path" d="M146.76 116.52L130.42 107.15L130.42 105.27L146.76 114.65L146.76 116.52Z" stroke="#000000" stroke-opacity="0" stroke-width="1.000000"/>
  <path id="path" d="M167.17 98.71L167.17 100.28L130.74 79.34L130.74 77.78L167.17 98.71Z" fill="#9EB5DF" fill-opacity="1.000000" fill-rule="nonzero"/>
  <path id="path" d="M167.17 100.28L130.74 79.34L130.74 77.78L167.17 98.71L167.17 100.28Z" stroke="#000000" stroke-opacity="0" stroke-width="1.000000"/>
  <path id="path" d="M196.7 143.39L196.7 145.26L159.63 123.71L159.63 122.14L196.7 143.39Z" fill="#9EB5DF" fill-opacity="1.000000" fill-rule="nonzero"/>
  <path id="path" d="M196.7 145.26L159.63 123.71L159.63 122.14L196.7 143.39L196.7 145.26Z" stroke="#000000" stroke-opacity="0" stroke-width="1.000000"/>
  <path id="path" d="M197.01 134.33L197.01 135.89L130.42 97.78L130.42 96.21L197.01 134.33Z" fill="#9EB5DF" fill-opacity="1.000000" fill-rule="nonzero"/>
  <path id="path" d="M197.01 135.89L130.42 97.78L130.42 96.21L197.01 134.33L197.01 135.89Z" stroke="#000000" stroke-opacity="0" stroke-width="1.000000"/>
  <path id="path" d="M197.01 124.96L197.01 126.83L130.74 88.72L130.74 86.84L197.01 124.96Z" fill="#9EB5DF" fill-opacity="1.000000" fill-rule="nonzero"/>
  <path id="path" d="M197.01 126.83L130.74 88.72L130.74 86.84L197.01 124.96L197.01 126.83Z" stroke="#000000" stroke-opacity="0" stroke-width="1.000000"/>
  <path id="path" d="M193.24 116.83L196.07 122.14L195.75 122.46L193.24 118.39L190.42 119.64L187.9 115.27L185.08 116.83L182.25 112.15L179.74 113.71L176.91 109.02L174.4 110.27L173.77 109.34L176.91 107.46L179.74 112.15L182.25 110.59L185.08 115.27L187.9 113.71L190.42 118.39L193.24 116.83Z" fill="#1E72C6" fill-opacity="1.000000" fill-rule="nonzero"/>
  <path id="path" d="M196.07 122.14L195.75 122.46L193.24 118.39L190.42 119.64L187.9 115.27L185.08 116.83L182.25 112.15L179.74 113.71L176.91 109.02L174.4 110.27L173.77 109.34L176.91 107.46L179.74 112.15L182.25 110.59L185.08 115.27L187.9 113.71L190.42 118.39L193.24 116.83L196.07 122.14Z" stroke="#000000" stroke-opacity="0" stroke-width="1.000000"/>
  <path id="path" d="M197.01 115.9L197.01 117.46L171.57 103.09L171.57 101.21L197.01 115.9Z" fill="#9EB5DF" fill-opacity="1.000000" fill-rule="nonzero"/>
  <path id="path" d="M197.01 117.46L171.57 103.09L171.57 101.21L197.01 115.9L197.01 117.46Z" stroke="#000000" stroke-opacity="0" stroke-width="1.000000"/>
  <path id="path" d="M171.88 67.79L175.02 73.1L174.4 73.41L171.88 69.04L169.06 70.6L166.54 65.91L163.72 67.47L161.2 62.79L158.38 64.35L155.86 59.98L153.04 61.23L150.21 56.85L147.7 58.41L144.87 53.73L142.36 55.29L139.53 50.6L137.02 52.17L134.19 47.48L131.68 49.04L131.05 47.79L134.19 46.23L137.02 50.6L139.53 49.04L142.36 53.73L144.87 52.17L147.7 56.85L150.21 55.29L153.04 59.98L155.86 58.41L158.38 63.1L161.2 61.54L163.72 66.22L166.54 64.66L169.06 69.35L171.88 67.79Z" fill="#1E72C6" fill-opacity="1.000000" fill-rule="nonzero"/>
  <path id="path" d="M175.02 73.1L174.4 73.41L171.88 69.04L169.06 70.6L166.54 65.91L163.72 67.47L161.2 62.79L158.38 64.35L155.86 59.98L153.04 61.23L150.21 56.85L147.7 58.41L144.87 53.73L142.36 55.29L139.53 50.6L137.02 52.17L134.19 47.48L131.68 49.04L131.05 47.79L134.19 46.23L137.02 50.6L139.53 49.04L142.36 53.73L144.87 52.17L147.7 56.85L150.21 55.29L153.04 59.98L155.86 58.41L158.38 63.1L161.2 61.54L163.72 66.22L166.54 64.66L169.06 69.35L171.88 67.79L175.02 73.1Z" stroke="#000000" stroke-opacity="0" stroke-width="1.000000"/>
  <path id="path" d="M197.01 106.52L197.01 108.4L130.74 70.29L130.74 68.41L197.01 106.52Z" fill="#9EB5DF" fill-opacity="1.000000" fill-rule="nonzero"/>
  <path id="path" d="M197.01 108.4L130.74 70.29L130.74 68.41L197.01 106.52L197.01 108.4Z" stroke="#000000" stroke-opacity="0" stroke-width="1.000000"/>
  <path id="path" d="M175.02 66.22L175.02 68.1L130.74 42.48L130.74 40.92L175.02 66.22Z" fill="#9EB5DF" fill-opacity="1.000000" fill-rule="nonzero"/>
  <path id="path" d="M175.02 68.1L130.74 42.48L130.74 40.92L175.02 66.22L175.02 68.1Z" stroke="#000000" stroke-opacity="0" stroke-width="1.000000"/>
  <path id="path" d="M197.01 97.46L197.01 99.03L130.74 60.91L130.74 59.35L197.01 97.46Z" fill="#9EB5DF" fill-opacity="1.000000" fill-rule="nonzero"/>
  <path id="path" d="M197.01 99.03L130.74 60.91L130.74 59.35L197.01 97.46L197.01 99.03Z" stroke="#000000" stroke-opacity="0" stroke-width="1.000000"/>
  <path id="path" d="M197.01 88.09L197.01 89.97L181.31 80.91L181.31 79.03L197.01 88.09Z" fill="#9EB5DF" fill-opacity="1.000000" fill-rule="nonzero"/>
  <path id="path" d="M197.01 89.97L181.31 80.91L181.31 79.03L197.01 88.09L197.01 89.97Z" stroke="#000000" stroke-opacity="0" stroke-width="1.000000"/>
  <path id="path" d="M197.01 69.66L197.01 71.54L147.38 42.79L147.38 41.23L197.01 69.66Z" fill="#9EB5DF" fill-opacity="1.000000" fill-rule="nonzero"/>
  <path id="path" d="M197.01 71.54L147.38 42.79L147.38 41.23L197.01 69.66L197.01 71.54Z" stroke="#000000" stroke-opacity="0" stroke-width="1.000000"/>
  <path id="path" d="M197.01 61.54L197.01 64.04L147.38 35.61L147.38 32.8L197.01 61.54Z" fill="#9EB5DF" fill-opacity="1.000000" fill-rule="nonzero"/>
  <path id="path" d="M197.01 64.04L147.38 35.61L147.38 32.8L197.01 61.54L197.01 64.04Z" stroke="#000000" stroke-opacity="0" stroke-width="1.000000"/>
  <path id="path" d="M175.02 75.6L175.02 77.16L130.74 51.85L130.74 49.98L175.02 75.6Z" fill="#9EB5DF" fill-opacity="1.000000" fill-rule="nonzero"/>
  <path id="path" d="M175.02 77.16L130.74 51.85L130.74 49.98L175.02 75.6L175.02 77.16Z" stroke="#000000" stroke-opacity="0" stroke-width="1.000000"/>
  <path id="path" d="M114.4 145.57L113.46 147.45L106.24 150.26L102.47 157.76L96.19 164.63L96.81 166.19L105.61 167.75L109.38 173.07L108.44 174.31L106.87 173.07L106.24 173.69L105.92 171.82L103.73 169.32L98.39 168.69L91.48 169L87.71 174L83.31 174L80.8 172.44L82.05 167.75L89.59 162.13L92.42 155.26L96.5 151.82L100.27 146.2L103.41 144.32L104.67 144.64L98.39 154.63L106.55 144.32L114.4 145.57Z" fill="#E1E9F4" fill-opacity="1.000000" fill-rule="nonzero"/>
  <path id="path" d="M113.46 147.45L106.24 150.26L102.47 157.76L96.19 164.63L96.81 166.19L105.61 167.75L109.38 173.07L108.44 174.31L106.87 173.07L106.24 173.69L105.92 171.82L103.73 169.32L98.39 168.69L91.48 169L87.71 174L83.31 174L80.8 172.44L82.05 167.75L89.59 162.13L92.42 155.26L96.5 151.82L100.27 146.2L103.41 144.32L104.67 144.64L98.39 154.63L106.55 144.32L114.4 145.57L113.46 147.45Z" stroke="#000000" stroke-opacity="0" stroke-width="1.000000"/>
  <path id="path" d="M108.12 141.51L100.9 142.45L100.27 145.89L109.06 142.45L108.12 141.51Z" fill="#2A2A5E" fill-opacity="1.000000" fill-rule="nonzero"/>
  <path id="path" d="M100.9 142.45L100.27 145.89L109.06 142.45L108.12 141.51L100.9 142.45Z" stroke="#000000" stroke-opacity="0" stroke-width="1.000000"/>
  <path id="path" d="M113.15 144.64L105.92 145.57L105.3 149.32L106.87 149.64L114.41 146.2L113.15 144.64Z" fill="#2A2A5E" fill-opacity="1.000000" fill-rule="nonzero"/>
  <path id="path" d="M105.92 145.57L105.3 149.32L106.87 149.64L114.41 146.2L113.15 144.64L105.92 145.57Z" stroke="#000000" stroke-opacity="0" stroke-width="1.000000"/>
  <path id="path" d="M101.53 116.83L99.96 120.89L100.9 131.83L100.27 143.08L102.78 143.39L104.36 141.83L104.36 133.08L105.61 126.83L105.93 128.7L105.93 118.71L101.53 116.83Z" fill="#3A3A77" fill-opacity="1.000000" fill-rule="nonzero"/>
  <path id="path" d="M99.96 120.89L100.9 131.83L100.27 143.08L102.78 143.39L104.36 141.83L104.36 133.08L105.61 126.83L105.93 128.7L105.93 118.71L101.53 116.83L99.96 120.89Z" stroke="#000000" stroke-opacity="0" stroke-width="1.000000"/>
  <path id="path" d="M111.26 118.4L108.12 119.33L103.73 118.08L103.41 120.58L105.92 129.33L105.3 146.51L107.5 146.82L109.69 144.95L110.01 134.33L111.89 124.96L111.26 118.4Z" fill="#4C4A8B" fill-opacity="1.000000" fill-rule="nonzero"/>
  <path id="path" d="M108.12 119.33L103.73 118.08L103.41 120.58L105.92 129.33L105.3 146.51L107.5 146.82L109.69 144.95L110.01 134.33L111.89 124.96L111.26 118.4L108.12 119.33Z" stroke="#000000" stroke-opacity="0" stroke-width="1.000000"/>
  <path id="path" d="M108.75 112.46L104.98 108.4L105.3 106.21L104.35 105.27L101.21 106.84L101.53 109.65L104.35 112.46L108.75 112.46Z" fill="#ECB4BF" fill-opacity="1.000000" fill-rule="nonzero"/>
  <path id="path" d="M104.98 108.4L105.3 106.21L104.35 105.27L101.21 106.84L101.53 109.65L104.35 112.46L108.75 112.46L104.98 108.4Z" stroke="#000000" stroke-opacity="0" stroke-width="1.000000"/>
  <path id="path" d="M101.84 99.03L100.27 100.28L99.96 103.09L100.9 107.15L103.41 107.15L105.3 106.21L105.3 101.84L104.04 99.34L101.84 99.03Z" fill="#8CA8F7" fill-opacity="1.000000" fill-rule="nonzero"/>
  <path id="path" d="M100.27 100.28L99.96 103.09L100.9 107.15L103.41 107.15L105.3 106.21L105.3 101.84L104.04 99.34L101.84 99.03L100.27 100.28Z" stroke="#000000" stroke-opacity="0" stroke-width="1.000000"/>
  <path id="path" d="M111.89 102.77L110.32 99.96L100.59 98.09L100.27 102.46L102.47 108.4L102.47 111.21L100.27 119.02L107.5 120.58L111.58 119.96L110.95 111.84L113.46 105.27L111.89 102.77Z" fill="#6B9EF9" fill-opacity="1.000000" fill-rule="nonzero"/>
  <path id="path" d="M110.32 99.96L100.59 98.09L100.27 102.46L102.47 108.4L102.47 111.21L100.27 119.02L107.5 120.58L111.58 119.96L110.95 111.84L113.46 105.27L111.89 102.77L110.32 99.96Z" stroke="#000000" stroke-opacity="0" stroke-width="1.000000"/>
  <path id="path" d="M112.52 103.4L112.21 104.96L110.01 108.4L111.58 115.9L111.26 109.34L113.15 105.59L112.52 103.4Z" fill="#3887E5" fill-opacity="1.000000" fill-rule="nonzero"/>
  <path id="path" d="M112.21 104.96L110.01 108.4L111.58 115.9L111.26 109.34L113.15 105.59L112.52 103.4L112.21 104.96Z" stroke="#000000" stroke-opacity="0" stroke-width="1.000000"/>
  <path id="path" d="M111.89 102.78L115.98 102.46L121.94 104.34L126.34 101.21L129.17 97.15L129.17 98.4L131.05 96.53L130.74 97.78L131.68 97.15L131.05 99.34L131.68 99.34L123.51 107.46L121.63 107.77L112.83 105.9L111.26 104.34L111.89 102.78Z" fill="#ECB4BF" fill-opacity="1.000000" fill-rule="nonzero"/>
  <path id="path" d="M115.98 102.46L121.94 104.34L126.34 101.21L129.17 97.15L129.17 98.4L131.05 96.53L130.74 97.78L131.68 97.15L131.05 99.34L131.68 99.34L123.51 107.46L121.63 107.77L112.83 105.9L111.26 104.34L111.89 102.78L115.98 102.46Z" stroke="#000000" stroke-opacity="0" stroke-width="1.000000"/>
  <path id="path" d="M116.92 102.46L109.06 99.96L108.44 102.77L109.06 104.65L111.26 105.9L116.29 106.84L116.92 102.46Z" fill="#6B9EF9" fill-opacity="1.000000" fill-rule="nonzero"/>
  <path id="path" d="M109.06 99.96L108.44 102.77L109.06 104.65L111.26 105.9L116.29 106.84L116.92 102.46L109.06 99.96Z" stroke="#000000" stroke-opacity="0" stroke-width="1.000000"/>
  <path id="path" d="M110.32 91.22L110.01 90.28L107.49 91.53L106.24 96.21L108.44 98.4L109.69 97.78L110.32 91.22Z" fill="#ECB4BF" fill-opacity="1.000000" fill-rule="nonzero"/>
  <path id="path" d="M110.01 90.28L107.49 91.53L106.24 96.21L108.44 98.4L109.69 97.78L110.32 91.22L110.01 90.28Z" stroke="#000000" stroke-opacity="0" stroke-width="1.000000"/>
  <path id="path" d="M109.38 98.09L108.44 95.28L110.32 90.59L110.01 89.34L106.55 87.78L103.41 88.41L102.16 89.97L99.64 98.09L101.21 106.52L103.41 107.77L106.24 107.46L110.01 99.96L109.38 98.09Z" fill="#A0533F" fill-opacity="1.000000" fill-rule="nonzero"/>
  <path id="path" d="M108.44 95.28L110.32 90.59L110.01 89.34L106.55 87.78L103.41 88.41L102.16 89.97L99.64 98.09L101.21 106.52L103.41 107.77L106.24 107.46L110.01 99.96L109.38 98.09L108.44 95.28Z" stroke="#000000" stroke-opacity="0" stroke-width="1.000000"/>
  <path id="path" d="M154.29 174.63L148.95 176.5L137.33 192.12L147.07 195.25L143.93 199L143.93 199.93L138.59 203.68L143.3 205.24L145.5 207.43L144.56 209.93L142.05 211.8L137.65 213.99L127.6 216.18L122.89 215.87L118.8 213.99L117.86 212.43L118.8 210.24L121.32 208.06L125.71 205.87L135.45 203.68L137.33 199.31L134.51 195.56L132.31 194.93L130.42 195.25L131.68 196.18L129.48 199.93L123.2 199L122.26 198.68L122.89 196.81L126.34 195.25L124.14 193.37L130.11 188.69L131.37 184.94L135.45 181.19L144.87 168.07L146.76 169.01L139.85 181.81L145.19 177.75L148.95 170.25L149.9 170.88L149.58 174.63L155.87 170.88L154.29 174.63Z" fill="#E1E9F4" fill-opacity="1.000000" fill-rule="nonzero"/>
  <path id="path" d="M148.95 176.5L137.33 192.12L147.07 195.25L143.93 199L143.93 199.93L138.59 203.68L143.3 205.24L145.5 207.43L144.56 209.93L142.05 211.8L137.65 213.99L127.6 216.18L122.89 215.87L118.8 213.99L117.86 212.43L118.8 210.24L121.32 208.06L125.71 205.87L135.45 203.68L137.33 199.31L134.51 195.56L132.31 194.93L130.42 195.25L131.68 196.18L129.48 199.93L123.2 199L122.26 198.68L122.89 196.81L126.34 195.25L124.14 193.37L130.11 188.69L131.37 184.94L135.45 181.19L144.87 168.07L146.76 169.01L139.85 181.81L145.19 177.75L148.95 170.25L149.9 170.88L149.58 174.63L155.87 170.88L154.29 174.63L148.95 176.5Z" stroke="#000000" stroke-opacity="0" stroke-width="1.000000"/>
  <path id="path" d="M148.33 123.71L143.3 122.77L140.79 123.71L139.85 125.89L140.47 127.77L144.87 129.02L147.7 128.7L147.07 126.83L148.33 123.71Z" fill="#3A3A77" fill-opacity="1.000000" fill-rule="nonzero"/>
  <path id="path" d="M143.3 122.77L140.79 123.71L139.85 125.89L140.47 127.77L144.87 129.02L147.7 128.7L147.07 126.83L148.33 123.71L143.3 122.77Z" stroke="#000000" stroke-opacity="0" stroke-width="1.000000"/>
  <path id="path" d="M150.84 116.83L145.5 117.46L142.99 124.64L144.24 126.52L148.01 126.83L148.33 123.71L150.21 123.08L150.84 121.52L150.84 116.83Z" fill="#ECB4BF" fill-opacity="1.000000" fill-rule="nonzero"/>
  <path id="path" d="M145.5 117.46L142.99 124.64L144.24 126.52L148.01 126.83L148.33 123.71L150.21 123.08L150.84 121.52L150.84 116.83L145.5 117.46Z" stroke="#000000" stroke-opacity="0" stroke-width="1.000000"/>
  <path id="path" d="M149.27 118.08L149.58 119.65L148.96 120.58L148.01 119.96L147.07 122.46L144.24 121.83L141.73 117.15L142.99 113.09L150.84 112.77L151.47 116.83L149.27 118.08Z" fill="#2A2A5E" fill-opacity="1.000000" fill-rule="nonzero"/>
  <path id="path" d="M149.58 119.65L148.96 120.58L148.01 119.96L147.07 122.46L144.24 121.83L141.73 117.15L142.99 113.09L150.84 112.77L151.47 116.83L149.27 118.08L149.58 119.65Z" stroke="#000000" stroke-opacity="0" stroke-width="1.000000"/>
  <path id="path" d="M164.03 114.65L162.15 116.21L161.2 116.21L162.15 114.33L161.2 114.33L159 119.64L154.29 124.02L145.5 126.52L147.7 128.7L146.44 131.83L153.67 128.7L156.18 126.52L160.89 119.64L164.66 117.15L165.29 115.9L164.66 114.33L164.03 114.65Z" fill="#ECB4BF" fill-opacity="1.000000" fill-rule="nonzero"/>
  <path id="path" d="M162.15 116.21L161.2 116.21L162.15 114.33L161.2 114.33L159 119.64L154.29 124.02L145.5 126.52L147.7 128.7L146.44 131.83L153.67 128.7L156.18 126.52L160.89 119.64L164.66 117.15L165.29 115.9L164.66 114.33L164.03 114.65L162.15 116.21Z" stroke="#000000" stroke-opacity="0" stroke-width="1.000000"/>
  <path id="path" d="M150.84 126.52L148.95 124.64L143.62 122.77L140.79 124.33L142.04 140.89L143.93 142.76L148.01 145.26L150.21 144.95L152.41 142.45L152.72 129.02L150.84 126.52Z" fill="#4C4A8B" fill-opacity="1.000000" fill-rule="nonzero"/>
  <path id="path" d="M148.95 124.64L143.62 122.77L140.79 124.33L142.04 140.89L143.93 142.76L148.01 145.26L150.21 144.95L152.41 142.45L152.72 129.02L150.84 126.52L148.95 124.64Z" stroke="#000000" stroke-opacity="0" stroke-width="1.000000"/>
  <path id="path" d="M147.07 124.64L143.62 123.71L143.62 122.46L148.01 123.71L148.33 124.64L147.07 124.64Z" fill="#3A3A77" fill-opacity="1.000000" fill-rule="nonzero"/>
  <path id="path" d="M143.62 123.71L143.62 122.46L148.01 123.71L148.33 124.64L147.07 124.64L143.62 123.71Z" stroke="#000000" stroke-opacity="0" stroke-width="1.000000"/>
  <path id="path" d="" fill="#73BC9C" fill-opacity="1.000000" fill-rule="nonzero"/>
  <path id="path" d="" stroke="#000000" stroke-opacity="0" stroke-width="1.000000"/>
  <path id="path" d="M145.81 173.07L148.33 171.5L155.87 170.57L153.98 173.69L149.58 175.56L146.13 175.56L145.81 173.07Z" fill="#2A2A5E" fill-opacity="1.000000" fill-rule="nonzero"/>
  <path id="path" d="M148.33 171.5L155.87 170.57L153.98 173.69L149.58 175.56L146.13 175.56L145.81 173.07L148.33 171.5Z" stroke="#000000" stroke-opacity="0" stroke-width="1.000000"/>
  <path id="path" d="M140.47 169.63L142.67 167.76L150.53 166.82L148.33 169.94L144.24 171.82L140.79 171.82L140.47 169.63Z" fill="#2A2A5E" fill-opacity="1.000000" fill-rule="nonzero"/>
  <path id="path" d="M142.67 167.76L150.53 166.82L148.33 169.94L144.24 171.82L140.79 171.82L140.47 169.63L142.67 167.76Z" stroke="#000000" stroke-opacity="0" stroke-width="1.000000"/>
  <path id="path" d="M152.41 142.45L149.27 143.39L142.04 140.89L140.16 147.14L140.79 169L143.62 169L144.87 167.75L145.81 151.2L146.75 156.51L146.13 172.75L149.9 172.75L150.84 171.82L152.41 142.45Z" fill="#3887E5" fill-opacity="1.000000" fill-rule="nonzero"/>
  <path id="path" d="M149.27 143.39L142.04 140.89L140.16 147.14L140.79 169L143.62 169L144.87 167.75L145.81 151.2L146.75 156.51L146.13 172.75L149.9 172.75L150.84 171.82L152.41 142.45L149.27 143.39Z" stroke="#000000" stroke-opacity="0" stroke-width="1.000000"/>
  <path id="path" d="M151.15 144.01L152.72 143.08L152.41 141.83L151.15 142.76L147.7 142.76L142.04 140.26L142.04 141.51L145.19 142.76L151.15 144.01Z" fill="#4C4A8B" fill-opacity="1.000000" fill-rule="nonzero"/>
  <path id="path" d="M152.72 143.08L152.41 141.83L151.15 142.76L147.7 142.76L142.04 140.26L142.04 141.51L145.19 142.76L151.15 144.01L152.72 143.08Z" stroke="#000000" stroke-opacity="0" stroke-width="1.000000"/>
  <path id="path" d="" fill="#6262AA" fill-opacity="1.000000" fill-rule="nonzero"/>
  <path id="path" d="M143.93 121.52L143.93 121.83" stroke="#000000" stroke-opacity="0" stroke-width="1.000000"/>
  <path id="path" d="M165.92 131.2L163.09 132.77L160.26 131.2L160.26 111.52L163.09 113.08L165.92 111.52L165.92 131.2Z" fill="#3887E5" fill-opacity="1.000000" fill-rule="nonzero"/>
  <path id="path" d="M163.09 132.77L160.26 131.2L160.26 111.52L163.09 113.08L165.92 111.52L165.92 131.2L163.09 132.77Z" stroke="#000000" stroke-opacity="0" stroke-width="1.000000"/>
  <path id="path" d="M164.97 112.77L165.92 111.52L164.97 110.27L160.89 110.27L160.26 111.52L160.89 112.77L164.97 112.77Z" fill="#A6C2FF" fill-opacity="1.000000" fill-rule="nonzero"/>
  <path id="path" d="M165.92 111.52L164.97 110.27L160.89 110.27L160.26 111.52L160.89 112.77L164.97 112.77L165.92 111.52Z" stroke="#000000" stroke-opacity="0" stroke-width="1.000000"/>
  <path id="path" d="M161.52 107.46L161.52 111.21L163.09 112.15L164.66 111.21L164.66 107.46L161.52 107.46Z" fill="#2A2A5E" fill-opacity="1.000000" fill-rule="nonzero"/>
  <path id="path" d="M161.52 111.21L163.09 112.15L164.66 111.21L164.66 107.46L161.52 107.46L161.52 111.21Z" stroke="#000000" stroke-opacity="0" stroke-width="1.000000"/>
  <path id="path" d="M154.61 82.16L157.12 80.91L154.92 83.09L154.29 87.47L154.92 92.47L158.06 98.71L164.35 104.96L168.43 106.21L171.57 105.59L165.92 107.77L161.83 106.52L155.24 100.28L152.41 93.72L151.78 89.03L152.41 84.66L154.61 82.16Z" fill="#6262AA" fill-opacity="1.000000" fill-rule="nonzero"/>
  <path id="path" d="M157.12 80.91L154.92 83.09L154.29 87.47L154.92 92.47L158.06 98.71L164.35 104.96L168.43 106.21L171.57 105.59L165.92 107.77L161.83 106.52L155.24 100.28L152.41 93.72L151.78 89.03L152.41 84.66L154.61 82.16L157.12 80.91Z" stroke="#000000" stroke-opacity="0" stroke-width="1.000000"/>
  <path id="path" d="M153.04 88.09L153.67 83.72L155.86 81.53L159 80.91L163.09 82.16L167.17 85.28L170.31 89.65L172.51 94.96L173.45 99.65L172.51 104.03L170.31 106.52L167.17 107.15L163.09 105.59L159.32 102.46L155.86 98.09L153.67 93.09L153.04 88.09Z" fill="#7BB1FF" fill-opacity="0.698039" fill-rule="nonzero"/>
  <path id="path" d="M153.67 83.72L155.86 81.53L159 80.91L163.09 82.16L167.17 85.28L170.31 89.65L172.51 94.96L173.45 99.65L172.51 104.03L170.31 106.52L167.17 107.15L163.09 105.59L159.32 102.46L155.86 98.09L153.67 93.09L153.04 88.09L153.67 83.72Z" stroke="#000000" stroke-opacity="0" stroke-width="1.000000"/>
  <path id="path" d="M153.35 79.66L158.06 77.47L164.35 79.34L169.06 83.09L172.83 88.4L175.65 94.34L176.59 100.28L174.71 106.52L170.31 109.65L173.45 105.59L174.08 101.84L173.14 95.59L170.63 89.65L166.54 84.34L161.83 80.59L158.38 79.34L153.35 79.66Z" fill="#6262AA" fill-opacity="1.000000" fill-rule="nonzero"/>
  <path id="path" d="M158.06 77.47L164.35 79.34L169.06 83.09L172.83 88.4L175.65 94.34L176.59 100.28L174.71 106.52L170.31 109.65L173.45 105.59L174.08 101.84L173.14 95.59L170.63 89.65L166.54 84.34L161.83 80.59L158.38 79.34L153.35 79.66L158.06 77.47Z" stroke="#000000" stroke-opacity="0" stroke-width="1.000000"/>
  <path id="path" d="M149.58 87.78L151.47 81.53L155.55 79.03L158.38 79.34L161.83 80.59L166.54 84.34L170.63 89.65L173.14 95.59L174.08 101.84L172.2 108.09L168.12 110.27L165.29 110.27L161.83 108.71L157.12 104.96L153.04 99.65L150.53 93.71L149.58 87.78ZM172.2 100.59L171.26 95.59L169.06 90.59L165.6 86.22L161.83 83.09L157.75 81.53L154.61 82.16L152.41 84.66L151.78 89.03L152.41 93.71L154.61 99.03L158.06 103.4L161.83 106.52L165.92 107.77L169.06 107.15L171.26 104.96L172.2 100.59Z" fill="#2A2A5E" fill-opacity="1.000000" fill-rule="nonzero"/>
  <path id="path" d="M151.47 81.53L155.55 79.03L158.38 79.34L161.83 80.59L166.54 84.34L170.63 89.65L173.14 95.59L174.08 101.84L172.2 108.09L168.12 110.27L165.29 110.27L161.83 108.71L157.12 104.96L153.04 99.65L150.53 93.71L149.58 87.78L151.47 81.53ZM171.26 95.59L169.06 90.59L165.6 86.22L161.83 83.09L157.75 81.53L154.61 82.16L152.41 84.66L151.78 89.03L152.41 93.71L154.61 99.03L158.06 103.4L161.83 106.52L165.92 107.77L169.06 107.15L171.26 104.96L172.2 100.59L171.26 95.59Z" stroke="#000000" stroke-opacity="0" stroke-width="1.000000"/>
  <path id="path" d="M154.92 130.58L153.98 131.2L155.87 132.77L156.49 132.14L154.92 130.58Z" fill="#373F51" fill-opacity="1.000000" fill-rule="nonzero"/>
  <path id="path" d="M153.98 131.2L155.87 132.77L156.49 132.14L154.92 130.58L153.98 131.2Z" stroke="#000000" stroke-opacity="0" stroke-width="1.000000"/>
  <path id="path" d="M165.92 118.71L164.35 120.89L164.66 119.02L163.72 119.65L163.09 123.39L159.63 129.33L155.24 128.71L153.35 131.52L154.61 133.7L162.15 131.83L164.66 123.71L166.86 120.58L167.17 119.33L165.92 118.71Z" fill="#ECB4BF" fill-opacity="1.000000" fill-rule="nonzero"/>
  <path id="path" d="M164.35 120.89L164.66 119.02L163.72 119.65L163.09 123.39L159.63 129.33L155.24 128.71L153.35 131.52L154.61 133.7L162.15 131.83L164.66 123.71L166.86 120.58L167.17 119.33L165.92 118.71L164.35 120.89Z" stroke="#000000" stroke-opacity="0" stroke-width="1.000000"/>
  <path id="path" d="M156.81 129.02L150.53 126.83L148.01 128.08L148.33 131.2L150.84 133.08L155.24 134.02L155.24 131.83L156.81 129.02Z" fill="#3A3A77" fill-opacity="1.000000" fill-rule="nonzero"/>
  <path id="path" d="M150.53 126.83L148.01 128.08L148.33 131.2L150.84 133.08L155.24 134.02L155.24 131.83L156.81 129.02L150.53 126.83Z" stroke="#000000" stroke-opacity="0" stroke-width="1.000000"/>
</svg>
