<svg width="18.000000" height="23.538574" viewBox="0 0 18 23.5386" fill="none" xmlns="http://www.w3.org/2000/svg" xmlns:xlink="http://www.w3.org/1999/xlink">
  <desc>
    Created with Pixso.
  </desc>
  <defs>
    <clipPath id="clip226_3042">
      <rect id="去左侧" width="18.000000" height="23.538462" fill="white" fill-opacity="0"/>
    </clipPath>
  </defs>
  <g clip-path="url(#clip226_3042)">
    <path id="path" d="M5.14 12.77L5.12 12.79C4.7 12.79 4.37 12.46 4.37 12.04C4.37 11.62 4.7 11.29 5.12 11.29L5.14 11.31L5.14 12.77ZM15.35 11.31L15.37 11.29C15.79 11.29 16.12 11.62 16.12 12.04C16.12 12.46 15.79 12.79 15.37 12.79L15.35 12.77L15.35 11.31Z" fill="#000000" fill-opacity="0" fill-rule="nonzero"/>
    <path id="path" d="M5.12 12.04L15.37 12.04" stroke="currentColor" stroke-opacity="1.000000" stroke-width="1.500000" stroke-linejoin="round" stroke-linecap="round"/>
    <path id="path" d="M10.09 17.61L10.12 17.62C10.36 17.96 10.29 18.42 9.95 18.67C9.61 18.91 9.15 18.84 8.91 18.5L8.91 18.47L10.09 17.61ZM8.91 5.6L8.91 5.57C9.15 5.24 9.61 5.16 9.95 5.41C10.29 5.66 10.36 6.12 10.12 6.46L10.09 6.46L8.91 5.6Z" fill="#000000" fill-opacity="0" fill-rule="nonzero"/>
    <path id="path" d="M9.51 18.06L5.12 12.04L9.51 6.02" stroke="currentColor" stroke-opacity="1.000000" stroke-width="1.500000" stroke-linejoin="round" stroke-linecap="round"/>
    <path id="path" d="M1.1 6.04L1.08 6.02C1.08 5.6 1.41 5.27 1.83 5.27C2.25 5.27 2.58 5.6 2.58 6.02L2.56 6.04L1.1 6.04ZM2.56 18.04L2.58 18.06C2.58 18.48 2.25 18.81 1.83 18.81C1.41 18.81 1.08 18.48 1.08 18.06L1.1 18.04L2.56 18.04Z" fill="#000000" fill-opacity="0" fill-rule="nonzero"/>
    <path id="path" d="M1.83 6.02L1.83 18.06" stroke="currentColor" stroke-opacity="1.000000" stroke-width="1.500000" stroke-linejoin="round" stroke-linecap="round"/>
  </g>
</svg>
