<svg width="379.994141" height="296.332275" viewBox="0 0 379.994 296.332" fill="none" xmlns="http://www.w3.org/2000/svg" xmlns:xlink="http://www.w3.org/1999/xlink">
  <desc>
    Created with Pixso.
  </desc>
  <defs/>
  <path id="path" d="M320.85 167.12L311.35 165.23L294.8 159.27L277.94 149.79L270.28 141.93L266.6 133.81L260.17 125.41L253.12 119.45L245.15 114.58L236.57 110.51L222.78 106.72L218.19 106.72L206.54 108.89L198.88 109.16L185.7 108.08L180.19 106.99L165.17 100.49L10.72 179.31L6.43 182.29L1.22 189.34L0 197.73L3.37 205.86L10.72 212.09L164.56 291.18L171.61 293.89L178.65 295.79L186.01 296.33L193.36 295.79L200.41 293.89L207.46 291.18L371.72 206.67L375.7 202.88L378.46 198.54L379.99 193.4L379.68 188.79L377.54 185L374.47 181.75L364.67 175.79L355.78 172.81L337.09 168.75L320.85 167.12Z" fill="#F3F6FD" fill-opacity="1.000000" fill-rule="nonzero"/>
  <path id="path" d="M311.35 165.23L294.8 159.27L277.94 149.79L270.28 141.93L266.6 133.81L260.17 125.41L253.12 119.45L245.15 114.58L236.57 110.51L222.78 106.72L218.19 106.72L206.54 108.89L198.88 109.16L185.7 108.08L180.19 106.99L165.17 100.49L10.72 179.31L6.43 182.29L1.22 189.34L0 197.73L3.37 205.86L10.72 212.09L164.56 291.18L171.61 293.89L178.65 295.79L186.01 296.33L193.36 295.79L200.41 293.89L207.46 291.18L371.72 206.67L375.7 202.88L378.46 198.54L379.99 193.4L379.68 188.79L377.54 185L374.47 181.75L364.67 175.79L355.78 172.81L337.09 168.75L320.85 167.12L311.35 165.23Z" stroke="#000000" stroke-opacity="0" stroke-width="1.000000"/>
  <path id="path" d="M0.3 193.4L80.28 234.57L108.78 220.21L19.91 174.71L21.75 173.63L110.32 219.4L139.12 204.77L50.25 159L51.48 158.46L140.35 203.96L169.15 189.34L80.59 143.83L81.51 143.02L170.38 188.79L198.88 174.17L110.32 128.39L111.85 127.58L200.72 173.35L229.22 158.73L140.35 113.22L142.19 112.41L349.96 218.32L348.43 219.13L230.44 159.54L201.94 173.9L319.93 233.76L318.39 234.57L200.41 174.71L111.85 219.94L229.83 279.8L227.99 280.62L110.01 220.76L81.82 235.38L198.57 294.43L196.12 295.24L0 195.02L0.3 193.4Z" fill="#FDFEFF" fill-opacity="1.000000" fill-rule="nonzero"/>
  <path id="path" d="M80.28 234.57L108.78 220.21L19.91 174.71L21.75 173.63L110.32 219.4L139.12 204.77L50.25 159L51.48 158.46L140.35 203.96L169.15 189.34L80.59 143.83L81.51 143.02L170.38 188.79L198.88 174.17L110.32 128.39L111.85 127.58L200.72 173.35L229.22 158.73L140.35 113.22L142.19 112.41L349.96 218.32L348.43 219.13L230.44 159.54L201.94 173.9L319.93 233.76L318.39 234.57L200.41 174.71L111.85 219.94L229.83 279.8L227.99 280.62L110.01 220.76L81.82 235.38L198.57 294.43L196.12 295.24L0 195.02L0.3 193.4L80.28 234.57Z" stroke="#000000" stroke-opacity="0" stroke-width="1.000000"/>
  <path id="path" d="M285.47 104.05L275.9 109.4L272.46 110.55L270.17 110.17L171.47 52.79L173.77 53.17L177.21 52.02L186.77 46.66L285.47 104.05Z" fill="#DEE7F8" fill-opacity="1.000000" fill-rule="nonzero"/>
  <path id="path" d="M275.9 109.4L272.46 110.55L270.17 110.17L171.47 52.79L173.77 53.17L177.21 52.02L186.77 46.66L285.47 104.05L275.9 109.4Z" stroke="#000000" stroke-opacity="0" stroke-width="1.000000"/>
  <path id="path" d="M190.6 223.02L91.9 165.64L91.9 164.87L190.6 221.87L190.6 223.02Z" fill="#9EB5DF" fill-opacity="1.000000" fill-rule="nonzero"/>
  <path id="path" d="M91.9 165.64L91.9 164.87L190.6 221.87L190.6 223.02L91.9 165.64Z" stroke="#000000" stroke-opacity="0" stroke-width="1.000000"/>
  <path id="path" d="M269.4 110.93L170.71 53.55L169.18 51.64L168.03 6.88L165.73 1.91L264.43 59.29L265.96 60.82L266.72 64.26L266.72 105.19L267.49 109.02L269.4 110.93Z" fill="#DEE7F8" fill-opacity="1.000000" fill-rule="nonzero"/>
  <path id="path" d="M170.71 53.55L169.18 51.64L168.03 6.88L165.73 1.91L264.43 59.29L265.96 60.82L266.72 64.26L266.72 105.19L267.49 109.02L269.4 110.93L170.71 53.55Z" stroke="#000000" stroke-opacity="0" stroke-width="1.000000"/>
  <path id="path" d="M265.19 58.14L262.13 57.38L258.69 58.52L255.25 61.58L250.28 70L249.51 74.21L249.89 178.26L247.6 186.29L241.86 192.41L190.6 221.87L91.9 164.87L143.16 135.03L146.22 132.35L150.43 125.09L150.81 16.83L153.49 8.03L160 1.53L163.82 0L166.5 0.76L265.19 58.14Z" fill="#DEE7F8" fill-opacity="1.000000" fill-rule="nonzero"/>
  <path id="path" d="M262.13 57.38L258.69 58.52L255.25 61.58L250.28 70L249.51 74.21L249.89 178.26L247.6 186.29L241.86 192.41L190.6 221.87L91.9 164.87L143.16 135.03L146.22 132.35L150.43 125.09L150.81 16.83L153.49 8.03L160 1.53L163.82 0L166.5 0.76L265.19 58.14L262.13 57.38Z" stroke="#000000" stroke-opacity="0" stroke-width="1.000000"/>
  <path id="path" d="M160.38 23.33L160.38 27.16L166.12 30.98L166.12 49.34L170.32 51.64L170.32 32.89L176.44 36.72L176.44 32.51L160.38 23.33Z" fill="#1E72C6" fill-opacity="1.000000" fill-rule="nonzero"/>
  <path id="path" d="M160.38 27.16L166.12 30.98L166.12 49.34L170.32 51.64L170.32 32.89L176.44 36.72L176.44 32.51L160.38 23.33L160.38 27.16Z" stroke="#000000" stroke-opacity="0" stroke-width="1.000000"/>
  <path id="path" d="M258.69 58.52L262.13 57.38L264.81 58.14L266.72 60.05L267.49 63.88L268.25 108.25L272.46 110.55L285.47 104.05L285.47 104.81L272.08 111.7L269.4 110.93L267.49 109.02L265.96 60.82L261.75 58.52L258.69 59.67L252.95 65.79L250.27 73.83L250.66 177.88L247.98 186.67L241.86 193.18L190.6 223.02L190.6 221.87L241.86 192.41L244.92 189.74L249.13 182.08L249.51 74.21L252.19 65.41L258.69 58.52Z" fill="#83A1CC" fill-opacity="1.000000" fill-rule="nonzero"/>
  <path id="path" d="M262.13 57.38L264.81 58.14L266.72 60.05L267.49 63.88L268.25 108.25L272.46 110.55L285.47 104.05L285.47 104.81L272.08 111.7L269.4 110.93L267.49 109.02L265.96 60.82L261.75 58.52L258.69 59.67L252.95 65.79L250.27 73.83L250.66 177.88L247.98 186.67L241.86 193.18L190.6 223.02L190.6 221.87L241.86 192.41L244.92 189.74L249.13 182.08L249.51 74.21L252.19 65.41L258.69 58.52L262.13 57.38Z" stroke="#000000" stroke-opacity="0" stroke-width="1.000000"/>
  <path id="path" d="M234.97 165.64L238.8 172.14L238.03 172.52L234.97 167.55L231.91 169.08L228.47 163.72L225.41 165.64L221.97 159.9L218.91 161.81L215.46 156.07L212.4 157.98L208.96 152.25L205.52 154.16L202.46 148.42L199.01 150.33L198.25 149.19L202.46 146.89L205.52 152.25L208.96 150.72L212.4 156.07L215.46 154.16L218.91 159.9L221.97 157.98L225.41 163.72L228.47 161.81L231.91 167.55L234.97 165.64Z" fill="#1E72C6" fill-opacity="1.000000" fill-rule="nonzero"/>
  <path id="path" d="M238.8 172.14L238.03 172.52L234.97 167.55L231.91 169.08L228.47 163.72L225.41 165.64L221.97 159.9L218.91 161.81L215.46 156.07L212.4 157.98L208.96 152.25L205.52 154.16L202.46 148.42L199.01 150.33L198.25 149.19L202.46 146.89L205.52 152.25L208.96 150.72L212.4 156.07L215.46 154.16L218.91 159.9L221.97 157.98L225.41 163.72L228.47 161.81L231.91 167.55L234.97 165.64L238.8 172.14Z" stroke="#000000" stroke-opacity="0" stroke-width="1.000000"/>
  <path id="path" d="M178.74 140.39L178.74 142.68L158.85 131.21L158.85 128.91L178.74 140.39Z" fill="#9EB5DF" fill-opacity="1.000000" fill-rule="nonzero"/>
  <path id="path" d="M178.74 142.68L158.85 131.21L158.85 128.91L178.74 140.39L178.74 142.68Z" stroke="#000000" stroke-opacity="0" stroke-width="1.000000"/>
  <path id="path" d="M203.6 120.88L203.6 122.79L159.23 97.16L159.23 95.25L203.6 120.88Z" fill="#9EB5DF" fill-opacity="1.000000" fill-rule="nonzero"/>
  <path id="path" d="M203.6 122.79L159.23 97.16L159.23 95.25L203.6 120.88L203.6 122.79Z" stroke="#000000" stroke-opacity="0" stroke-width="1.000000"/>
  <path id="path" d="M239.56 175.58L239.56 177.88L194.42 151.48L194.42 149.57L239.56 175.58Z" fill="#9EB5DF" fill-opacity="1.000000" fill-rule="nonzero"/>
  <path id="path" d="M239.56 177.88L194.42 151.48L194.42 149.57L239.56 175.58L239.56 177.88Z" stroke="#000000" stroke-opacity="0" stroke-width="1.000000"/>
  <path id="path" d="M239.95 164.49L239.95 166.4L158.85 119.73L158.85 117.82L239.95 164.49Z" fill="#9EB5DF" fill-opacity="1.000000" fill-rule="nonzero"/>
  <path id="path" d="M239.95 166.4L158.85 119.73L158.85 117.82L239.95 164.49L239.95 166.4Z" stroke="#000000" stroke-opacity="0" stroke-width="1.000000"/>
  <path id="path" d="M239.95 153.01L239.95 155.31L159.23 108.64L159.23 106.34L239.95 153.01Z" fill="#9EB5DF" fill-opacity="1.000000" fill-rule="nonzero"/>
  <path id="path" d="M239.95 155.31L159.23 108.64L159.23 106.34L239.95 153.01L239.95 155.31Z" stroke="#000000" stroke-opacity="0" stroke-width="1.000000"/>
  <path id="path" d="M235.36 143.07L238.8 149.57L238.42 149.95L235.36 144.98L231.91 146.51L228.85 141.15L225.41 143.07L221.97 137.33L218.91 139.24L215.46 133.5L212.4 135.03L211.64 133.88L215.46 131.59L218.91 137.33L221.97 135.41L225.41 141.15L228.85 139.24L231.91 144.98L235.36 143.07Z" fill="#1E72C6" fill-opacity="1.000000" fill-rule="nonzero"/>
  <path id="path" d="M238.8 149.57L238.42 149.95L235.36 144.98L231.91 146.51L228.85 141.15L225.41 143.07L221.97 137.33L218.91 139.24L215.46 133.5L212.4 135.03L211.64 133.88L215.46 131.59L218.91 137.33L221.97 135.41L225.41 141.15L228.85 139.24L231.91 144.98L235.36 143.07L238.8 149.57Z" stroke="#000000" stroke-opacity="0" stroke-width="1.000000"/>
  <path id="path" d="M239.95 141.92L239.95 143.83L208.96 126.23L208.96 123.94L239.95 141.92Z" fill="#9EB5DF" fill-opacity="1.000000" fill-rule="nonzero"/>
  <path id="path" d="M239.95 143.83L208.96 126.23L208.96 123.94L239.95 141.92L239.95 143.83Z" stroke="#000000" stroke-opacity="0" stroke-width="1.000000"/>
  <path id="path" d="M209.34 83.01L213.17 89.51L212.4 89.89L209.34 84.54L205.9 86.45L202.84 80.71L199.4 82.62L196.34 76.89L192.89 78.8L189.83 73.44L186.39 74.97L182.95 69.62L179.89 71.53L176.44 65.79L173.38 67.7L169.94 61.97L166.88 63.88L163.44 58.14L160.38 60.05L159.61 58.52L163.44 56.61L166.88 61.97L169.94 60.05L173.38 65.79L176.44 63.88L179.89 69.62L182.95 67.7L186.39 73.44L189.83 71.53L192.89 77.27L196.34 75.36L199.4 81.09L202.84 79.18L205.9 84.92L209.34 83.01Z" fill="#1E72C6" fill-opacity="1.000000" fill-rule="nonzero"/>
  <path id="path" d="M213.17 89.51L212.4 89.89L209.34 84.54L205.9 86.45L202.84 80.71L199.4 82.62L196.34 76.89L192.89 78.8L189.83 73.44L186.39 74.97L182.95 69.62L179.89 71.53L176.44 65.79L173.38 67.7L169.94 61.97L166.88 63.88L163.44 58.14L160.38 60.05L159.61 58.52L163.44 56.61L166.88 61.97L169.94 60.05L173.38 65.79L176.44 63.88L179.89 69.62L182.95 67.7L186.39 73.44L189.83 71.53L192.89 77.27L196.34 75.36L199.4 81.09L202.84 79.18L205.9 84.92L209.34 83.01L213.17 89.51Z" stroke="#000000" stroke-opacity="0" stroke-width="1.000000"/>
  <path id="path" d="M239.95 130.44L239.95 132.74L159.23 86.07L159.23 83.77L239.95 130.44Z" fill="#9EB5DF" fill-opacity="1.000000" fill-rule="nonzero"/>
  <path id="path" d="M239.95 132.74L159.23 86.07L159.23 83.77L239.95 130.44L239.95 132.74Z" stroke="#000000" stroke-opacity="0" stroke-width="1.000000"/>
  <path id="path" d="M213.17 81.09L213.17 83.39L159.23 52.02L159.23 50.11L213.17 81.09Z" fill="#9EB5DF" fill-opacity="1.000000" fill-rule="nonzero"/>
  <path id="path" d="M213.17 83.39L159.23 52.02L159.23 50.11L213.17 81.09L213.17 83.39Z" stroke="#000000" stroke-opacity="0" stroke-width="1.000000"/>
  <path id="path" d="M239.95 119.35L239.95 121.26L159.23 74.59L159.23 72.68L239.95 119.35Z" fill="#9EB5DF" fill-opacity="1.000000" fill-rule="nonzero"/>
  <path id="path" d="M239.95 121.26L159.23 74.59L159.23 72.68L239.95 119.35L239.95 121.26Z" stroke="#000000" stroke-opacity="0" stroke-width="1.000000"/>
  <path id="path" d="M239.95 107.87L239.95 110.17L220.82 99.07L220.82 96.78L239.95 107.87Z" fill="#9EB5DF" fill-opacity="1.000000" fill-rule="nonzero"/>
  <path id="path" d="M239.95 110.17L220.82 99.07L220.82 96.78L239.95 107.87L239.95 110.17Z" stroke="#000000" stroke-opacity="0" stroke-width="1.000000"/>
  <path id="path" d="M239.95 85.3L239.95 87.6L179.51 52.4L179.51 50.49L239.95 85.3Z" fill="#9EB5DF" fill-opacity="1.000000" fill-rule="nonzero"/>
  <path id="path" d="M239.95 87.6L179.51 52.4L179.51 50.49L239.95 85.3L239.95 87.6Z" stroke="#000000" stroke-opacity="0" stroke-width="1.000000"/>
  <path id="path" d="M239.95 75.36L239.95 78.42L179.51 43.6L179.51 40.16L239.95 75.36Z" fill="#9EB5DF" fill-opacity="1.000000" fill-rule="nonzero"/>
  <path id="path" d="M239.95 78.42L179.51 43.6L179.51 40.16L239.95 75.36L239.95 78.42Z" stroke="#000000" stroke-opacity="0" stroke-width="1.000000"/>
  <path id="path" d="M213.17 92.57L213.17 94.48L159.23 63.5L159.23 61.2L213.17 92.57Z" fill="#9EB5DF" fill-opacity="1.000000" fill-rule="nonzero"/>
  <path id="path" d="M213.17 94.48L159.23 63.5L159.23 61.2L213.17 92.57L213.17 94.48Z" stroke="#000000" stroke-opacity="0" stroke-width="1.000000"/>
  <path id="path" d="M139.34 178.26L138.19 180.55L129.39 184L124.8 193.18L117.15 201.59L117.92 203.51L128.63 205.42L133.22 211.92L132.07 213.45L130.16 211.92L129.39 212.69L129.01 210.39L126.33 207.33L119.83 206.57L111.41 206.95L106.82 213.07L101.47 213.07L98.41 211.16L99.94 205.42L109.12 198.53L112.56 190.12L117.53 185.91L122.12 179.02L125.95 176.73L127.48 177.11L119.83 189.35L129.77 176.73L139.34 178.26Z" fill="#E1E9F4" fill-opacity="1.000000" fill-rule="nonzero"/>
  <path id="path" d="M138.19 180.55L129.39 184L124.8 193.18L117.15 201.59L117.92 203.51L128.63 205.42L133.22 211.92L132.07 213.45L130.16 211.92L129.39 212.69L129.01 210.39L126.33 207.33L119.83 206.57L111.41 206.95L106.82 213.07L101.47 213.07L98.41 211.16L99.94 205.42L109.12 198.53L112.56 190.12L117.53 185.91L122.12 179.02L125.95 176.73L127.48 177.11L119.83 189.35L129.77 176.73L139.34 178.26L138.19 180.55Z" stroke="#000000" stroke-opacity="0" stroke-width="1.000000"/>
  <path id="path" d="M131.69 173.29L122.89 174.43L122.12 178.64L132.84 174.43L131.69 173.29Z" fill="#2A2A5E" fill-opacity="1.000000" fill-rule="nonzero"/>
  <path id="path" d="M122.89 174.43L122.12 178.64L132.84 174.43L131.69 173.29L122.89 174.43Z" stroke="#000000" stroke-opacity="0" stroke-width="1.000000"/>
  <path id="path" d="M137.81 177.11L129.01 178.26L128.24 182.85L130.16 183.23L139.34 179.02L137.81 177.11Z" fill="#2A2A5E" fill-opacity="1.000000" fill-rule="nonzero"/>
  <path id="path" d="M129.01 178.26L128.24 182.85L130.16 183.23L139.34 179.02L137.81 177.11L129.01 178.26Z" stroke="#000000" stroke-opacity="0" stroke-width="1.000000"/>
  <path id="path" d="M123.65 143.07L121.74 148.04L122.89 161.43L122.12 175.2L125.18 175.58L127.1 173.67L127.1 162.96L128.63 155.31L129.01 157.6L129.01 145.36L123.65 143.07Z" fill="#3A3A77" fill-opacity="1.000000" fill-rule="nonzero"/>
  <path id="path" d="M121.74 148.04L122.89 161.43L122.12 175.2L125.18 175.58L127.1 173.67L127.1 162.96L128.63 155.31L129.01 157.6L129.01 145.36L123.65 143.07L121.74 148.04Z" stroke="#000000" stroke-opacity="0" stroke-width="1.000000"/>
  <path id="path" d="M135.51 144.98L131.69 146.13L126.33 144.6L125.95 147.66L129.01 158.37L128.24 179.41L130.92 179.79L133.6 177.49L133.98 164.49L136.28 153.01L135.51 144.98Z" fill="#4C4A8B" fill-opacity="1.000000" fill-rule="nonzero"/>
  <path id="path" d="M131.69 146.13L126.33 144.6L125.95 147.66L129.01 158.37L128.24 179.41L130.92 179.79L133.6 177.49L133.98 164.49L136.28 153.01L135.51 144.98L131.69 146.13Z" stroke="#000000" stroke-opacity="0" stroke-width="1.000000"/>
  <path id="path" d="M132.45 137.71L127.86 132.74L128.25 130.06L127.1 128.91L123.27 130.82L123.65 134.27L127.1 137.71L132.45 137.71Z" fill="#ECB4BF" fill-opacity="1.000000" fill-rule="nonzero"/>
  <path id="path" d="M127.86 132.74L128.25 130.06L127.1 128.91L123.27 130.82L123.65 134.27L127.1 137.71L132.45 137.71L127.86 132.74Z" stroke="#000000" stroke-opacity="0" stroke-width="1.000000"/>
  <path id="path" d="M124.04 121.26L122.12 122.79L121.74 126.23L122.89 131.21L125.95 131.21L128.24 130.06L128.24 124.7L126.71 121.64L124.04 121.26Z" fill="#8CA8F7" fill-opacity="1.000000" fill-rule="nonzero"/>
  <path id="path" d="M122.12 122.79L121.74 126.23L122.89 131.21L125.95 131.21L128.24 130.06L128.24 124.7L126.71 121.64L124.04 121.26L122.12 122.79Z" stroke="#000000" stroke-opacity="0" stroke-width="1.000000"/>
  <path id="path" d="M136.28 125.85L134.37 122.41L122.51 120.11L122.12 125.47L124.8 132.74L124.8 136.18L122.12 145.74L130.92 147.66L135.89 146.89L135.13 136.94L138.19 128.91L136.28 125.85Z" fill="#6B9EF9" fill-opacity="1.000000" fill-rule="nonzero"/>
  <path id="path" d="M134.37 122.41L122.51 120.11L122.12 125.47L124.8 132.74L124.8 136.18L122.12 145.74L130.92 147.66L135.89 146.89L135.13 136.94L138.19 128.91L136.28 125.85L134.37 122.41Z" stroke="#000000" stroke-opacity="0" stroke-width="1.000000"/>
  <path id="path" d="M137.04 126.62L136.66 128.53L133.98 132.74L135.89 141.92L135.51 133.88L137.81 129.29L137.04 126.62Z" fill="#3887E5" fill-opacity="1.000000" fill-rule="nonzero"/>
  <path id="path" d="M136.66 128.53L133.98 132.74L135.89 141.92L135.51 133.88L137.81 129.29L137.04 126.62L136.66 128.53Z" stroke="#000000" stroke-opacity="0" stroke-width="1.000000"/>
  <path id="path" d="M136.28 125.85L141.25 125.47L148.52 127.76L153.87 123.94L157.32 118.97L157.32 120.5L159.61 118.2L159.23 119.73L160.38 118.97L159.61 121.64L160.38 121.64L150.43 131.59L148.14 131.97L137.42 129.68L135.51 127.76L136.28 125.85Z" fill="#ECB4BF" fill-opacity="1.000000" fill-rule="nonzero"/>
  <path id="path" d="M141.25 125.47L148.52 127.76L153.87 123.94L157.32 118.97L157.32 120.5L159.61 118.2L159.23 119.73L160.38 118.97L159.61 121.64L160.38 121.64L150.43 131.59L148.14 131.97L137.42 129.68L135.51 127.76L136.28 125.85L141.25 125.47Z" stroke="#000000" stroke-opacity="0" stroke-width="1.000000"/>
  <path id="path" d="M142.4 125.47L132.83 122.41L132.07 125.85L132.83 128.15L135.51 129.68L141.63 130.82L142.4 125.47Z" fill="#6B9EF9" fill-opacity="1.000000" fill-rule="nonzero"/>
  <path id="path" d="M132.83 122.41L132.07 125.85L132.83 128.15L135.51 129.68L141.63 130.82L142.4 125.47L132.83 122.41Z" stroke="#000000" stroke-opacity="0" stroke-width="1.000000"/>
  <path id="path" d="M134.37 111.7L133.98 110.55L130.92 112.08L129.39 117.82L132.07 120.5L133.6 119.73L134.37 111.7Z" fill="#ECB4BF" fill-opacity="1.000000" fill-rule="nonzero"/>
  <path id="path" d="M133.98 110.55L130.92 112.08L129.39 117.82L132.07 120.5L133.6 119.73L134.37 111.7L133.98 110.55Z" stroke="#000000" stroke-opacity="0" stroke-width="1.000000"/>
  <path id="path" d="M133.22 120.11L132.07 116.67L134.37 110.93L133.98 109.4L129.77 107.49L125.95 108.25L124.42 110.17L121.36 120.11L123.27 130.44L125.95 131.97L129.39 131.59L133.98 122.41L133.22 120.11Z" fill="#A0533F" fill-opacity="1.000000" fill-rule="nonzero"/>
  <path id="path" d="M132.07 116.67L134.37 110.93L133.98 109.4L129.77 107.49L125.95 108.25L124.42 110.17L121.36 120.11L123.27 130.44L125.95 131.97L129.39 131.59L133.98 122.41L133.22 120.11L132.07 116.67Z" stroke="#000000" stroke-opacity="0" stroke-width="1.000000"/>
  <path id="path" d="M187.92 213.84L181.42 216.13L167.26 235.26L179.12 239.08L175.3 243.67L175.3 244.82L168.79 249.41L174.53 251.32L177.21 254L176.06 257.06L173 259.36L167.65 262.04L155.4 264.71L149.67 264.33L144.69 262.04L143.55 260.12L144.69 257.44L147.75 254.77L153.11 252.09L164.97 249.41L167.26 244.06L163.82 239.47L161.14 238.7L158.85 239.08L160.38 240.23L157.7 244.82L150.05 243.67L148.9 243.29L149.67 241L153.87 239.08L151.2 236.79L158.47 231.05L160 226.46L164.97 221.87L176.44 205.8L178.74 206.95L170.32 222.63L176.83 217.66L181.42 208.48L182.57 209.25L182.18 213.84L189.83 209.25L187.92 213.84Z" fill="#E1E9F4" fill-opacity="1.000000" fill-rule="nonzero"/>
  <path id="path" d="M181.42 216.13L167.26 235.26L179.12 239.08L175.3 243.67L175.3 244.82L168.79 249.41L174.53 251.32L177.21 254L176.06 257.06L173 259.36L167.65 262.04L155.4 264.71L149.67 264.33L144.69 262.04L143.55 260.12L144.69 257.44L147.75 254.77L153.11 252.09L164.97 249.41L167.26 244.06L163.82 239.47L161.14 238.7L158.85 239.08L160.38 240.23L157.7 244.82L150.05 243.67L148.9 243.29L149.67 241L153.87 239.08L151.2 236.79L158.47 231.05L160 226.46L164.97 221.87L176.44 205.8L178.74 206.95L170.32 222.63L176.83 217.66L181.42 208.48L182.57 209.25L182.18 213.84L189.83 209.25L187.92 213.84L181.42 216.13Z" stroke="#000000" stroke-opacity="0" stroke-width="1.000000"/>
  <path id="path" d="M180.65 151.48L174.53 150.33L171.47 151.48L170.32 154.16L171.09 156.45L176.44 157.98L179.89 157.6L179.12 155.31L180.65 151.48Z" fill="#3A3A77" fill-opacity="1.000000" fill-rule="nonzero"/>
  <path id="path" d="M174.53 150.33L171.47 151.48L170.32 154.16L171.09 156.45L176.44 157.98L179.89 157.6L179.12 155.31L180.65 151.48L174.53 150.33Z" stroke="#000000" stroke-opacity="0" stroke-width="1.000000"/>
  <path id="path" d="M183.71 143.07L177.21 143.83L174.15 152.63L175.68 154.92L180.27 155.31L180.65 151.48L182.95 150.72L183.71 148.8L183.71 143.07Z" fill="#ECB4BF" fill-opacity="1.000000" fill-rule="nonzero"/>
  <path id="path" d="M177.21 143.83L174.15 152.63L175.68 154.92L180.27 155.31L180.65 151.48L182.95 150.72L183.71 148.8L183.71 143.07L177.21 143.83Z" stroke="#000000" stroke-opacity="0" stroke-width="1.000000"/>
  <path id="path" d="M181.8 144.6L182.18 146.51L181.42 147.66L180.27 146.89L179.12 149.95L175.68 149.19L172.62 143.45L174.15 138.47L183.71 138.09L184.48 143.07L181.8 144.6Z" fill="#2A2A5E" fill-opacity="1.000000" fill-rule="nonzero"/>
  <path id="path" d="M182.18 146.51L181.42 147.66L180.27 146.89L179.12 149.95L175.68 149.19L172.62 143.45L174.15 138.47L183.71 138.09L184.48 143.07L181.8 144.6L182.18 146.51Z" stroke="#000000" stroke-opacity="0" stroke-width="1.000000"/>
  <path id="path" d="M199.78 140.39L197.48 142.3L196.34 142.3L197.48 140L196.34 140L193.66 146.51L187.92 151.86L177.21 154.92L179.89 157.6L178.36 161.43L187.16 157.6L190.22 154.92L195.95 146.51L200.54 143.45L201.31 141.92L200.54 140L199.78 140.39Z" fill="#ECB4BF" fill-opacity="1.000000" fill-rule="nonzero"/>
  <path id="path" d="M197.48 142.3L196.34 142.3L197.48 140L196.34 140L193.66 146.51L187.92 151.86L177.21 154.92L179.89 157.6L178.36 161.43L187.16 157.6L190.22 154.92L195.95 146.51L200.54 143.45L201.31 141.92L200.54 140L199.78 140.39L197.48 142.3Z" stroke="#000000" stroke-opacity="0" stroke-width="1.000000"/>
  <path id="path" d="M183.71 154.92L181.42 152.63L174.91 150.33L171.47 152.25L173 172.52L175.3 174.82L180.27 177.88L182.95 177.49L185.63 174.43L186.01 157.98L183.71 154.92Z" fill="#4C4A8B" fill-opacity="1.000000" fill-rule="nonzero"/>
  <path id="path" d="M181.42 152.63L174.91 150.33L171.47 152.25L173 172.52L175.3 174.82L180.27 177.88L182.95 177.49L185.63 174.43L186.01 157.98L183.71 154.92L181.42 152.63Z" stroke="#000000" stroke-opacity="0" stroke-width="1.000000"/>
  <path id="path" d="M179.12 152.63L174.91 151.48L174.91 149.95L180.27 151.48L180.65 152.63L179.12 152.63Z" fill="#3A3A77" fill-opacity="1.000000" fill-rule="nonzero"/>
  <path id="path" d="M174.91 151.48L174.91 149.95L180.27 151.48L180.65 152.63L179.12 152.63L174.91 151.48Z" stroke="#000000" stroke-opacity="0" stroke-width="1.000000"/>
  <path id="path" d="" fill="#73BC9C" fill-opacity="1.000000" fill-rule="nonzero"/>
  <path id="path" d="" stroke="#000000" stroke-opacity="0" stroke-width="1.000000"/>
  <path id="path" d="M177.59 211.92L180.65 210.01L189.83 208.86L187.54 212.69L182.18 214.98L177.97 214.98L177.59 211.92Z" fill="#2A2A5E" fill-opacity="1.000000" fill-rule="nonzero"/>
  <path id="path" d="M180.65 210.01L189.83 208.86L187.54 212.69L182.18 214.98L177.97 214.98L177.59 211.92L180.65 210.01Z" stroke="#000000" stroke-opacity="0" stroke-width="1.000000"/>
  <path id="path" d="M171.09 207.71L173.77 205.42L183.33 204.27L180.65 208.1L175.68 210.39L171.47 210.39L171.09 207.71Z" fill="#2A2A5E" fill-opacity="1.000000" fill-rule="nonzero"/>
  <path id="path" d="M173.77 205.42L183.33 204.27L180.65 208.1L175.68 210.39L171.47 210.39L171.09 207.71L173.77 205.42Z" stroke="#000000" stroke-opacity="0" stroke-width="1.000000"/>
  <path id="path" d="M185.63 174.43L181.8 175.58L173 172.52L170.71 180.17L171.47 206.95L174.91 206.95L176.44 205.42L177.59 185.14L178.74 191.65L177.97 211.54L182.57 211.54L183.71 210.39L185.63 174.43Z" fill="#3887E5" fill-opacity="1.000000" fill-rule="nonzero"/>
  <path id="path" d="M181.8 175.58L173 172.52L170.71 180.17L171.47 206.95L174.91 206.95L176.44 205.42L177.59 185.14L178.74 191.65L177.97 211.54L182.57 211.54L183.71 210.39L185.63 174.43L181.8 175.58Z" stroke="#000000" stroke-opacity="0" stroke-width="1.000000"/>
  <path id="path" d="M184.1 176.35L186.01 175.2L185.63 173.67L184.1 174.82L179.89 174.82L173 171.76L173 173.29L176.83 174.82L184.1 176.35Z" fill="#4C4A8B" fill-opacity="1.000000" fill-rule="nonzero"/>
  <path id="path" d="M186.01 175.2L185.63 173.67L184.1 174.82L179.89 174.82L173 171.76L173 173.29L176.83 174.82L184.1 176.35L186.01 175.2Z" stroke="#000000" stroke-opacity="0" stroke-width="1.000000"/>
  <path id="path" d="" fill="#6262AA" fill-opacity="1.000000" fill-rule="nonzero"/>
  <path id="path" d="M175.3 148.8L175.3 149.19" stroke="#000000" stroke-opacity="0" stroke-width="1.000000"/>
  <path id="path" d="M202.07 160.66L198.63 162.58L195.19 160.66L195.19 136.56L198.63 138.47L202.07 136.56L202.07 160.66Z" fill="#3887E5" fill-opacity="1.000000" fill-rule="nonzero"/>
  <path id="path" d="M198.63 162.58L195.19 160.66L195.19 136.56L198.63 138.47L202.07 136.56L202.07 160.66L198.63 162.58Z" stroke="#000000" stroke-opacity="0" stroke-width="1.000000"/>
  <path id="path" d="M200.93 138.09L202.07 136.56L200.93 135.03L195.95 135.03L195.19 136.56L195.95 138.09L200.93 138.09Z" fill="#A6C2FF" fill-opacity="1.000000" fill-rule="nonzero"/>
  <path id="path" d="M202.07 136.56L200.93 135.03L195.95 135.03L195.19 136.56L195.95 138.09L200.93 138.09L202.07 136.56Z" stroke="#000000" stroke-opacity="0" stroke-width="1.000000"/>
  <path id="path" d="M196.72 131.59L196.72 136.18L198.63 137.33L200.54 136.18L200.54 131.59L196.72 131.59Z" fill="#2A2A5E" fill-opacity="1.000000" fill-rule="nonzero"/>
  <path id="path" d="M196.72 136.18L198.63 137.33L200.54 136.18L200.54 131.59L196.72 131.59L196.72 136.18Z" stroke="#000000" stroke-opacity="0" stroke-width="1.000000"/>
  <path id="path" d="M188.3 100.6L191.36 99.07L188.69 101.75L187.92 107.11L188.69 113.23L192.51 120.88L200.16 128.53L205.14 130.06L208.96 129.29L202.08 131.97L197.1 130.44L189.07 122.79L185.63 114.76L184.86 109.02L185.63 103.66L188.3 100.6Z" fill="#6262AA" fill-opacity="1.000000" fill-rule="nonzero"/>
  <path id="path" d="M191.36 99.07L188.69 101.75L187.92 107.11L188.69 113.23L192.51 120.88L200.16 128.53L205.14 130.06L208.96 129.29L202.08 131.97L197.1 130.44L189.07 122.79L185.63 114.76L184.86 109.02L185.63 103.66L188.3 100.6L191.36 99.07Z" stroke="#000000" stroke-opacity="0" stroke-width="1.000000"/>
  <path id="path" d="M186.39 107.87L187.16 102.52L189.83 99.84L193.66 99.07L198.63 100.6L203.61 104.43L207.43 109.78L210.11 116.29L211.26 122.03L210.11 127.38L207.43 130.44L203.61 131.21L198.63 129.29L194.04 125.47L189.83 120.11L187.16 113.99L186.39 107.87Z" fill="#7BB1FF" fill-opacity="0.698039" fill-rule="nonzero"/>
  <path id="path" d="M187.16 102.52L189.83 99.84L193.66 99.07L198.63 100.6L203.61 104.43L207.43 109.78L210.11 116.29L211.26 122.03L210.11 127.38L207.43 130.44L203.61 131.21L198.63 129.29L194.04 125.47L189.83 120.11L187.16 113.99L186.39 107.87L187.16 102.52Z" stroke="#000000" stroke-opacity="0" stroke-width="1.000000"/>
  <path id="path" d="M186.77 97.54L192.51 94.87L200.16 97.16L205.9 101.75L210.49 108.25L213.93 115.52L215.08 122.79L212.79 130.44L207.43 134.27L211.26 129.29L212.02 124.7L210.87 117.05L207.81 109.78L202.84 103.28L197.1 98.69L192.89 97.16L186.77 97.54Z" fill="#6262AA" fill-opacity="1.000000" fill-rule="nonzero"/>
  <path id="path" d="M192.51 94.87L200.16 97.16L205.9 101.75L210.49 108.25L213.93 115.52L215.08 122.79L212.79 130.44L207.43 134.27L211.26 129.29L212.02 124.7L210.87 117.05L207.81 109.78L202.84 103.28L197.1 98.69L192.89 97.16L186.77 97.54L192.51 94.87Z" stroke="#000000" stroke-opacity="0" stroke-width="1.000000"/>
  <path id="path" d="M182.18 107.49L184.48 99.84L189.45 96.78L192.89 97.16L197.1 98.69L202.84 103.28L207.81 109.78L210.87 117.05L212.02 124.7L209.73 132.35L204.75 135.03L201.31 135.03L197.1 133.12L191.36 128.53L186.39 122.03L183.33 114.76L182.18 107.49ZM209.73 123.17L208.58 117.05L205.9 110.93L201.69 105.58L197.1 101.75L192.13 99.84L188.3 100.6L185.63 103.66L184.86 109.02L185.63 114.76L188.3 121.26L192.51 126.62L197.1 130.44L202.08 131.97L205.9 131.21L208.58 128.53L209.73 123.17Z" fill="#2A2A5E" fill-opacity="1.000000" fill-rule="nonzero"/>
  <path id="path" d="M184.48 99.84L189.45 96.78L192.89 97.16L197.1 98.69L202.84 103.28L207.81 109.78L210.87 117.05L212.02 124.7L209.73 132.35L204.75 135.03L201.31 135.03L197.1 133.12L191.36 128.53L186.39 122.03L183.33 114.76L182.18 107.49L184.48 99.84ZM208.58 117.05L205.9 110.93L201.69 105.58L197.1 101.75L192.13 99.84L188.3 100.6L185.63 103.66L184.86 109.02L185.63 114.76L188.3 121.26L192.51 126.62L197.1 130.44L202.08 131.97L205.9 131.21L208.58 128.53L209.73 123.17L208.58 117.05Z" stroke="#000000" stroke-opacity="0" stroke-width="1.000000"/>
  <path id="path" d="M188.69 159.9L187.54 160.66L189.83 162.57L190.6 161.81L188.69 159.9Z" fill="#373F51" fill-opacity="1.000000" fill-rule="nonzero"/>
  <path id="path" d="M187.54 160.66L189.83 162.57L190.6 161.81L188.69 159.9L187.54 160.66Z" stroke="#000000" stroke-opacity="0" stroke-width="1.000000"/>
  <path id="path" d="M202.07 145.36L200.16 148.04L200.54 145.74L199.4 146.51L198.63 151.1L194.42 158.37L189.07 157.6L186.77 161.04L188.3 163.72L197.48 161.43L200.54 151.48L203.22 147.66L203.61 146.13L202.07 145.36Z" fill="#ECB4BF" fill-opacity="1.000000" fill-rule="nonzero"/>
  <path id="path" d="M200.16 148.04L200.54 145.74L199.4 146.51L198.63 151.1L194.42 158.37L189.07 157.6L186.77 161.04L188.3 163.72L197.48 161.43L200.54 151.48L203.22 147.66L203.61 146.13L202.07 145.36L200.16 148.04Z" stroke="#000000" stroke-opacity="0" stroke-width="1.000000"/>
  <path id="path" d="M190.98 157.98L183.33 155.31L180.27 156.84L180.65 160.66L183.71 162.96L189.07 164.11L189.07 161.43L190.98 157.98Z" fill="#3A3A77" fill-opacity="1.000000" fill-rule="nonzero"/>
  <path id="path" d="M183.33 155.31L180.27 156.84L180.65 160.66L183.71 162.96L189.07 164.11L189.07 161.43L190.98 157.98L183.33 155.31Z" stroke="#000000" stroke-opacity="0" stroke-width="1.000000"/>
</svg>
