<?xml version="1.0" standalone="no"?><!DOCTYPE svg PUBLIC "-//W3C//DTD SVG 1.1//EN" "http://www.w3.org/Graphics/SVG/1.1/DTD/svg11.dtd"><svg t="1760493107837" class="icon" viewBox="0 0 1024 1024" version="1.1" xmlns="http://www.w3.org/2000/svg" p-id="12201" xmlns:xlink="http://www.w3.org/1999/xlink" width="200" height="200"><path d="M933.376 977.088H89.472a45.952 45.952 0 0 1-46.784-46.848V89.472c0-26.56 20.224-46.784 46.72-46.784h528.896c26.496 0 46.72 20.224 46.72 46.72a45.952 45.952 0 0 1-46.72 46.848H136.256v747.2h750.336V404.544c0-26.496 20.288-46.72 46.784-46.72 26.56 0 46.784 20.224 46.784 46.72v525.696a46.912 46.912 0 0 1-46.72 46.848z" fill="#172B4D" p-id="12202"></path><path d="M933.376 451.392a44.928 44.928 0 0 1-32.768-14.08L585.6 122.24c-18.752-18.752-18.752-48.384 0-65.536 18.688-18.688 48.32-18.688 65.536 0l315.072 313.6c18.752 18.688 18.752 48.32 0 65.472a43.52 43.52 0 0 1-32.768 15.616zM724.352 925.568a45.952 45.952 0 0 1-46.784-46.784V619.84H345.28v258.944a45.952 45.952 0 0 1-46.784 46.784 45.952 45.952 0 0 1-46.784-46.784V573.056c0-26.56 20.288-46.784 46.784-46.784h425.856c26.496 0 46.784 20.224 46.784 46.72v305.792a46.912 46.912 0 0 1-46.784 46.784zM724.352 423.296H298.496a45.952 45.952 0 0 1-46.784-46.784V133.12c0-26.496 20.288-46.72 46.784-46.72s46.784 20.224 46.784 46.72v196.544h379.072c26.496 0 46.784 20.288 46.784 46.848a46.912 46.912 0 0 1-46.784 46.72z" fill="#172B4D" p-id="12203"></path></svg>